<?xml version="1.0" encoding="utf-8"?>
<!-- Generator: Adobe Illustrator 16.0.0, SVG Export Plug-In . SVG Version: 6.00 Build 0)  -->
<!DOCTYPE svg PUBLIC "-//W3C//DTD SVG 1.1//EN" "http://www.w3.org/Graphics/SVG/1.1/DTD/svg11.dtd">
<svg version="1.1" id="Layer_1" xmlns="http://www.w3.org/2000/svg" xmlns:xlink="http://www.w3.org/1999/xlink" x="0px" y="0px"
	 width="277px" height="1362.667px" viewBox="0 0 277 1362.667" enable-background="new 0 0 277 1362.667" xml:space="preserve">
<g>
	<path fill="#FFFFFF" d="M171.012,428.5c3.308,0,6-2.691,6-6v-84c0-3.309-2.692-6-6-6h-39c-2.458,0-5.502,1.262-7.242,3
		l-16.758,16.756c-1.737,1.739-3,4.785-3,7.244v63c0,3.309,2.692,6,6,6H171.012z M171.012,338.5v84l0,0h-60v-63h15
		c3.308,0,6-2.691,6-6v-15H171.012z M126.012,342.742V353.5h-10.758L126.012,342.742z"/>
	<path fill="#FFFFFF" d="M141.012,356.5h18c1.656,0,3-1.344,3-3s-1.344-3-3-3h-18c-1.656,0-3,1.344-3,3S139.355,356.5,141.012,356.5
		z"/>
	<path fill="#FFFFFF" d="M159.012,365.5h-36c-1.656,0-3,1.344-3,3s1.344,3,3,3h36c1.656,0,3-1.344,3-3S160.668,365.5,159.012,365.5z
		"/>
	<path fill="#FFFFFF" d="M159.012,380.5h-36c-1.656,0-3,1.344-3,3s1.344,3,3,3h36c1.656,0,3-1.344,3-3S160.668,380.5,159.012,380.5z
		"/>
	<path fill="#FFFFFF" d="M159.012,395.5h-36c-1.656,0-3,1.344-3,3s1.344,3,3,3h36c1.656,0,3-1.344,3-3S160.668,395.5,159.012,395.5z
		"/>
	<path fill="#FFFFFF" d="M159.012,410.5h-36c-1.656,0-3,1.344-3,3s1.344,3,3,3h36c1.656,0,3-1.344,3-3S160.668,410.5,159.012,410.5z
		"/>
</g>
<g>
	<path fill="#FFFFFF" d="M138.5,3.499c-14.021,0-27.207,5.462-37.122,15.379C91.462,28.794,86,41.979,86,56
		c0,14.023,5.462,27.207,15.378,37.122c9.915,9.919,23.102,15.379,37.122,15.379s27.207-5.46,37.123-15.379
		C185.538,83.207,191,70.023,191,56c0-14.021-5.462-27.206-15.377-37.122C165.707,8.961,152.521,3.499,138.5,3.499z M170.982,88.482
		c-8.677,8.678-20.213,13.456-32.482,13.456s-23.806-4.778-32.483-13.456C97.34,79.806,92.562,68.27,92.562,56
		s4.777-23.806,13.456-32.481c8.676-8.678,20.212-13.457,32.481-13.457s23.806,4.779,32.482,13.457
		C179.66,32.194,184.438,43.73,184.438,56S179.66,79.806,170.982,88.482z"/>
	<path fill="#FFFFFF" d="M155.294,53.42l-22.969-18.047c-0.988-0.773-2.332-0.92-3.464-0.37c-1.128,0.549-1.846,1.695-1.846,2.95
		v36.094c0,1.257,0.718,2.401,1.846,2.951c0.456,0.221,0.946,0.33,1.436,0.33c0.722,0,1.439-0.238,2.028-0.701l22.969-18.047
		c0.792-0.621,1.253-1.575,1.253-2.58C156.547,54.994,156.086,54.042,155.294,53.42z M133.578,67.296V44.704L147.955,56
		L133.578,67.296z"/>
</g>
<line fill="none" stroke="#FFFFFF" stroke-width="2" stroke-miterlimit="10" x1="174" y1="740" x2="99" y2="975"/>
<rect x="111.559" y="1193.698" transform="matrix(0.7071 -0.7071 0.7071 0.7071 -804.0975 447.5067)" fill="#FFFFFF" width="53.191" height="1.427"/>
<rect x="111.564" y="1194.73" transform="matrix(0.7071 0.7071 -0.7071 0.7071 885.7958 252.4488)" fill="#FFFFFF" width="53.191" height="1.527"/>
<rect x="114.778" y="1338.191" transform="matrix(0.7071 -0.7071 0.7071 0.7071 -906.2037 489.7977)" fill="#CDCFD0" width="46.754" height="1.254"/>
<rect x="114.782" y="1339.098" transform="matrix(0.7071 0.7071 -0.7071 0.7071 987.8105 294.7036)" fill="#CDCFD0" width="46.754" height="1.343"/>
</svg>
