<?xml version="1.0" encoding="utf-8"?>
<!-- Generator: Adobe Illustrator 16.0.0, SVG Export Plug-In . SVG Version: 6.00 Build 0)  -->
<!DOCTYPE svg PUBLIC "-//W3C//DTD SVG 1.1//EN" "http://www.w3.org/Graphics/SVG/1.1/DTD/svg11.dtd">
<svg version="1.1" id="Layer_1" xmlns="http://www.w3.org/2000/svg" xmlns:xlink="http://www.w3.org/1999/xlink" x="0px" y="0px"
	 width="37.688px" height="37.688px" viewBox="0 0 37.688 37.688" enable-background="new 0 0 37.688 37.688" xml:space="preserve">
<path fill="#FFFFFF" d="M7.869,37.461c-2.102,0-4.078-0.818-5.564-2.305C0.819,33.67,0,31.694,0,29.592s0.819-4.079,2.305-5.564
	l3.961-3.962c1.486-1.486,3.462-2.305,5.564-2.305s4.078,0.819,5.564,2.305c1.486,1.486,2.305,3.462,2.305,5.564
	c0,2.102-0.819,4.078-2.305,5.564l-3.961,3.961C11.947,36.643,9.971,37.461,7.869,37.461z M11.831,20.054
	c-1.49,0-2.89,0.58-3.943,1.634l-3.961,3.961c-1.053,1.054-1.633,2.453-1.633,3.943c0,1.489,0.58,2.89,1.633,3.943
	c1.053,1.053,2.453,1.633,3.942,1.633c1.49,0,2.89-0.58,3.943-1.633l3.961-3.961c1.053-1.054,1.633-2.454,1.633-3.943
	c0-1.489-0.58-2.889-1.633-3.942C14.72,20.634,13.32,20.054,11.831,20.054z"/>
<path fill="#FFFFFF" d="M25.63,19.7c-2.103,0-4.078-0.818-5.565-2.305c-1.486-1.486-2.305-3.462-2.305-5.564
	s0.819-4.079,2.305-5.564l3.962-3.961C25.514,0.819,27.49,0,29.592,0s4.078,0.819,5.563,2.306c1.487,1.485,2.306,3.461,2.306,5.564
	c0,2.102-0.818,4.078-2.306,5.564l-3.961,3.961C29.708,18.882,27.732,19.7,25.63,19.7z M29.592,2.293
	c-1.49,0-2.889,0.58-3.942,1.634l-3.963,3.961c-1.053,1.054-1.633,2.454-1.633,3.943c0,1.489,0.58,2.89,1.633,3.943
	c1.053,1.053,2.453,1.633,3.943,1.633c1.489,0,2.889-0.58,3.942-1.633l3.961-3.961c1.054-1.053,1.634-2.454,1.634-3.943
	s-0.58-2.889-1.634-3.942C32.481,2.874,31.081,2.293,29.592,2.293z"/>
<path fill="#FFFFFF" d="M11.684,26.924c-0.293,0-0.587-0.112-0.811-0.336c-0.448-0.448-0.448-1.174,0-1.622l14.77-14.77
	c0.448-0.448,1.173-0.448,1.622,0c0.448,0.448,0.448,1.174,0,1.622l-14.77,14.77C12.271,26.812,11.977,26.924,11.684,26.924z"/>
</svg>
