<?xml version="1.0" encoding="utf-8"?>
<!-- Generator: Adobe Illustrator 16.0.0, SVG Export Plug-In . SVG Version: 6.00 Build 0)  -->
<!DOCTYPE svg PUBLIC "-//W3C//DTD SVG 1.1//EN" "http://www.w3.org/Graphics/SVG/1.1/DTD/svg11.dtd">
<svg version="1.1" id="Layer_1" xmlns="http://www.w3.org/2000/svg" xmlns:xlink="http://www.w3.org/1999/xlink" x="0px" y="0px"
	 width="665px" height="102.38px" viewBox="0 0 665 102.38" enable-background="new 0 0 665 102.38" xml:space="preserve">
<g>
	<path fill="#FFFFFF" d="M1.971,52.41H0L19.125,0.727h2.92L41.17,52.41h-1.971l-6.861-18.469H8.832L1.971,52.41z M20.439,2.479
		L9.489,32.116h22.191L20.73,2.479H20.439z"/>
	<path fill="#FFFFFF" d="M92.781,25.838c5.693,2.409,7.445,8.176,7.372,12.774c-0.219,10.658-7.081,13.797-16.06,13.797H65.261
		V0.727h18.906c7.592,0,13.505,4.38,13.505,12.556c0,4.38-1.606,8.322-5.184,10.438l-2.263,1.241L92.781,25.838z M84.167,24.16
		c6.789,0,11.753-3.358,11.753-10.804c0-7.227-5.184-10.95-11.753-10.95H67.086V24.16H84.167z M84.167,50.658
		c8.249,0.146,14.161-3.139,14.161-12.118c0-9.052-5.475-12.702-14.161-12.628H67.086v24.746H84.167z"/>
	<path fill="#FFFFFF" d="M141.909,52.41l-17.374-23.067h-11.752V52.41h-1.752V0.727h18.249c8.979,0,15.841,3.504,16.06,14.016
		c0,10.73-6.569,14.6-15.986,14.6h-2.773l17.446,23.067H141.909z M129.354,27.736c9.417,0,14.234-3.796,14.234-12.92
		c0-9.344-5.985-12.556-14.234-12.41h-16.57v25.331H129.354z"/>
	<path fill="#FFFFFF" d="M157.459,52.41h-1.825V0.727h1.825V52.41z"/>
	<path fill="#FFFFFF" d="M172.861,25.692h26.718v1.971h-26.718v22.921h28.908v1.825h-30.732V0.727h30.732v1.825h-28.908V25.692z"/>
	<path fill="#FFFFFF" d="M214.105,2.552v24.089h25.404v1.825h-25.404V52.41h-1.824V0.727h29.783v1.825H214.105z"/>
	<path fill="#FFFFFF" d="M270.021,52.41h-1.824V0.727h1.824v24.965h32.631V0.727h1.824V52.41h-1.824V27.517h-32.631V52.41z"/>
	<path fill="#FFFFFF" d="M319.881,52.41h-1.825V0.727h1.825V52.41z"/>
	<path fill="#FFFFFF" d="M348.131,25.108c8.469,1.679,17.666,5.11,16.936,15.256c-0.584,8.322-8.905,12.775-17.373,12.775
		c-6.351,0-13.14-2.482-17.009-8.322l1.679-0.73c3.358,4.818,9.417,7.3,15.477,7.3c7.153,0,14.234-3.431,15.256-11.023
		c0.657-9.197-7.373-11.752-15.402-13.504c-7.738-1.606-17.009-4.526-16.57-14.308c0.292-8.541,8.395-12.556,16.644-12.556
		c6.643,0,12.848,2.336,16.06,7.957l-1.68,0.657c-2.7-4.672-8.613-6.862-14.38-6.862c-7.3,0-14.308,3.066-14.819,10.804
		C332.363,20.217,339.81,23.429,348.131,25.108z"/>
	<path fill="#FFFFFF" d="M406.02,2.552h-17.228V52.41h-1.825V2.552H369.74V0.727h36.279V2.552z"/>
	<path fill="#FFFFFF" d="M410.984,14.597c0-9.708,9.562-14.6,19.198-14.6s19.271,4.891,19.271,14.6v23.871
		c0,9.708-9.636,14.673-19.271,14.673s-19.198-4.964-19.198-14.673V14.597z M412.809,38.467c0,8.613,8.614,12.848,17.374,12.848
		c8.687,0,17.446-4.234,17.446-12.848V14.597c0-9.052-8.832-12.848-17.52-12.848c-8.687,0.073-17.301,3.942-17.301,12.848V38.467z"
		/>
	<path fill="#FFFFFF" d="M492.815,52.41l-17.374-23.067h-11.752V52.41h-1.752V0.727h18.249c8.979,0,15.841,3.504,16.06,14.016
		c0,10.73-6.569,14.6-15.986,14.6h-2.773l17.446,23.067H492.815z M480.26,27.736c9.417,0,14.234-3.796,14.234-12.92
		c0-9.344-5.985-12.556-14.234-12.41h-16.57v25.331H480.26z"/>
	<path fill="#FFFFFF" d="M519.898,52.41h-1.824V31.897l-17.666-31.17h2.19l16.425,29.126l16.936-29.126h2.263l-18.323,31.17V52.41z"
		/>
</g>
<path fill="#FFFFFF" d="M0.555,80.146c0-5.453,5.371-8.201,10.783-8.201s10.824,2.748,10.824,8.201v13.406
	c0,5.453-5.412,8.242-10.824,8.242S0.555,99.005,0.555,93.552V80.146z M1.58,93.552c0,4.838,4.838,7.217,9.758,7.217
	c4.879,0,9.799-2.379,9.799-7.217V80.146c0-5.084-4.961-7.217-9.84-7.217C6.418,72.97,1.58,75.144,1.58,80.146V93.552z"/>
<path fill="#FFFFFF" d="M30.197,73.38v13.531h14.268v1.023H30.197v13.449h-1.025V72.355H45.9v1.025H30.197z"/>
<path fill="#FFFFFF" d="M77.061,73.38h-9.676v28.004h-1.025V73.38h-9.676v-1.025h20.377V73.38z"/>
<path fill="#FFFFFF" d="M82.799,101.384h-1.025V72.355h1.025v14.023h18.327V72.355h1.025v29.029h-1.025V87.402H82.799V101.384z"/>
<path fill="#FFFFFF" d="M110.803,86.378h15.006v1.105h-15.006v12.875h16.235v1.025h-17.261V72.355h17.261v1.025h-16.235V86.378z"/>
<path fill="#FFFFFF" d="M139.952,101.384h-1.106l10.742-29.029h1.64l10.742,29.029h-1.107l-3.854-10.373h-13.202L139.952,101.384z
	 M150.325,73.339l-6.149,16.646h12.464l-6.15-16.646H150.325z"/>
<path fill="#FFFFFF" d="M166.521,101.384V72.355h1.024v28.004h14.515v1.025H166.521z"/>
<path fill="#FFFFFF" d="M184.765,101.384h-1.106L194.4,72.355h1.64l10.742,29.029h-1.107l-3.854-10.373h-13.202L184.765,101.384z
	 M195.138,73.339l-6.149,16.646h12.464l-6.15-16.646H195.138z"/>
<path fill="#FFFFFF" d="M219.287,86.05c4.757,0.941,9.923,2.869,9.513,8.568c-0.328,4.674-5.002,7.176-9.758,7.176
	c-3.567,0-7.381-1.395-9.554-4.674l0.943-0.41c1.886,2.705,5.289,4.1,8.691,4.1c4.019,0,7.995-1.928,8.569-6.191
	c0.369-5.166-4.141-6.602-8.65-7.586c-4.347-0.9-9.554-2.541-9.308-8.035c0.164-4.797,4.715-7.053,9.348-7.053
	c3.731,0,7.217,1.312,9.021,4.471l-0.943,0.367c-1.517-2.623-4.838-3.854-8.077-3.854c-4.1,0-8.035,1.723-8.322,6.068
	C210.432,83.302,214.613,85.107,219.287,86.05z"/>
<path fill="#FFFFFF" d="M235.769,89.986l17.18-17.631h1.312l-13.407,13.982l13.407,15.047h-1.188l-12.957-14.311l-4.346,4.348v9.963
	h-1.024V72.355h1.024V89.986z"/>
<path fill="#FFFFFF" d="M257.006,101.384h-1.106l10.742-29.029h1.64l10.742,29.029h-1.107l-3.854-10.373H260.86L257.006,101.384z
	 M267.379,73.339l-6.149,16.646h12.464l-6.15-16.646H267.379z"/>
<path fill="#FFFFFF" d="M305.392,86.05c4.757,0.941,9.923,2.869,9.513,8.568c-0.328,4.674-5.002,7.176-9.759,7.176
	c-3.566,0-7.38-1.395-9.553-4.674l0.943-0.41c1.886,2.705,5.289,4.1,8.691,4.1c4.019,0,7.995-1.928,8.569-6.191
	c0.369-5.166-4.141-6.602-8.651-7.586c-4.346-0.9-9.553-2.541-9.307-8.035c0.164-4.797,4.715-7.053,9.348-7.053
	c3.731,0,7.217,1.312,9.021,4.471l-0.943,0.367c-1.517-2.623-4.838-3.854-8.077-3.854c-4.1,0-8.035,1.723-8.322,6.068
	C296.536,83.302,300.718,85.107,305.392,86.05z"/>
<path fill="#FFFFFF" d="M318.593,101.384h-1.106l10.742-29.029h1.64l10.742,29.029h-1.107l-3.854-10.373h-13.202L318.593,101.384z
	 M328.966,73.339l-6.149,16.646h12.464l-6.15-16.646H328.966z"/>
<path fill="#FFFFFF" d="M345.161,101.384V72.355h1.024v28.004H360.7v1.025H345.161z"/>
<path fill="#FFFFFF" d="M366.768,73.38l-0.369,0.041v27.963h-1.024V72.355h2.173l10.373,23.494l10.332-23.494h2.173v29.029h-1.025
	V73.093h-0.368l-10.415,23.699h-1.394L366.768,73.38z"/>
<path fill="#FFFFFF" d="M397.395,80.146c0-5.453,5.371-8.201,10.783-8.201s10.824,2.748,10.824,8.201v13.406
	c0,5.453-5.412,8.242-10.824,8.242s-10.783-2.789-10.783-8.242V80.146z M398.419,93.552c0,4.838,4.839,7.217,9.759,7.217
	c4.879,0,9.799-2.379,9.799-7.217V80.146c0-5.084-4.961-7.217-9.84-7.217c-4.879,0.041-9.718,2.215-9.718,7.217V93.552z"/>
<path fill="#FFFFFF" d="M444.872,100.4V72.355h1.025v29.029h-1.763l-17.016-27.717l-0.041,27.717h-1.065V72.355h1.599L444.872,100.4
	z"/>
<path fill="#FFFFFF" d="M463.579,100.927V72.615h9.998c5.758,0.079,8.678,4.438,8.678,8.598c0,4.119-2.879,8.399-8.639,8.438h-9.037
	v11.277H463.579z M473.577,88.651c5.198,0,7.677-3.801,7.677-7.478c0-3.719-2.559-7.6-7.677-7.638h-8.998v15.115H473.577z"/>
<path fill="#FFFFFF" d="M504.568,100.927l-9.519-12.636h-6.438v12.636h-0.96V72.615h9.998c4.919,0,8.678,1.919,8.798,7.678
	c0,5.88-3.599,7.999-8.758,7.999h-1.521l9.558,12.636H504.568z M497.69,87.411c5.159,0,7.797-2.079,7.797-7.078
	c0-5.119-3.277-6.877-7.797-6.797h-9.078v13.875H497.69z"/>
<path fill="#FFFFFF" d="M511.447,80.213c0-5.319,5.239-7.999,10.518-7.999s10.557,2.68,10.557,7.999v13.075
	c0,5.319-5.278,8.04-10.557,8.04s-10.518-2.721-10.518-8.04V80.213z M512.447,93.289c0,4.721,4.718,7.039,9.518,7.039
	c4.759,0,9.558-2.318,9.558-7.039V80.213c0-4.959-4.838-7.038-9.598-7.038c-4.76,0.039-9.478,2.159-9.478,7.038V93.289z"/>
<path fill="#FFFFFF" d="M538.761,80.133c0-5.199,4.958-7.919,9.918-7.919c3.561,0,7.076,1.4,8.757,4.12l-0.919,0.599
	c-1.44-2.6-4.68-3.719-7.919-3.719c-4.438,0-8.838,2.279-8.838,6.919v13.155c0,4.721,4.439,7.08,8.919,7.08
	c4.438,0,8.957-2.359,8.957-7.08v-5.357h-8.678V86.97h9.677v6.318c0,5.359-4.998,8.04-9.956,8.04c-4.96,0-9.918-2.681-9.918-8.04
	V80.133z"/>
<path fill="#FFFFFF" d="M581.628,100.927l-9.517-12.636h-6.438v12.636h-0.96V72.615h9.997c4.92,0,8.678,1.919,8.799,7.678
	c0,5.88-3.599,7.999-8.758,7.999h-1.52l9.558,12.636H581.628z M574.751,87.411c5.159,0,7.799-2.079,7.799-7.078
	c0-5.119-3.28-6.877-7.799-6.797h-9.078v13.875H574.751z"/>
<path fill="#FFFFFF" d="M586.947,100.927h-1.08l10.479-28.312h1.598l10.479,28.312h-1.08l-3.759-10.116h-12.878L586.947,100.927z
	 M597.065,73.574l-6,16.236h12.158l-5.999-16.236H597.065z"/>
<path fill="#FFFFFF" d="M614.221,73.615l-0.36,0.04v27.272h-1V72.615h2.12l10.117,22.914l10.077-22.914h2.12v28.312h-1V73.333
	h-0.358l-10.158,23.115h-1.359L614.221,73.615z"/>
</svg>
