<?xml version="1.0" encoding="utf-8"?>
<!-- Generator: Adobe Illustrator 16.0.0, SVG Export Plug-In . SVG Version: 6.00 Build 0)  -->
<!DOCTYPE svg PUBLIC "-//W3C//DTD SVG 1.1//EN" "http://www.w3.org/Graphics/SVG/1.1/DTD/svg11.dtd">
<svg version="1.1" id="Layer_1" xmlns="http://www.w3.org/2000/svg" xmlns:xlink="http://www.w3.org/1999/xlink" x="0px" y="0px"
	 width="299.464px" height="186.137px" viewBox="0 0 299.464 186.137" enable-background="new 0 0 299.464 186.137"
	 xml:space="preserve">
<path fill="#FFFFFF" d="M1.314,35.185H0L12.75,0.727h1.947l12.751,34.458h-1.313L21.56,22.871H5.888L1.314,35.185z M13.626,1.895
	l-7.299,19.76h14.794l-7.301-19.76H13.626z"/>
<path fill="#FFFFFF" d="M61.858,17.469c3.795,1.606,4.963,5.451,4.914,8.516c-0.146,7.107-4.72,9.199-10.706,9.199H43.51V0.727
	h12.604c5.061,0,9.004,2.92,9.004,8.371c0,2.92-1.072,5.548-3.456,6.959l-1.509,0.827L61.858,17.469z M56.114,16.35
	c4.526,0,7.836-2.238,7.836-7.203c0-4.818-3.456-7.3-7.836-7.3H44.726V16.35H56.114z M56.114,34.017
	c5.5,0.097,9.441-2.093,9.441-8.08c0-6.035-3.65-8.468-9.441-8.419H44.726v16.499H56.114z"/>
<path fill="#FFFFFF" d="M94.611,35.185L83.027,19.805h-7.835v15.379h-1.168V0.727h12.167c5.987,0,10.562,2.336,10.707,9.344
	c0,7.155-4.38,9.734-10.659,9.734h-1.849l11.631,15.379H94.611z M86.24,18.734c6.278,0,9.491-2.53,9.491-8.613
	c0-6.229-3.991-8.371-9.491-8.274H75.192v16.887H86.24z"/>
<path fill="#FFFFFF" d="M104.978,35.185h-1.217V0.727h1.217V35.185z"/>
<path fill="#FFFFFF" d="M115.247,17.372h17.813v1.313h-17.813v15.281h19.273v1.218h-20.49V0.727h20.49v1.217h-19.273V17.372z"/>
<path fill="#FFFFFF" d="M142.744,1.944v16.06h16.938v1.216h-16.938v15.964h-1.216V0.727h19.857v1.217H142.744z"/>
<g>
	<path fill="#FFFFFF" d="M2.015,79.857H0.799V45.399h1.216v16.645h21.754V45.399h1.216v34.458h-1.216V63.26H2.015V79.857z"/>
	<path fill="#FFFFFF" d="M35.256,79.857h-1.217V45.399h1.217V79.857z"/>
	<path fill="#FFFFFF" d="M54.089,61.654c5.647,1.119,11.779,3.406,11.292,10.17c-0.389,5.549-5.938,8.519-11.583,8.519
		c-4.233,0-8.759-1.655-11.339-5.549l1.119-0.486c2.24,3.212,6.279,4.865,10.318,4.865c4.77,0,9.491-2.286,10.172-7.349
		c0.438-6.132-4.917-7.834-10.27-9.003c-5.159-1.07-11.339-3.017-11.047-9.539c0.196-5.694,5.597-8.371,11.097-8.371
		c4.428,0,8.565,1.556,10.707,5.303l-1.12,0.439c-1.8-3.114-5.743-4.575-9.587-4.575c-4.868,0-9.54,2.044-9.881,7.204
		C43.578,58.394,48.542,60.534,54.089,61.654z"/>
	<path fill="#FFFFFF" d="M92.684,46.616H81.199v33.241h-1.217V46.616H68.498v-1.217h24.187V46.616z"/>
	<path fill="#FFFFFF" d="M95.995,54.645c0-6.472,6.375-9.732,12.798-9.732c6.425,0,12.849,3.261,12.849,9.732V70.56
		c0,6.474-6.424,9.783-12.849,9.783c-6.423,0-12.798-3.31-12.798-9.783V54.645z M97.211,70.56c0,5.743,5.742,8.565,11.582,8.565
		c5.792,0,11.632-2.822,11.632-8.565V54.645c0-6.034-5.888-8.565-11.68-8.565c-5.792,0.049-11.534,2.629-11.534,8.565V70.56z"/>
	<path fill="#FFFFFF" d="M150.552,79.857l-11.584-15.38h-7.835v15.38h-1.168V45.399h12.166c5.987,0,10.562,2.336,10.707,9.343
		c0,7.155-4.379,9.735-10.658,9.735h-1.849l11.632,15.38H150.552z M142.181,63.407c6.279,0,9.49-2.531,9.49-8.615
		c0-6.229-3.99-8.371-9.49-8.273h-11.047v16.888H142.181z"/>
	<path fill="#FFFFFF" d="M168.608,79.857h-1.216V66.18l-11.778-20.781h1.461l10.951,19.418l11.291-19.418h1.508L168.608,66.18
		V79.857z"/>
</g>
<path fill="#FFFFFF" d="M0.369,97.679c0-3.637,3.581-5.469,7.19-5.469c3.608,0,7.217,1.832,7.217,5.469v8.938
	c0,3.636-3.609,5.495-7.217,5.495c-3.609,0-7.19-1.859-7.19-5.495V97.679z M1.053,106.617c0,3.226,3.226,4.812,6.506,4.812
	c3.253,0,6.534-1.586,6.534-4.812v-8.938c0-3.391-3.308-4.812-6.561-4.812c-3.253,0.026-6.479,1.475-6.479,4.812V106.617z"/>
<path fill="#FFFFFF" d="M20.133,93.167v9.021h9.512v0.682h-9.512v8.968h-0.684V92.484h11.152v0.684H20.133z"/>
<path fill="#FFFFFF" d="M51.376,93.167h-6.452v18.671h-0.684V93.167h-6.45v-0.684h13.585V93.167z"/>
<path fill="#FFFFFF" d="M55.202,111.838h-0.684V92.484h0.684v9.35h12.219v-9.35h0.684v19.354h-0.684v-9.322H55.202V111.838z"/>
<path fill="#FFFFFF" d="M73.873,101.833h10.004v0.737H73.873v8.584h10.823v0.684H73.189V92.484h11.507v0.684H73.873V101.833z"/>
<path fill="#FFFFFF" d="M93.307,111.838h-0.737l7.161-19.354h1.094l7.161,19.354h-0.737l-2.57-6.917h-8.801L93.307,111.838z
	 M100.222,93.14l-4.1,11.098h8.31l-4.101-11.098H100.222z"/>
<path fill="#FFFFFF" d="M111.02,111.838V92.484h0.684v18.671h9.676v0.684H111.02z"/>
<path fill="#FFFFFF" d="M123.183,111.838h-0.738l7.163-19.354h1.092l7.163,19.354h-0.739l-2.568-6.917h-8.802L123.183,111.838z
	 M130.099,93.14l-4.101,11.098h8.311l-4.101-11.098H130.099z"/>
<path fill="#FFFFFF" d="M146.199,101.615c3.171,0.627,6.616,1.913,6.342,5.712c-0.219,3.117-3.334,4.785-6.505,4.785
	c-2.378,0-4.92-0.931-6.37-3.116l0.629-0.273c1.258,1.804,3.526,2.732,5.795,2.732c2.679,0,5.33-1.285,5.713-4.128
	c0.246-3.443-2.76-4.401-5.767-5.058c-2.898-0.6-6.37-1.693-6.206-5.356c0.11-3.197,3.143-4.702,6.231-4.702
	c2.488,0,4.812,0.876,6.015,2.98l-0.629,0.245c-1.011-1.749-3.225-2.568-5.385-2.568c-2.732,0-5.356,1.147-5.548,4.045
	C140.294,99.783,143.083,100.986,146.199,101.615z"/>
<path fill="#FFFFFF" d="M157.187,104.238l11.454-11.754h0.875l-8.938,9.321l8.938,10.033h-0.792l-8.638-9.54l-2.898,2.897v6.643
	h-0.682V92.484h0.682V104.238z"/>
<path fill="#FFFFFF" d="M171.346,111.838h-0.738l7.162-19.354h1.093l7.162,19.354h-0.738l-2.57-6.917h-8.803L171.346,111.838z
	 M178.262,93.14l-4.1,11.098h8.31l-4.101-11.098H178.262z"/>
<path fill="#FFFFFF" d="M6.534,127.617c3.171,0.628,6.615,1.912,6.341,5.713c-0.219,3.115-3.334,4.783-6.506,4.783
	c-2.378,0-4.921-0.93-6.369-3.116l0.629-0.273c1.257,1.804,3.526,2.732,5.794,2.732c2.68,0,5.331-1.284,5.714-4.126
	c0.246-3.444-2.761-4.401-5.768-5.059c-2.897-0.601-6.369-1.694-6.205-5.357c0.108-3.197,3.143-4.702,6.231-4.702
	c2.488,0,4.812,0.876,6.014,2.981l-0.629,0.245c-1.011-1.749-3.226-2.569-5.385-2.569c-2.732,0-5.356,1.147-5.548,4.045
	C0.629,125.784,3.417,126.987,6.534,127.617z"/>
<path fill="#FFFFFF" d="M15.334,137.839h-0.738l7.161-19.354h1.094l7.161,19.354h-0.737l-2.57-6.916h-8.801L15.334,137.839z
	 M22.25,119.141l-4.1,11.1h8.31l-4.101-11.1H22.25z"/>
<path fill="#FFFFFF" d="M33.047,137.839v-19.354h0.684v18.671h9.676v0.684H33.047z"/>
<path fill="#FFFFFF" d="M47.453,119.168l-0.246,0.027v18.644h-0.684v-19.354h1.449l6.917,15.664l6.888-15.664h1.449v19.354h-0.683
	v-18.862h-0.247l-6.943,15.801h-0.928L47.453,119.168z"/>
<path fill="#FFFFFF" d="M67.872,123.68c0-3.637,3.581-5.469,7.188-5.469c3.608,0,7.216,1.832,7.216,5.469v8.938
	c0,3.636-3.608,5.495-7.216,5.495c-3.608,0-7.188-1.859-7.188-5.495V123.68z M68.554,132.618c0,3.226,3.226,4.812,6.506,4.812
	c3.252,0,6.533-1.586,6.533-4.812v-8.938c0-3.391-3.308-4.812-6.561-4.812c-3.253,0.026-6.479,1.477-6.479,4.812V132.618z"/>
<path fill="#FFFFFF" d="M99.525,137.183v-18.698h0.684v19.354h-1.175L87.689,119.36l-0.028,18.479h-0.709v-19.354h1.065
	L99.525,137.183z"/>
<path fill="#FFFFFF" d="M111.997,137.535v-18.876h6.666c3.839,0.053,5.786,2.959,5.786,5.731c0,2.747-1.919,5.601-5.759,5.625
	h-6.026v7.52H111.997z M118.663,129.349c3.466,0,5.118-2.534,5.118-4.984c0-2.479-1.706-5.066-5.118-5.092h-6v10.076H118.663z"/>
<path fill="#FFFFFF" d="M139.324,137.535l-6.347-8.424h-4.291v8.424h-0.641v-18.876h6.666c3.28,0,5.786,1.278,5.866,5.119
	c0,3.92-2.399,5.333-5.838,5.333h-1.014l6.371,8.424H139.324z M134.739,128.524c3.439,0,5.198-1.387,5.198-4.721
	c0-3.412-2.186-4.584-5.198-4.53h-6.053v9.251H134.739z"/>
<path fill="#FFFFFF" d="M143.911,123.724c0-3.546,3.493-5.333,7.011-5.333c3.519,0,7.038,1.787,7.038,5.333v8.718
	c0,3.546-3.519,5.36-7.038,5.36c-3.518,0-7.011-1.814-7.011-5.36V123.724z M144.577,132.442c0,3.147,3.146,4.692,6.345,4.692
	c3.173,0,6.372-1.545,6.372-4.692v-8.718c0-3.306-3.225-4.691-6.398-4.691c-3.173,0.026-6.318,1.438-6.318,4.691V132.442z"/>
<path fill="#FFFFFF" d="M162.121,123.67c0-3.467,3.305-5.279,6.613-5.279c2.373,0,4.717,0.935,5.837,2.747l-0.612,0.4
	c-0.96-1.735-3.121-2.479-5.28-2.479c-2.959,0-5.892,1.519-5.892,4.611v8.771c0,3.147,2.959,4.72,5.947,4.72
	c2.957,0,5.971-1.572,5.971-4.72v-3.572h-5.786v-0.641h6.452v4.213c0,3.573-3.332,5.36-6.637,5.36c-3.308,0-6.613-1.787-6.613-5.36
	V123.67z"/>
<path fill="#FFFFFF" d="M190.7,137.535l-6.344-8.424h-4.292v8.424h-0.641v-18.876h6.665c3.28,0,5.785,1.278,5.867,5.119
	c0,3.92-2.399,5.333-5.839,5.333h-1.014l6.372,8.424H190.7z M186.116,128.524c3.439,0,5.199-1.387,5.199-4.721
	c0-3.412-2.187-4.584-5.199-4.53h-6.052v9.251H186.116z"/>
<path fill="#FFFFFF" d="M194.246,137.535h-0.72l6.986-18.876h1.065l6.987,18.876h-0.72l-2.506-6.745h-8.586L194.246,137.535z
	 M200.992,119.298l-4,10.824h8.105l-4-10.824H200.992z"/>
<path fill="#FFFFFF" d="M212.429,119.326l-0.24,0.026v18.183h-0.667v-18.876h1.414l6.745,15.277l6.719-15.277h1.414v18.876h-0.667
	v-18.396h-0.239l-6.771,15.411h-0.907L212.429,119.326z"/>
</svg>
