<?xml version="1.0" encoding="utf-8"?>
<!-- Generator: Adobe Illustrator 16.0.0, SVG Export Plug-In . SVG Version: 6.00 Build 0)  -->
<!DOCTYPE svg PUBLIC "-//W3C//DTD SVG 1.1//EN" "http://www.w3.org/Graphics/SVG/1.1/DTD/svg11.dtd">
<svg version="1.1" id="Layer_1" xmlns="http://www.w3.org/2000/svg" xmlns:xlink="http://www.w3.org/1999/xlink" x="0px" y="0px"
	 width="469.834px" height="161.993px" viewBox="0 0 469.834 161.993" enable-background="new 0 0 469.834 161.993"
	 xml:space="preserve">
<polygon fill="#4B2E83" points="421.834,161.791 0,161.791 0,0 468.335,0 "/>
<g>
	<path fill="#FFFFFF" d="M84.68,54c3.964,1.677,5.185,5.692,5.133,8.894c-0.152,7.422-4.93,9.607-11.182,9.607H65.518V36.515h13.164
		c5.286,0,9.403,3.05,9.403,8.742c0,3.05-1.118,5.794-3.609,7.269l-1.576,0.863L84.68,54z M78.682,52.831
		c4.727,0,8.184-2.338,8.184-7.522c0-5.032-3.609-7.625-8.184-7.625H66.789v15.147H78.682z M78.682,71.281
		c5.744,0.102,9.86-2.185,9.86-8.437c0-6.303-3.812-8.844-9.86-8.793H66.789v17.23H78.682z"/>
	<path fill="#FFFFFF" d="M118.888,72.501l-12.097-16.062h-8.183v16.062h-1.22V36.515h12.707c6.251,0,11.029,2.44,11.182,9.759
		c0,7.472-4.575,10.165-11.131,10.165h-1.931l12.148,16.062H118.888z M110.146,55.322c6.557,0,9.912-2.644,9.912-8.997
		c0-6.506-4.168-8.742-9.912-8.641H98.608v17.637H110.146z"/>
	<path fill="#FFFFFF" d="M129.716,72.501h-1.271V36.515h1.271V72.501z"/>
	<path fill="#FFFFFF" d="M149.387,53.491c5.896,1.169,12.301,3.558,11.792,10.622c-0.407,5.795-6.201,8.896-12.097,8.896
		c-4.422,0-9.148-1.729-11.842-5.794l1.169-0.509c2.338,3.354,6.556,5.083,10.775,5.083c4.981,0,9.911-2.39,10.623-7.676
		c0.458-6.403-5.134-8.183-10.725-9.402c-5.388-1.119-11.842-3.151-11.538-9.962c0.204-5.947,5.845-8.742,11.588-8.742
		c4.625,0,8.945,1.626,11.182,5.54l-1.169,0.458c-1.88-3.253-5.998-4.777-10.013-4.777c-5.083,0-9.962,2.135-10.318,7.522
		C138.409,50.086,143.593,52.323,149.387,53.491z"/>
	<path fill="#FFFFFF" d="M189.694,37.786h-11.995v34.715h-1.271V37.786h-11.995v-1.271h25.261V37.786z"/>
	<path fill="#FFFFFF" d="M193.152,46.173c0-6.76,6.658-10.166,13.368-10.166s13.418,3.405,13.418,10.166v16.621
		c0,6.76-6.709,10.216-13.418,10.216s-13.368-3.457-13.368-10.216V46.173z M194.423,62.793c0,5.997,5.998,8.944,12.097,8.944
		c6.048,0,12.147-2.947,12.147-8.944V46.173c0-6.302-6.15-8.945-12.198-8.945c-6.048,0.05-12.046,2.745-12.046,8.945V62.793z"/>
	<path fill="#FFFFFF" d="M228.58,72.501V36.515h1.271V71.23h17.993v1.271H228.58z"/>
	<path fill="#FFFFFF" d="M284.086,54c3.964,1.677,5.184,5.692,5.133,8.894c-0.152,7.422-4.93,9.607-11.182,9.607h-13.113V36.515
		h13.164c5.285,0,9.403,3.05,9.403,8.742c0,3.05-1.119,5.794-3.609,7.269l-1.575,0.863L284.086,54z M278.088,52.831
		c4.728,0,8.184-2.338,8.184-7.522c0-5.032-3.609-7.625-8.184-7.625h-11.894v15.147H278.088z M278.088,71.281
		c5.743,0.102,9.86-2.185,9.86-8.437c0-6.303-3.812-8.844-9.86-8.793h-11.894v17.23H278.088z"/>
	<path fill="#FFFFFF" d="M293.999,72.501h-1.372l13.316-35.986h2.032l13.317,35.986h-1.372l-4.777-12.86h-16.366L293.999,72.501z
		 M306.858,37.735l-7.624,20.636h15.451l-7.624-20.636H306.858z"/>
	<path fill="#FFFFFF" d="M333.239,72.501h-1.271V58.218L319.67,36.515h1.524l11.436,20.28l11.792-20.28h1.576l-12.759,21.703V72.501
		z"/>
</g>
<g>
	<path fill="#FFFFFF" d="M108.178,89.277l-10.521,35.984h-2.083l-9.607-29.377l-9.657,29.377h-1.981L63.653,89.277h1.372
		l10.217,34.205h0.254l9.606-28.818h1.677l9.656,28.92h0.307l10.063-34.307H108.178z"/>
	<path fill="#FFFFFF" d="M109.706,125.261h-1.373l13.317-35.984h2.033L137,125.261h-1.372l-4.778-12.859h-16.365L109.706,125.261z
		 M122.565,90.496l-7.624,20.637h15.451l-7.624-20.637H122.565z"/>
	<path fill="#FFFFFF" d="M160.178,90.547h-11.994v34.715h-1.271V90.547h-11.995v-1.27h25.26V90.547z"/>
	<path fill="#FFFFFF" d="M167.296,106.66h18.603v1.371h-18.603v15.959h20.127v1.271h-21.397V89.277h21.397v1.27h-20.127V106.66z"/>
	<path fill="#FFFFFF" d="M216.243,125.261l-12.098-16.061h-8.183v16.061h-1.219V89.277h12.706c6.252,0,11.029,2.439,11.182,9.758
		c0,7.473-4.574,10.166-11.131,10.166h-1.932l12.148,16.061H216.243z M207.501,108.082c6.557,0,9.911-2.643,9.911-8.996
		c0-6.506-4.168-8.742-9.911-8.641h-11.538v17.637H207.501z"/>
	<path fill="#FFFFFF" d="M236.018,106.252c5.896,1.17,12.3,3.559,11.791,10.623c-0.406,5.795-6.2,8.895-12.097,8.895
		c-4.422,0-9.149-1.729-11.843-5.793l1.17-0.51c2.338,3.355,6.557,5.084,10.775,5.084c4.979,0,9.911-2.391,10.622-7.676
		c0.458-6.404-5.134-8.184-10.725-9.402c-5.388-1.119-11.843-3.15-11.537-9.963c0.203-5.945,5.845-8.742,11.588-8.742
		c4.625,0,8.945,1.627,11.183,5.541l-1.169,0.457c-1.881-3.252-5.998-4.777-10.014-4.777c-5.082,0-9.961,2.135-10.317,7.521
		C225.039,102.847,230.224,105.084,236.018,106.252z"/>
	<path fill="#FFFFFF" d="M256.45,125.261h-1.27V89.277h1.27v17.383h22.719V89.277h1.271v35.984h-1.271v-17.332H256.45V125.261z"/>
	<path fill="#FFFFFF" d="M291.167,106.66h18.603v1.371h-18.603v15.959h20.128v1.271h-21.398V89.277h21.398v1.27h-20.128V106.66z"/>
	<path fill="#FFFFFF" d="M330.763,89.277c6.303,0,11.589,2.846,11.589,9.656v16.721c0,6.762-5.286,9.607-11.589,9.607h-12.147
		V89.277H330.763z M330.763,123.99c5.693,0,10.318-2.387,10.318-8.336V98.933c0-5.998-4.625-8.387-10.318-8.387h-10.877v33.443
		H330.763z"/>
</g>
</svg>
