<?xml version="1.0" encoding="utf-8"?>
<!-- Generator: Adobe Illustrator 16.0.0, SVG Export Plug-In . SVG Version: 6.00 Build 0)  -->
<!DOCTYPE svg PUBLIC "-//W3C//DTD SVG 1.1//EN" "http://www.w3.org/Graphics/SVG/1.1/DTD/svg11.dtd">
<svg version="1.1" id="Layer_1" xmlns="http://www.w3.org/2000/svg" xmlns:xlink="http://www.w3.org/1999/xlink" x="0px" y="0px"
	 width="516px" height="144.32px" viewBox="0 0 516 144.32" enable-background="new 0 0 516 144.32" xml:space="preserve">
<polygon fill="#4B2E83" points="474.51,143.791 0,143.791 0,0 515.686,0 "/>
<g>
	<path fill="#FFFFFF" d="M52.034,60.89c0-7.219,6.886-10.996,13.772-10.996c4.942,0,9.829,1.944,12.161,5.72l-1.277,0.833
		c-1.999-3.61-6.498-5.165-10.996-5.165c-6.165,0-12.272,3.166-12.272,9.607v18.27c0,6.553,6.164,9.829,12.384,9.829
		c6.164,0,12.439-3.276,12.439-9.829v-7.441h-12.05v-1.333h13.438v8.774c0,7.441-6.941,11.162-13.827,11.162
		S52.034,86.602,52.034,79.16V60.89z"/>
	<path fill="#FFFFFF" d="M88.069,89.767V50.45h1.388v37.928h19.658v1.388H88.069z"/>
	<path fill="#FFFFFF" d="M112.501,61.001c0-7.386,7.274-11.106,14.604-11.106c7.331,0,14.661,3.721,14.661,11.106V79.16
		c0,7.386-7.33,11.162-14.661,11.162c-7.33,0-14.604-3.776-14.604-11.162V61.001z M113.89,79.16c0,6.553,6.552,9.773,13.216,9.773
		c6.609,0,13.272-3.221,13.272-9.773V61.001c0-6.886-6.719-9.773-13.328-9.773c-6.608,0.055-13.161,2.998-13.161,9.773V79.16z"/>
	<path fill="#FFFFFF" d="M172.192,69.553c4.332,1.833,5.664,6.22,5.609,9.718c-0.167,8.108-5.387,10.496-12.217,10.496h-14.328
		V50.45h14.383c5.776,0,10.273,3.332,10.273,9.552c0,3.332-1.222,6.331-3.943,7.94l-1.721,0.944L172.192,69.553z M165.64,68.276
		c5.165,0,8.941-2.554,8.941-8.219c0-5.498-3.943-8.33-8.941-8.33h-12.994v16.549H165.64z M165.64,88.434
		c6.275,0.111,10.773-2.388,10.773-9.218c0-6.886-4.165-9.663-10.773-9.607h-12.994v18.826H165.64z"/>
	<path fill="#FFFFFF" d="M183.019,89.767h-1.5l14.549-39.316h2.221l14.55,39.316h-1.5l-5.22-14.05h-17.881L183.019,89.767z
		 M197.068,51.783l-8.33,22.546h16.881l-8.33-22.546H197.068z"/>
	<path fill="#FFFFFF" d="M218.999,89.767V50.45h1.388v37.928h19.658v1.388H218.999z"/>
	<path fill="#FFFFFF" d="M260.087,89.767h-1.388V50.45h1.388V89.767z"/>
	<path fill="#FFFFFF" d="M272.303,51.838l-0.5,0.056v37.873h-1.388V50.45h2.943l14.05,31.82L301.4,50.45h2.944v39.316h-1.389V51.45
		h-0.5l-14.105,32.097h-1.888L272.303,51.838z"/>
	<path fill="#FFFFFF" d="M314.669,89.767V50.45h13.883c7.996,0.111,12.049,6.165,12.049,11.939c0,5.72-3.998,11.662-11.994,11.718
		h-12.55v15.66H314.669z M328.552,72.719c7.219,0,10.661-5.275,10.661-10.385c0-5.165-3.554-10.551-10.661-10.607h-12.495v20.992
		H328.552z"/>
	<path fill="#FFFFFF" d="M342.542,89.767h-1.5l14.551-39.316h2.221l14.549,39.316h-1.5l-5.219-14.05h-17.882L342.542,89.767z
		 M356.591,51.783l-8.329,22.546h16.881l-8.329-22.546H356.591z"/>
	<path fill="#FFFFFF" d="M377.078,60.89c0-7.219,6.998-10.996,13.939-10.996c4.942,0,9.884,1.888,12.217,5.665l-1.222,0.889
		c-2.056-3.387-6.664-5.22-11.162-5.22c-6.108,0-12.384,3.221-12.384,9.662v18.437c0,6.441,6.275,9.607,12.384,9.607
		c4.442,0,8.996-1.611,11.162-4.942l1.222,0.611c-2.333,3.776-7.386,5.72-12.384,5.72c-6.83,0-13.772-3.721-13.772-10.996V60.89z"/>
	<path fill="#FFFFFF" d="M433.995,51.838h-13.104v37.928h-1.389V51.838h-13.105V50.45h27.599V51.838z"/>
</g>
</svg>
