<?xml version="1.0" encoding="utf-8"?>
<!-- Generator: Adobe Illustrator 16.0.0, SVG Export Plug-In . SVG Version: 6.00 Build 0)  -->
<!DOCTYPE svg PUBLIC "-//W3C//DTD SVG 1.1//EN" "http://www.w3.org/Graphics/SVG/1.1/DTD/svg11.dtd">
<svg version="1.1" id="Layer_1" xmlns="http://www.w3.org/2000/svg" xmlns:xlink="http://www.w3.org/1999/xlink" x="0px" y="0px"
	 width="370.75px" height="34.75px" viewBox="0 0 370.75 34.75" enable-background="new 0 0 370.75 34.75" xml:space="preserve">
<g>
	<path fill="#6F7173" d="M0,7.604C0.818,5.11,1.635,2.821,2.453,0.368h0.94L1.472,7.604H0z M4.538,7.604
		C5.355,5.11,6.173,2.821,6.991,0.368h0.94L6.009,7.604H4.538z"/>
	<path fill="#6F7173" d="M15.369,1.431l-0.368,0.041v27.879h-1.022V0.409h2.167l10.342,23.423L36.79,0.409h2.167v28.942h-1.022
		V1.145h-0.368L27.183,24.772h-1.39L15.369,1.431z"/>
	<path fill="#6F7173" d="M44.594,29.351H43.49L54.2,0.409h1.635l10.71,28.942h-1.104l-3.843-10.342H48.437L44.594,29.351z
		 M54.936,1.39l-6.132,16.597h12.427L55.1,1.39H54.936z"/>
	<path fill="#6F7173" d="M71.081,29.351V0.409h1.022v27.92h14.471v1.021H71.081z"/>
	<path fill="#6F7173" d="M92.253,14.389h14.961v1.104H92.253v12.836h16.188v1.021H91.231V0.409h17.209v1.022H92.253V14.389z"/>
	<path fill="#6F7173" d="M112.608,34.297h-0.899l2.248-6.622h1.431L112.608,34.297z"/>
	<path fill="#6F7173" d="M147.638,14.471c3.188,1.349,4.169,4.578,4.128,7.154c-0.123,5.968-3.965,7.726-8.993,7.726h-10.546V0.409
		h10.587c4.251,0,7.562,2.453,7.562,7.031c0,2.453-0.899,4.66-2.902,5.846l-1.267,0.695L147.638,14.471z M142.814,13.531
		c3.802,0,6.582-1.88,6.582-6.05c0-4.047-2.902-6.131-6.582-6.131h-9.565v12.182H142.814z M142.814,28.369
		c4.619,0.082,7.93-1.758,7.93-6.785c0-5.069-3.065-7.113-7.93-7.072h-9.565v13.857H142.814z"/>
	<path fill="#6F7173" d="M175.146,29.351l-9.729-12.917h-6.582v12.917h-0.981V0.409h10.22c5.028,0,8.871,1.962,8.993,7.849
		c0,6.009-3.679,8.176-8.953,8.176h-1.553l9.77,12.917H175.146z M168.115,15.534c5.273,0,7.971-2.125,7.971-7.235
		c0-5.232-3.352-7.031-7.971-6.949h-9.279v14.185H168.115z"/>
	<path fill="#6F7173" d="M180.581,29.351h-1.104l10.71-28.942h1.635l10.71,28.942h-1.104l-3.843-10.342h-13.163L180.581,29.351z
		 M190.923,1.39l-6.132,16.597h12.427L191.087,1.39H190.923z"/>
	<path fill="#6F7173" d="M208.089,29.351h-1.021V0.409h1.021V29.351z"/>
	<path fill="#6F7173" d="M234.495,28.369V0.409h1.022v28.942h-1.758L216.795,1.717l-0.041,27.634h-1.062V0.409h1.594L234.495,28.369
		z"/>
	<path fill="#6F7173" d="M240.911,34.297h-0.899l2.248-6.622h1.431L240.911,34.297z"/>
	<path fill="#6F7173" d="M275.941,14.471c3.188,1.349,4.17,4.578,4.129,7.154c-0.123,5.968-3.966,7.726-8.993,7.726H260.53V0.409
		h10.587c4.252,0,7.562,2.453,7.562,7.031c0,2.453-0.898,4.66-2.902,5.846l-1.267,0.695L275.941,14.471z M271.117,13.531
		c3.802,0,6.582-1.88,6.582-6.05c0-4.047-2.902-6.131-6.582-6.131h-9.565v12.182H271.117z M271.117,28.369
		c4.62,0.082,7.931-1.758,7.931-6.785c0-5.069-3.065-7.113-7.931-7.072h-9.565v13.857H271.117z"/>
	<path fill="#6F7173" d="M285.504,8.176c0-5.437,5.355-8.176,10.751-8.176c5.396,0,10.792,2.739,10.792,8.176v13.367
		c0,5.437-5.396,8.217-10.792,8.217c-5.396,0-10.751-2.78-10.751-8.217V8.176z M286.526,21.543c0,4.823,4.823,7.194,9.729,7.194
		c4.864,0,9.771-2.371,9.771-7.194V8.176c0-5.069-4.946-7.195-9.812-7.195c-4.864,0.041-9.688,2.208-9.688,7.195V21.543z"/>
	<path fill="#6F7173" d="M323.804,0.409c5.069,0,9.32,2.289,9.32,7.767v13.449c0,5.437-4.251,7.726-9.32,7.726h-9.77V0.409H323.804z
		 M323.804,28.329c4.579,0,8.299-1.922,8.299-6.704V8.176c0-4.824-3.72-6.745-8.299-6.745h-8.748v26.898H323.804z"/>
	<path fill="#6F7173" d="M347.184,29.351h-1.022V17.864l-9.893-17.456h1.227l9.197,16.311l9.484-16.311h1.267l-10.26,17.456V29.351z
		"/>
	<path fill="#6F7173" d="M358.75,26.938c0.695,0,1.268,0.572,1.268,1.268s-0.572,1.268-1.268,1.268s-1.268-0.572-1.268-1.268
		S358.055,26.938,358.75,26.938z"/>
	<path fill="#6F7173" d="M364.758,0.409c-0.735,2.453-1.431,5.069-2.166,7.481h-0.858l1.594-7.481H364.758z M369.337,0.409
		c-0.736,2.453-1.432,5.069-2.167,7.481h-0.858l1.594-7.481H369.337z"/>
</g>
</svg>
