<?xml version="1.0" encoding="utf-8"?>
<!-- Generator: Adobe Illustrator 16.0.0, SVG Export Plug-In . SVG Version: 6.00 Build 0)  -->
<!DOCTYPE svg PUBLIC "-//W3C//DTD SVG 1.1//EN" "http://www.w3.org/Graphics/SVG/1.1/DTD/svg11.dtd">
<svg version="1.1" id="Layer_1" xmlns="http://www.w3.org/2000/svg" xmlns:xlink="http://www.w3.org/1999/xlink" x="0px" y="0px"
	 width="92.042px" height="95.175px" viewBox="0 0 92.042 95.175" enable-background="new 0 0 92.042 95.175" xml:space="preserve">
<path fill="#4B2E83" d="M69.543,44.705c-12.265,0-22.242-9.978-22.242-22.242c0-12.264,9.978-22.241,22.242-22.241
	c12.264,0,22.241,9.978,22.241,22.241C91.785,34.727,81.807,44.705,69.543,44.705z M69.543,2.549
	c-10.98,0-19.914,8.933-19.914,19.913c0,10.981,8.934,19.914,19.914,19.914s19.913-8.933,19.913-19.914
	C89.457,11.482,80.524,2.549,69.543,2.549z"/>
<g>
	<path fill="#4B2E83" d="M64.929,30.244c-0.643,0-1.164-0.521-1.164-1.164V15.846c0-0.643,0.521-1.164,1.164-1.164
		s1.164,0.521,1.164,1.164V29.08C66.093,29.722,65.572,30.244,64.929,30.244z"/>
	<path fill="#4B2E83" d="M74.158,30.244c-0.643,0-1.164-0.521-1.164-1.164V15.846c0-0.643,0.521-1.164,1.164-1.164
		s1.164,0.521,1.164,1.164V29.08C75.322,29.722,74.8,30.244,74.158,30.244z"/>
</g>
<g>
	<path fill="#4B2E83" d="M69.543,94.351c-12.265,0-22.242-9.978-22.242-22.242c0-12.264,9.978-22.241,22.242-22.241
		c12.264,0,22.241,9.978,22.241,22.241C91.785,84.374,81.807,94.351,69.543,94.351z M69.543,52.196
		c-10.98,0-19.914,8.933-19.914,19.913s8.934,19.914,19.914,19.914s19.913-8.934,19.913-19.914S80.524,52.196,69.543,52.196z"/>
</g>
<path fill="#4B2E83" d="M65.503,81.385c-0.166,0-0.334-0.038-0.487-0.116c-0.365-0.184-0.595-0.558-0.595-0.966l0.001-16.389
	c0-0.408,0.229-0.782,0.595-0.966c0.363-0.185,0.802-0.147,1.13,0.095l11.105,8.192c0.276,0.204,0.439,0.527,0.439,0.871
	s-0.163,0.667-0.439,0.87l-11.106,8.196C65.957,81.314,65.73,81.385,65.503,81.385z M66.586,66.057L66.585,78.16l8.202-6.053
	L66.586,66.057z"/>
<path fill="#FFFFFF" d="M22.872,44.705c-12.264,0-22.242-9.978-22.242-22.242c0-12.264,9.978-22.241,22.242-22.241
	c12.264,0,22.241,9.978,22.241,22.241C45.113,34.727,35.135,44.705,22.872,44.705z M22.872,2.549
	c-10.981,0-19.914,8.933-19.914,19.913c0,10.981,8.933,19.914,19.914,19.914c10.98,0,19.913-8.933,19.913-19.914
	C42.785,11.482,33.852,2.549,22.872,2.549z"/>
<g>
	<path fill="#FFFFFF" d="M18.257,30.244c-0.643,0-1.164-0.521-1.164-1.164V15.846c0-0.643,0.521-1.164,1.164-1.164
		s1.164,0.521,1.164,1.164V29.08C19.421,29.722,18.9,30.244,18.257,30.244z"/>
	<path fill="#FFFFFF" d="M27.486,30.244c-0.643,0-1.164-0.521-1.164-1.164V15.846c0-0.643,0.521-1.164,1.164-1.164
		s1.164,0.521,1.164,1.164V29.08C28.65,29.722,28.128,30.244,27.486,30.244z"/>
</g>
<g>
	<path fill="#FFFFFF" d="M22.872,94.351c-12.264,0-22.242-9.978-22.242-22.242c0-12.264,9.978-22.241,22.242-22.241
		c12.264,0,22.241,9.978,22.241,22.241C45.113,84.374,35.135,94.351,22.872,94.351z M22.872,52.196
		c-10.981,0-19.914,8.933-19.914,19.913s8.933,19.914,19.914,19.914c10.98,0,19.913-8.934,19.913-19.914
		S33.852,52.196,22.872,52.196z"/>
</g>
<path fill="#FFFFFF" d="M18.832,81.385c-0.167,0-0.333-0.038-0.488-0.116c-0.364-0.184-0.594-0.558-0.594-0.966l0.001-16.389
	c0-0.408,0.23-0.782,0.594-0.966c0.364-0.185,0.801-0.147,1.13,0.095l11.105,8.192c0.277,0.204,0.44,0.527,0.44,0.871
	s-0.163,0.667-0.439,0.87l-11.106,8.196C19.284,81.314,19.059,81.385,18.832,81.385z M19.915,66.057L19.914,78.16l8.202-6.053
	L19.915,66.057z"/>
</svg>
