<?xml version="1.0" encoding="utf-8"?>
<!-- Generator: Adobe Illustrator 16.0.0, SVG Export Plug-In . SVG Version: 6.00 Build 0)  -->
<!DOCTYPE svg PUBLIC "-//W3C//DTD SVG 1.1//EN" "http://www.w3.org/Graphics/SVG/1.1/DTD/svg11.dtd">
<svg version="1.1" id="Layer_1" xmlns="http://www.w3.org/2000/svg" xmlns:xlink="http://www.w3.org/1999/xlink" x="0px" y="0px"
	 width="67.975px" height="1089.418px" viewBox="0 0 67.975 1089.418" enable-background="new 0 0 67.975 1089.418"
	 xml:space="preserve">
<path fill="#B7A577" d="M48.606,539.101l-10.273,1.288c-0.055,0.01-0.107,0.013-0.161,0.013c-0.637,0-1.19-0.479-1.271-1.128
	c-0.087-0.706,0.412-1.351,1.116-1.438l10.272-1.286c0.694-0.09,1.346,0.411,1.434,1.118
	C49.808,538.369,49.311,539.013,48.606,539.101z"/>
<path fill="#B7A577" d="M48.606,532.663l-10.273,1.288c-0.055,0.007-0.107,0.01-0.161,0.01c-0.637,0-1.19-0.477-1.271-1.128
	c-0.087-0.706,0.412-1.351,1.116-1.438l10.272-1.289c0.694-0.089,1.346,0.411,1.434,1.115
	C49.808,531.932,49.311,532.575,48.606,532.663z"/>
<path fill="#B7A577" d="M48.606,526.224l-10.273,1.288c-0.055,0.008-0.107,0.015-0.161,0.015c-0.637,0-1.19-0.479-1.271-1.132
	c-0.087-0.702,0.412-1.35,1.116-1.437l10.272-1.289c0.694-0.092,1.346,0.412,1.434,1.118
	C49.808,525.494,49.311,526.136,48.606,526.224z"/>
<path fill="#B7A577" d="M48.606,519.786l-10.273,1.288c-0.055,0.007-0.107,0.009-0.161,0.009c-0.637,0-1.19-0.476-1.271-1.127
	c-0.087-0.706,0.412-1.351,1.116-1.438l10.272-1.283c0.694-0.093,1.346,0.407,1.434,1.113S49.311,519.698,48.606,519.786z"/>
<path fill="#B7A577" d="M30.47,540.398c-0.054,0-0.108-0.006-0.161-0.013L20.034,539.1c-0.701-0.088-1.201-0.729-1.113-1.436
	c0.087-0.707,0.729-1.208,1.435-1.118l10.271,1.286c0.704,0.09,1.203,0.731,1.116,1.438
	C31.661,539.922,31.106,540.398,30.47,540.398z"/>
<path fill="#B7A577" d="M30.47,533.961c-0.054,0-0.108-0.003-0.161-0.01l-10.273-1.288c-0.701-0.088-1.201-0.731-1.113-1.438
	c0.087-0.706,0.729-1.207,1.435-1.115l10.271,1.287c0.704,0.089,1.203,0.73,1.116,1.438
	C31.661,533.484,31.106,533.961,30.47,533.961z"/>
<path fill="#B7A577" d="M30.47,527.523c-0.054,0-0.108-0.008-0.161-0.015l-10.273-1.288c-0.701-0.088-1.201-0.729-1.113-1.437
	c0.087-0.706,0.729-1.21,1.435-1.118l10.271,1.289c0.704,0.087,1.203,0.729,1.116,1.436
	C31.661,527.045,31.106,527.523,30.47,527.523z"/>
<path fill="#B7A577" d="M30.47,521.083c-0.054,0-0.108-0.002-0.161-0.009l-10.273-1.288c-0.701-0.088-1.201-0.732-1.113-1.438
	c0.087-0.706,0.729-1.206,1.435-1.113l10.271,1.283c0.704,0.091,1.203,0.732,1.116,1.438
	C31.661,520.607,31.106,521.083,30.47,521.083z"/>
<path fill="#B7A577" d="M33.035,515.771l-16.694-2.229v28.306l16.694,2.231V515.771z M52.299,513.542l-16.693,2.229v28.308
	l16.693-2.231V513.542z M53.753,544.25l-19.266,2.576c-0.056,0.007-0.111,0.012-0.168,0.012c-0.058,0-0.113-0.005-0.171-0.012
	l-19.264-2.576c-0.639-0.086-1.113-0.631-1.113-1.275V512.07c0-0.371,0.158-0.726,0.438-0.972c0.276-0.241,0.646-0.354,1.018-0.307
	l19.097,2.552l19.092-2.552c0.37-0.048,0.736,0.062,1.018,0.307c0.277,0.246,0.438,0.601,0.438,0.972v30.902
	C54.867,543.619,54.391,544.164,53.753,544.25z"/>
<path fill="#B7A577" d="M26.821,51.666h-1.252c-0.688,0-1.249-0.559-1.249-1.249s0.561-1.249,1.249-1.249h1.252
	c0.69,0,1.249,0.559,1.249,1.249S27.511,51.666,26.821,51.666z"/>
<path fill="#B7A577" d="M26.821,45.417h-1.252c-0.688,0-1.249-0.559-1.249-1.249c0-0.692,0.561-1.252,1.249-1.252h1.252
	c0.69,0,1.249,0.56,1.249,1.252C28.07,44.858,27.511,45.417,26.821,45.417z"/>
<path fill="#B7A577" d="M26.821,39.166h-1.252c-0.688,0-1.249-0.559-1.249-1.249s0.561-1.249,1.249-1.249h1.252
	c0.69,0,1.249,0.559,1.249,1.249S27.511,39.166,26.821,39.166z"/>
<path fill="#B7A577" d="M26.821,32.917h-1.252c-0.688,0-1.249-0.559-1.249-1.249c0-0.692,0.561-1.252,1.249-1.252h1.252
	c0.69,0,1.249,0.56,1.249,1.252C28.07,32.358,27.511,32.917,26.821,32.917z"/>
<path fill="#B7A577" d="M43.07,51.666H31.82c-0.688,0-1.25-0.559-1.25-1.249s0.561-1.249,1.25-1.249h11.25
	c0.691,0,1.25,0.559,1.25,1.249S43.762,51.666,43.07,51.666z"/>
<path fill="#B7A577" d="M43.07,45.417H31.82c-0.688,0-1.25-0.559-1.25-1.249c0-0.692,0.561-1.252,1.25-1.252h11.25
	c0.691,0,1.25,0.56,1.25,1.252C44.32,44.858,43.762,45.417,43.07,45.417z"/>
<path fill="#B7A577" d="M43.07,39.166H31.82c-0.688,0-1.25-0.559-1.25-1.249s0.561-1.249,1.25-1.249h11.25
	c0.691,0,1.25,0.559,1.25,1.249S43.762,39.166,43.07,39.166z"/>
<path fill="#B7A577" d="M43.07,32.917H31.82c-0.688,0-1.25-0.559-1.25-1.249c0-0.692,0.561-1.252,1.25-1.252h11.25
	c0.691,0,1.25,0.56,1.25,1.252C44.32,32.358,43.762,32.917,43.07,32.917z"/>
<path fill="#B7A577" d="M38.548,19.167h-8.456l-2.501,5h13.458L38.548,19.167z M46.818,22.916h-3.601l0.896,1.797
	c0.141,0.2,0.219,0.444,0.219,0.704c0,0.69-0.562,1.249-1.25,1.249c-0.004,0-0.011,0-0.014,0h-17.5
	c-0.432,0-0.835-0.223-1.062-0.591c-0.229-0.368-0.249-0.828-0.055-1.217l0.971-1.942h-3.604v31.251h25V22.916L46.818,22.916z
	 M48.07,56.667H20.569c-0.688,0-1.249-0.562-1.249-1.252v-33.75c0-0.69,0.561-1.249,1.249-1.249h6.104l1.53-3.06
	c0.211-0.423,0.646-0.69,1.116-0.69H39.32c0.475,0,0.906,0.267,1.119,0.69l1.526,3.06h6.104c0.689,0,1.25,0.559,1.25,1.249v33.75
	C49.32,56.106,48.761,56.667,48.07,56.667z"/>
<path fill="#B7A577" d="M34.32,378.364c-6.291,0-11.408,5.166-11.408,11.516c0,7.162,8.555,18.224,11.395,21.696
	c2.852-3.468,11.458-14.536,11.426-21.689C45.703,383.534,40.583,378.364,34.32,378.364z M35.201,414.252
	c-0.229,0.262-0.559,0.409-0.902,0.409c-0.362-0.007-0.674-0.149-0.9-0.412c-0.525-0.604-12.89-14.927-12.89-24.369
	c0-7.683,6.195-13.934,13.812-13.934c7.582,0,13.777,6.249,13.812,13.929C48.175,399.322,35.73,413.646,35.201,414.252z"/>
<path fill="#B7A577" d="M34.32,387.438c-1.323,0-2.4,1.086-2.4,2.421c0,1.334,1.077,2.42,2.4,2.42c1.325,0,2.401-1.086,2.401-2.42
	C36.722,388.524,35.646,387.438,34.32,387.438z M34.32,394.7c-2.646,0-4.805-2.173-4.805-4.841c0-2.669,2.155-4.839,4.805-4.839
	c2.65,0,4.806,2.17,4.806,4.839C39.124,392.527,36.971,394.7,34.32,394.7z"/>
<path fill="#B7A577" d="M45.771,268.228c-3.509,0-6.359-2.81-6.359-6.261c0-3.453,2.854-6.263,6.359-6.263s6.36,2.81,6.36,6.263
	C52.132,265.418,49.277,268.228,45.771,268.228z M45.771,253.201c-4.479,0-8.185,3.271-8.806,7.512h-21.73
	c-0.7,0-1.271,0.562-1.271,1.254c0,0.69,0.57,1.252,1.271,1.252h1.271v3.757c0,0.69,0.571,1.252,1.271,1.252
	c0.701,0,1.271-0.562,1.271-1.252v-3.757h2.545v1.252c0,0.692,0.57,1.251,1.271,1.251s1.271-0.559,1.271-1.251v-1.252H36.96
	c0.621,4.24,4.325,7.515,8.806,7.515c4.91,0,8.905-3.935,8.905-8.767C54.677,257.133,50.681,253.201,45.771,253.201z"/>
<g>
	<circle fill="none" stroke="#B7A577" stroke-width="2.6269" stroke-miterlimit="10" cx="34.321" cy="150.904" r="17.457"/>
	<g>
		<path fill="#B7A577" d="M33.206,142.816c0.303-0.303,0.674-0.453,1.113-0.453c0.44,0,0.812,0.15,1.114,0.453
			c0.302,0.303,0.454,0.676,0.454,1.115c0,0.441-0.151,0.812-0.454,1.115c-0.304,0.303-0.674,0.453-1.114,0.453
			c-0.439,0-0.812-0.15-1.113-0.453c-0.305-0.303-0.454-0.674-0.454-1.115C32.752,143.492,32.903,143.119,33.206,142.816z"/>
		<path fill="#B7A577" d="M32.813,149.02c0-0.455,0.113-0.818,0.341-1.094c0.229-0.275,0.616-0.414,1.167-0.414
			c0.552,0,0.938,0.139,1.166,0.414c0.229,0.275,0.343,0.639,0.343,1.094v8.32c0,0.455-0.113,0.818-0.343,1.094
			c-0.228,0.275-0.614,0.414-1.166,0.414c-0.551,0-0.938-0.139-1.167-0.414c-0.228-0.275-0.341-0.639-0.341-1.094V149.02z"/>
	</g>
</g>
<g>
	<path fill="#B7A577" d="M20.914,691.124c2.526,0,4.772-1.205,6.211-3.067L38,692.065c0.459,3.163,3.181,5.603,6.468,5.603
		c3.607,0,6.543-2.936,6.543-6.543s-2.936-6.543-6.543-6.543c-2.989,0-5.511,2.017-6.29,4.76l-9.812-3.614
		c0.255-0.771,0.396-1.597,0.396-2.452c0-1.65-0.514-3.183-1.387-4.446l12.087-7.252c1.645,1.566,3.865,2.538,6.312,2.538
		c5.053,0,9.16-4.108,9.16-9.16c0-5.051-4.107-9.16-9.16-9.16c-5.052,0-9.158,4.109-9.158,9.16c0,1.655,0.446,3.205,1.219,4.547
		l-12.345,7.406c-1.291-0.932-2.869-1.484-4.577-1.484c-4.33,0-7.854,3.522-7.854,7.854S16.584,691.124,20.914,691.124z
		 M44.469,687.198c2.165,0,3.926,1.761,3.926,3.926s-1.761,3.926-3.926,3.926s-3.926-1.761-3.926-3.926
		S42.303,687.198,44.469,687.198z M45.777,658.409c3.607,0,6.543,2.936,6.543,6.543c0,3.605-2.936,6.543-6.543,6.543
		c-3.605,0-6.543-2.938-6.543-6.543C39.234,661.345,42.17,658.409,45.777,658.409z M20.914,678.038c2.886,0,5.232,2.348,5.232,5.234
		c0,2.886-2.348,5.232-5.232,5.232c-2.888,0-5.234-2.348-5.234-5.232C15.68,680.386,18.028,678.038,20.914,678.038z"/>
</g>
<g>
	<path fill="#B7A577" d="M13.335,839.151c-0.582,0-1.056-0.474-1.056-1.056v-32.262c0-0.582,0.474-1.056,1.056-1.056h5.667v-1.634
		c0-0.582,0.474-1.056,1.056-1.056h4.032c0.582,0,1.056,0.474,1.056,1.056v1.634h16.709v-1.634c0-0.582,0.474-1.056,1.056-1.056
		h4.032c0.583,0,1.057,0.474,1.057,1.056v1.634h5.665c0.282,0,0.547,0.11,0.746,0.31c0.199,0.2,0.309,0.465,0.309,0.746v32.262
		c0,0.582-0.474,1.056-1.056,1.056H13.335z M14.392,837.04H52.61v-30.153h-4.61v1.635c0,0.582-0.474,1.055-1.057,1.055H42.91
		c-0.582,0-1.056-0.473-1.056-1.055v-1.635H25.146v1.635c0,0.582-0.474,1.055-1.056,1.055h-4.032c-0.582,0-1.055-0.473-1.055-1.055
		v-1.635h-4.611V837.04z M43.966,807.467h1.922V804.2h-1.922V807.467z M21.113,807.467h1.923V804.2h-1.923V807.467z"/>
	<path fill="#B7A577" d="M20.059,823.02c-0.582,0-1.056-0.474-1.056-1.056v-5.376c0-0.582,0.474-1.055,1.056-1.055h5.376
		c0.582,0,1.056,0.473,1.056,1.055v5.376c0,0.582-0.474,1.056-1.056,1.056H20.059z M21.113,820.909h3.268v-3.268h-3.268V820.909z"/>
	<path fill="#B7A577" d="M30.812,823.02c-0.581,0-1.054-0.474-1.054-1.056v-5.376c0-0.582,0.473-1.055,1.054-1.055h5.378
		c0.583,0,1.057,0.473,1.057,1.055v5.376c0,0.582-0.474,1.056-1.057,1.056H30.812z M31.867,820.909h3.267v-3.268h-3.267V820.909z"/>
	<path fill="#B7A577" d="M41.566,823.02c-0.582,0-1.055-0.474-1.055-1.056v-5.376c0-0.582,0.473-1.055,1.055-1.055h5.378
		c0.583,0,1.057,0.473,1.057,1.055v5.376c0,0.582-0.474,1.056-1.057,1.056H41.566z M42.622,820.909h3.266v-3.268h-3.266V820.909z"/>
	<path fill="#B7A577" d="M20.059,833.775c-0.582,0-1.056-0.475-1.056-1.058v-5.377c0-0.582,0.474-1.055,1.056-1.055h5.376
		c0.582,0,1.056,0.473,1.056,1.055v5.377c0,0.583-0.474,1.058-1.056,1.058H20.059z M21.113,831.664h3.268v-3.268h-3.268V831.664z"/>
	<path fill="#B7A577" d="M30.812,833.774c-0.581,0-1.054-0.475-1.054-1.058v-5.377c0-0.582,0.473-1.055,1.054-1.055h5.378
		c0.583,0,1.057,0.473,1.057,1.055v5.377c0,0.583-0.474,1.058-1.057,1.058H30.812z M31.867,831.664h3.267v-3.268h-3.267V831.664z"/>
	<path fill="#B7A577" d="M41.566,833.774c-0.582,0-1.055-0.475-1.055-1.058v-5.377c0-0.582,0.473-1.055,1.055-1.055h5.378
		c0.583,0,1.057,0.473,1.057,1.055v5.377c0,0.583-0.474,1.058-1.057,1.058H41.566z M42.622,831.664h3.266v-3.268h-3.266V831.664z"/>
</g>
</svg>
