<?xml version="1.0" encoding="utf-8"?>
<!-- Generator: Adobe Illustrator 16.0.0, SVG Export Plug-In . SVG Version: 6.00 Build 0)  -->
<!DOCTYPE svg PUBLIC "-//W3C//DTD SVG 1.1//EN" "http://www.w3.org/Graphics/SVG/1.1/DTD/svg11.dtd">
<svg version="1.1" id="Layer_1" xmlns="http://www.w3.org/2000/svg" xmlns:xlink="http://www.w3.org/1999/xlink" x="0px" y="0px"
	 width="965.951px" height="3449.38px" viewBox="-181.885 0 965.951 3449.38" enable-background="new -181.885 0 965.951 3449.38"
	 xml:space="preserve">
<line fill="none" stroke="#FFFFFF" stroke-miterlimit="10" x1="342.5" y1="1435.38" x2="220.983" y2="1837.725"/>
<g>
	<line fill="none" stroke="#FFFFFF" stroke-miterlimit="10" x1="13.605" y1="1986.308" x2="-176.885" y2="2635.775"/>
	<line fill="none" stroke="#FFFFFF" stroke-miterlimit="10" x1="24.869" y1="1986.308" x2="-165.621" y2="2635.775"/>
	<line fill="none" stroke="#FFFFFF" stroke-miterlimit="10" x1="36.133" y1="1986.308" x2="-154.357" y2="2635.775"/>
	<line fill="none" stroke="#FFFFFF" stroke-miterlimit="10" x1="47.397" y1="1986.308" x2="-143.093" y2="2635.775"/>
	<line fill="none" stroke="#FFFFFF" stroke-miterlimit="10" x1="58.662" y1="1986.308" x2="-131.829" y2="2635.775"/>
	<line fill="none" stroke="#FFFFFF" stroke-miterlimit="10" x1="69.926" y1="1986.308" x2="-120.564" y2="2635.775"/>
	<line fill="none" stroke="#FFFFFF" stroke-miterlimit="10" x1="81.19" y1="1986.308" x2="-109.3" y2="2635.775"/>
	<line fill="none" stroke="#FFFFFF" stroke-miterlimit="10" x1="92.454" y1="1986.308" x2="-98.036" y2="2635.775"/>
	<line fill="none" stroke="#FFFFFF" stroke-miterlimit="10" x1="103.718" y1="1986.308" x2="-86.772" y2="2635.775"/>
	<line fill="none" stroke="#FFFFFF" stroke-miterlimit="10" x1="114.982" y1="1986.308" x2="-75.508" y2="2635.775"/>
	<line fill="none" stroke="#FFFFFF" stroke-miterlimit="10" x1="126.246" y1="1986.308" x2="-64.244" y2="2635.775"/>
	<line fill="none" stroke="#FFFFFF" stroke-miterlimit="10" x1="137.511" y1="1986.308" x2="-52.98" y2="2635.775"/>
	<line fill="none" stroke="#FFFFFF" stroke-miterlimit="10" x1="148.775" y1="1986.308" x2="-41.715" y2="2635.775"/>
	<line fill="none" stroke="#FFFFFF" stroke-miterlimit="10" x1="160.039" y1="1986.308" x2="-30.451" y2="2635.775"/>
	<line fill="none" stroke="#FFFFFF" stroke-miterlimit="10" x1="171.303" y1="1986.308" x2="-19.188" y2="2635.775"/>
	<line fill="none" stroke="#FFFFFF" stroke-miterlimit="10" x1="182.567" y1="1986.308" x2="-7.923" y2="2635.775"/>
	<line fill="none" stroke="#FFFFFF" stroke-miterlimit="10" x1="193.831" y1="1986.308" x2="3.341" y2="2635.775"/>
	<line fill="none" stroke="#FFFFFF" stroke-miterlimit="10" x1="205.096" y1="1986.308" x2="14.605" y2="2635.775"/>
	<line fill="none" stroke="#FFFFFF" stroke-miterlimit="10" x1="216.359" y1="1986.308" x2="25.869" y2="2635.775"/>
	<line fill="none" stroke="#FFFFFF" stroke-miterlimit="10" x1="227.624" y1="1986.308" x2="37.134" y2="2635.775"/>
	<line fill="none" stroke="#FFFFFF" stroke-miterlimit="10" x1="238.888" y1="1986.308" x2="48.397" y2="2635.775"/>
	<line fill="none" stroke="#FFFFFF" stroke-miterlimit="10" x1="250.152" y1="1986.308" x2="59.662" y2="2635.775"/>
	<line fill="none" stroke="#FFFFFF" stroke-miterlimit="10" x1="261.416" y1="1986.308" x2="70.926" y2="2635.775"/>
	<line fill="none" stroke="#FFFFFF" stroke-miterlimit="10" x1="272.68" y1="1986.308" x2="82.19" y2="2635.775"/>
	<line fill="none" stroke="#FFFFFF" stroke-miterlimit="10" x1="283.944" y1="1986.308" x2="93.454" y2="2635.775"/>
	<line fill="none" stroke="#FFFFFF" stroke-miterlimit="10" x1="295.208" y1="1986.308" x2="104.718" y2="2635.775"/>
	<line fill="none" stroke="#FFFFFF" stroke-miterlimit="10" x1="306.473" y1="1986.308" x2="115.982" y2="2635.775"/>
	<line fill="none" stroke="#FFFFFF" stroke-miterlimit="10" x1="317.737" y1="1986.308" x2="127.246" y2="2635.775"/>
	<line fill="none" stroke="#FFFFFF" stroke-miterlimit="10" x1="329.001" y1="1986.308" x2="138.511" y2="2635.775"/>
	<line fill="none" stroke="#FFFFFF" stroke-miterlimit="10" x1="340.266" y1="1986.308" x2="149.775" y2="2635.775"/>
	<line fill="none" stroke="#FFFFFF" stroke-miterlimit="10" x1="351.529" y1="1986.308" x2="161.039" y2="2635.775"/>
	<line fill="none" stroke="#FFFFFF" stroke-miterlimit="10" x1="362.793" y1="1986.308" x2="172.303" y2="2635.775"/>
	<line fill="none" stroke="#FFFFFF" stroke-miterlimit="10" x1="374.058" y1="1986.308" x2="183.567" y2="2635.775"/>
	<line fill="none" stroke="#FFFFFF" stroke-miterlimit="10" x1="385.322" y1="1986.308" x2="194.831" y2="2635.775"/>
	<line fill="none" stroke="#FFFFFF" stroke-miterlimit="10" x1="396.586" y1="1986.308" x2="206.096" y2="2635.775"/>
	<line fill="none" stroke="#FFFFFF" stroke-miterlimit="10" x1="407.85" y1="1986.308" x2="217.36" y2="2635.775"/>
	<line fill="none" stroke="#FFFFFF" stroke-miterlimit="10" x1="419.114" y1="1986.308" x2="228.624" y2="2635.775"/>
	<line fill="none" stroke="#FFFFFF" stroke-miterlimit="10" x1="430.378" y1="1986.308" x2="239.888" y2="2635.775"/>
	<line fill="none" stroke="#FFFFFF" stroke-miterlimit="10" x1="441.643" y1="1986.308" x2="251.152" y2="2635.775"/>
	<line fill="none" stroke="#FFFFFF" stroke-miterlimit="10" x1="452.906" y1="1986.308" x2="262.416" y2="2635.775"/>
	<line fill="none" stroke="#FFFFFF" stroke-miterlimit="10" x1="464.17" y1="1986.308" x2="273.681" y2="2635.775"/>
	<line fill="none" stroke="#FFFFFF" stroke-miterlimit="10" x1="475.435" y1="1986.308" x2="284.945" y2="2635.775"/>
	<line fill="none" stroke="#FFFFFF" stroke-miterlimit="10" x1="486.699" y1="1986.308" x2="296.208" y2="2635.775"/>
	<line fill="none" stroke="#FFFFFF" stroke-miterlimit="10" x1="497.963" y1="1986.308" x2="307.473" y2="2635.775"/>
	<line fill="none" stroke="#FFFFFF" stroke-miterlimit="10" x1="509.228" y1="1986.308" x2="318.736" y2="2635.775"/>
	<line fill="none" stroke="#FFFFFF" stroke-miterlimit="10" x1="520.491" y1="1986.308" x2="330.001" y2="2635.775"/>
	<line fill="none" stroke="#FFFFFF" stroke-miterlimit="10" x1="531.755" y1="1986.308" x2="341.266" y2="2635.775"/>
	<line fill="none" stroke="#FFFFFF" stroke-miterlimit="10" x1="543.02" y1="1986.308" x2="352.529" y2="2635.775"/>
	<line fill="none" stroke="#FFFFFF" stroke-miterlimit="10" x1="554.284" y1="1986.308" x2="363.794" y2="2635.775"/>
	<line fill="none" stroke="#FFFFFF" stroke-miterlimit="10" x1="565.548" y1="1986.308" x2="375.058" y2="2635.775"/>
	<line fill="none" stroke="#FFFFFF" stroke-miterlimit="10" x1="576.812" y1="1986.308" x2="386.321" y2="2635.775"/>
	<line fill="none" stroke="#FFFFFF" stroke-miterlimit="10" x1="588.076" y1="1986.308" x2="397.586" y2="2635.775"/>
</g>
<g>
	<line fill="none" stroke="#E1E2E3" stroke-miterlimit="10" x1="402.935" y1="2722.38" x2="212.445" y2="3371.848"/>
	<line fill="none" stroke="#E1E2E3" stroke-miterlimit="10" x1="414.199" y1="2722.38" x2="223.708" y2="3371.848"/>
	<line fill="none" stroke="#E1E2E3" stroke-miterlimit="10" x1="425.463" y1="2722.38" x2="234.973" y2="3371.848"/>
	<line fill="none" stroke="#E1E2E3" stroke-miterlimit="10" x1="436.727" y1="2722.38" x2="246.237" y2="3371.848"/>
	<line fill="none" stroke="#E1E2E3" stroke-miterlimit="10" x1="447.991" y1="2722.38" x2="257.5" y2="3371.848"/>
	<line fill="none" stroke="#E1E2E3" stroke-miterlimit="10" x1="459.255" y1="2722.38" x2="268.766" y2="3371.848"/>
	<line fill="none" stroke="#E1E2E3" stroke-miterlimit="10" x1="470.52" y1="2722.38" x2="280.03" y2="3371.848"/>
	<line fill="none" stroke="#E1E2E3" stroke-miterlimit="10" x1="481.784" y1="2722.38" x2="291.293" y2="3371.848"/>
	<line fill="none" stroke="#E1E2E3" stroke-miterlimit="10" x1="493.048" y1="2722.38" x2="302.558" y2="3371.848"/>
	<line fill="none" stroke="#E1E2E3" stroke-miterlimit="10" x1="504.312" y1="2722.38" x2="313.822" y2="3371.848"/>
	<line fill="none" stroke="#E1E2E3" stroke-miterlimit="10" x1="515.575" y1="2722.38" x2="325.086" y2="3371.848"/>
	<line fill="none" stroke="#E1E2E3" stroke-miterlimit="10" x1="526.841" y1="2722.38" x2="336.35" y2="3371.848"/>
	<line fill="none" stroke="#E1E2E3" stroke-miterlimit="10" x1="538.104" y1="2722.38" x2="347.615" y2="3371.848"/>
	<line fill="none" stroke="#E1E2E3" stroke-miterlimit="10" x1="549.368" y1="2722.38" x2="358.879" y2="3371.848"/>
	<line fill="none" stroke="#E1E2E3" stroke-miterlimit="10" x1="560.633" y1="2722.38" x2="370.142" y2="3371.848"/>
	<line fill="none" stroke="#E1E2E3" stroke-miterlimit="10" x1="571.896" y1="2722.38" x2="381.406" y2="3371.848"/>
	<line fill="none" stroke="#E1E2E3" stroke-miterlimit="10" x1="583.161" y1="2722.38" x2="392.67" y2="3371.848"/>
	<line fill="none" stroke="#E1E2E3" stroke-miterlimit="10" x1="594.426" y1="2722.38" x2="403.935" y2="3371.848"/>
	<line fill="none" stroke="#E1E2E3" stroke-miterlimit="10" x1="605.688" y1="2722.38" x2="415.199" y2="3371.848"/>
	<line fill="none" stroke="#E1E2E3" stroke-miterlimit="10" x1="616.954" y1="2722.38" x2="426.463" y2="3371.848"/>
	<line fill="none" stroke="#E1E2E3" stroke-miterlimit="10" x1="628.218" y1="2722.38" x2="437.727" y2="3371.848"/>
	<line fill="none" stroke="#E1E2E3" stroke-miterlimit="10" x1="639.481" y1="2722.38" x2="448.991" y2="3371.848"/>
	<line fill="none" stroke="#E1E2E3" stroke-miterlimit="10" x1="650.745" y1="2722.38" x2="460.255" y2="3371.848"/>
	<line fill="none" stroke="#E1E2E3" stroke-miterlimit="10" x1="662.01" y1="2722.38" x2="471.52" y2="3371.848"/>
	<line fill="none" stroke="#E1E2E3" stroke-miterlimit="10" x1="673.273" y1="2722.38" x2="482.784" y2="3371.848"/>
	<line fill="none" stroke="#E1E2E3" stroke-miterlimit="10" x1="684.538" y1="2722.38" x2="494.048" y2="3371.848"/>
	<line fill="none" stroke="#E1E2E3" stroke-miterlimit="10" x1="695.802" y1="2722.38" x2="505.312" y2="3371.848"/>
	<line fill="none" stroke="#E1E2E3" stroke-miterlimit="10" x1="707.067" y1="2722.38" x2="516.575" y2="3371.848"/>
	<line fill="none" stroke="#E1E2E3" stroke-miterlimit="10" x1="718.331" y1="2722.38" x2="527.841" y2="3371.848"/>
	<line fill="none" stroke="#E1E2E3" stroke-miterlimit="10" x1="729.595" y1="2722.38" x2="539.104" y2="3371.848"/>
	<line fill="none" stroke="#E1E2E3" stroke-miterlimit="10" x1="740.858" y1="2722.38" x2="550.368" y2="3371.848"/>
	<line fill="none" stroke="#E1E2E3" stroke-miterlimit="10" x1="752.122" y1="2722.38" x2="561.633" y2="3371.848"/>
	<line fill="none" stroke="#E1E2E3" stroke-miterlimit="10" x1="763.388" y1="2722.38" x2="572.896" y2="3371.848"/>
	<line fill="none" stroke="#E1E2E3" stroke-miterlimit="10" x1="774.651" y1="2722.38" x2="584.161" y2="3371.848"/>
	<line fill="none" stroke="#E1E2E3" stroke-miterlimit="10" x1="785.915" y1="2722.38" x2="595.426" y2="3371.848"/>
	<line fill="none" stroke="#E1E2E3" stroke-miterlimit="10" x1="797.179" y1="2722.38" x2="606.689" y2="3371.848"/>
	<line fill="none" stroke="#E1E2E3" stroke-miterlimit="10" x1="808.444" y1="2722.38" x2="617.954" y2="3371.848"/>
	<line fill="none" stroke="#E1E2E3" stroke-miterlimit="10" x1="819.708" y1="2722.38" x2="629.218" y2="3371.848"/>
	<line fill="none" stroke="#E1E2E3" stroke-miterlimit="10" x1="830.972" y1="2722.38" x2="640.481" y2="3371.848"/>
	<line fill="none" stroke="#E1E2E3" stroke-miterlimit="10" x1="842.235" y1="2722.38" x2="651.745" y2="3371.848"/>
	<line fill="none" stroke="#E1E2E3" stroke-miterlimit="10" x1="853.499" y1="2722.38" x2="663.011" y2="3371.848"/>
	<line fill="none" stroke="#E1E2E3" stroke-miterlimit="10" x1="864.765" y1="2722.38" x2="674.274" y2="3371.848"/>
	<line fill="none" stroke="#E1E2E3" stroke-miterlimit="10" x1="876.028" y1="2722.38" x2="685.538" y2="3371.848"/>
	<line fill="none" stroke="#E1E2E3" stroke-miterlimit="10" x1="887.292" y1="2722.38" x2="696.802" y2="3371.848"/>
	<line fill="none" stroke="#E1E2E3" stroke-miterlimit="10" x1="898.558" y1="2722.38" x2="708.065" y2="3371.848"/>
	<line fill="none" stroke="#E1E2E3" stroke-miterlimit="10" x1="909.821" y1="2722.38" x2="719.331" y2="3371.848"/>
	<line fill="none" stroke="#E1E2E3" stroke-miterlimit="10" x1="921.085" y1="2722.38" x2="730.595" y2="3371.848"/>
	<line fill="none" stroke="#E1E2E3" stroke-miterlimit="10" x1="932.349" y1="2722.38" x2="741.858" y2="3371.848"/>
	<line fill="none" stroke="#E1E2E3" stroke-miterlimit="10" x1="943.614" y1="2722.38" x2="753.124" y2="3371.848"/>
	<line fill="none" stroke="#E1E2E3" stroke-miterlimit="10" x1="954.878" y1="2722.38" x2="764.388" y2="3371.848"/>
	<line fill="none" stroke="#E1E2E3" stroke-miterlimit="10" x1="966.142" y1="2722.38" x2="775.651" y2="3371.848"/>
	<line fill="none" stroke="#E1E2E3" stroke-miterlimit="10" x1="977.405" y1="2722.38" x2="786.915" y2="3371.848"/>
</g>
<g>
	<line fill="none" stroke="#E1E2E3" stroke-miterlimit="10" x1="313.09" y1="2722.38" x2="122.598" y2="3371.848"/>
	<line fill="none" stroke="#E1E2E3" stroke-miterlimit="10" x1="324.354" y1="2722.38" x2="133.864" y2="3371.848"/>
	<line fill="none" stroke="#E1E2E3" stroke-miterlimit="10" x1="335.617" y1="2722.38" x2="145.127" y2="3371.848"/>
	<line fill="none" stroke="#E1E2E3" stroke-miterlimit="10" x1="346.881" y1="2722.38" x2="156.391" y2="3371.848"/>
	<line fill="none" stroke="#E1E2E3" stroke-miterlimit="10" x1="358.146" y1="2722.38" x2="167.657" y2="3371.848"/>
	<line fill="none" stroke="#E1E2E3" stroke-miterlimit="10" x1="369.41" y1="2722.38" x2="178.92" y2="3371.848"/>
	<line fill="none" stroke="#E1E2E3" stroke-miterlimit="10" x1="380.674" y1="2722.38" x2="190.184" y2="3371.848"/>
	<line fill="none" stroke="#E1E2E3" stroke-miterlimit="10" x1="391.938" y1="2722.38" x2="201.448" y2="3371.848"/>
</g>
<g>
	<polygon fill="#FFFFFF" points="311.291,1915.52 309.87,1916.939 317.173,1924.239 309.871,1931.545 311.292,1932.966 
		320.015,1924.238 	"/>
</g>
</svg>
