<?xml version="1.0" encoding="utf-8"?>
<!-- Generator: Adobe Illustrator 16.0.0, SVG Export Plug-In . SVG Version: 6.00 Build 0)  -->
<!DOCTYPE svg PUBLIC "-//W3C//DTD SVG 1.1//EN" "http://www.w3.org/Graphics/SVG/1.1/DTD/svg11.dtd">
<svg version="1.1" id="Layer_1" xmlns="http://www.w3.org/2000/svg" xmlns:xlink="http://www.w3.org/1999/xlink" x="0px" y="0px"
	 width="478.354px" height="792px" viewBox="0 0 478.354 792" enable-background="new 0 0 478.354 792" xml:space="preserve">
<path fill="#FFFFFF" stroke="#A69060" stroke-width="2" stroke-miterlimit="10" d="M385.968,160.792c0,2.209-1.791,4-4,4h-30.172
	c-2.209,0-4-1.791-4-4v-23.727c0-2.209,1.791-4,4-4h30.172c2.209,0,4,1.791,4,4V160.792z"/>
<path fill="#D9D9D9" stroke="#4B2E83" stroke-width="2" stroke-miterlimit="10" d="M385.968,209.87c0,2.209-1.791,4-4,4h-30.172
	c-2.209,0-4-1.791-4-4v-23.727c0-2.209,1.791-4,4-4h30.172c2.209,0,4,1.791,4,4V209.87z"/>
<g>
	<polygon fill="#86754D" points="2.318,35.36 2.274,35.36 2.244,35.393 0.069,37.763 0,37.838 0.077,37.905 0.317,38.115 
		0.389,38.179 0.456,38.109 2.368,36.086 2.368,46.08 2.368,46.18 2.468,46.18 2.828,46.18 2.928,46.18 2.928,46.08 2.928,35.46 
		2.928,35.36 2.828,35.36 	"/>
	<path fill="#86754D" d="M12.647,42.65v-7.189v-0.1h-0.1h-0.525h-0.047l-0.03,0.037l-5.85,7.185l-0.042,0.051l0.031,0.059l0.24,0.45
		l0.028,0.053h0.06h5.66v2.884v0.1h0.1h0.375h0.1v-0.1v-2.884h0.935h0.1v-0.1V42.75v-0.1h-0.1H12.647z M6.757,42.65l5.329-6.548
		l-0.014,6.548H6.757z"/>
	<polygon fill="#86754D" points="16.383,34.795 16.283,34.795 16.283,34.895 16.283,35.114 16.283,35.214 16.383,35.214 
		18.346,35.214 18.346,41.086 18.346,41.186 18.446,41.186 18.664,41.186 18.764,41.186 18.764,41.086 18.764,35.214 20.727,35.214 
		20.827,35.214 20.828,35.114 20.828,34.895 20.828,34.795 20.728,34.795 	"/>
	<polygon fill="#86754D" points="26.909,34.795 26.809,34.795 26.809,34.895 26.809,37.785 23.101,37.785 23.101,34.895 
		23.101,34.795 23.001,34.795 22.782,34.795 22.682,34.795 22.682,34.895 22.682,41.085 22.682,41.185 22.782,41.185 23.001,41.185 
		23.101,41.185 23.101,41.085 23.101,38.204 26.809,38.204 26.809,41.085 26.809,41.185 26.909,41.185 27.128,41.185 27.228,41.185 
		27.228,41.085 27.228,34.895 27.228,34.795 27.128,34.795 	"/>
	<path fill="#86754D" d="M38.993,35.426l-0.024-0.065h-0.07h-0.6h-0.07l-0.024,0.065l-3.93,10.619l-0.05,0.135h0.144h0.405h0.069
		l0.024-0.065l1.386-3.729h4.691l1.385,3.729l0.024,0.065h0.069h0.405h0.144l-0.05-0.135L38.993,35.426z M36.462,41.81l2.137-5.783
		l2.136,5.783H36.462z"/>
	<polygon fill="#86754D" points="53.193,35.36 53.093,35.36 53.093,35.46 53.093,45.366 46.964,35.408 46.935,35.36 46.879,35.36 
		46.294,35.36 46.194,35.36 46.194,35.46 46.194,46.08 46.194,46.18 46.294,46.18 46.684,46.18 46.784,46.18 46.784,46.08 
		46.798,36.294 52.837,46.132 52.867,46.18 52.923,46.18 53.568,46.18 53.668,46.18 53.668,46.08 53.668,35.46 53.668,35.36 
		53.568,35.36 	"/>
	<polygon fill="#86754D" points="65.059,35.36 64.959,35.36 64.959,35.46 64.959,45.366 58.829,35.408 58.8,35.36 58.744,35.36 
		58.159,35.36 58.059,35.36 58.059,35.46 58.059,46.08 58.059,46.18 58.159,46.18 58.549,46.18 58.649,46.18 58.649,46.08 
		58.664,36.294 64.704,46.132 64.733,46.18 64.789,46.18 65.434,46.18 65.534,46.18 65.534,46.08 65.534,35.46 65.534,35.36 
		65.434,35.36 	"/>
	<path fill="#86754D" d="M77.028,35.36h-0.1v0.1v7.71c0,1.787-1.689,2.6-3.259,2.6c-1.563,0-3.245-0.813-3.245-2.6v-7.71v-0.1h-0.1
		h-0.375h-0.1v0.1v7.71c0,1.57,1.312,3.16,3.82,3.16c1.905,0,3.834-1.085,3.834-3.16v-7.71v-0.1h-0.1H77.028z"/>
	<path fill="#86754D" d="M85.177,35.426l-0.024-0.065h-0.07h-0.6h-0.07l-0.024,0.065l-3.93,10.619l-0.05,0.135h0.144h0.405h0.069
		l0.024-0.065l1.386-3.729h4.691l1.385,3.729l0.024,0.065h0.069h0.405h0.144l-0.05-0.135L85.177,35.426z M82.646,41.81l2.137-5.783
		l2.136,5.783H82.646z"/>
	<polygon fill="#86754D" points="92.953,45.604 92.953,35.46 92.953,35.36 92.853,35.36 92.478,35.36 92.378,35.36 92.378,35.46 
		92.378,46.079 92.378,46.179 92.478,46.179 98.163,46.179 98.263,46.179 98.263,46.079 98.263,45.704 98.263,45.604 98.163,45.604 
			"/>
	<path fill="#86754D" d="M113.668,38.34c-0.042-1.978-1.186-2.98-3.4-2.98h-3.75h-0.1v0.1v10.62v0.1h0.1h0.36h0.1v-0.1v-4.639h2.265
		l3.54,4.699l0.18,0.039h0.335h0.201l-0.122-0.161l-3.463-4.579h0.369C112.529,41.44,113.668,40.397,113.668,38.34z M113.108,38.355
		c0,1.767-0.871,2.555-2.825,2.555h-3.305v-5.003h3.305l0.113-0.001C112.196,35.905,113.108,36.729,113.108,38.355z M110.652,35.819
		c0.096,0.004,0.194,0.006,0.287,0.016C110.846,35.825,110.748,35.824,110.652,35.819z M111.23,35.884
		c0.086,0.016,0.176,0.027,0.258,0.049C111.406,35.911,111.316,35.899,111.23,35.884z M111.753,36.023
		c0.075,0.027,0.153,0.05,0.224,0.083C111.906,36.073,111.828,36.051,111.753,36.023z M112.21,36.247
		c0.062,0.039,0.129,0.072,0.186,0.117C112.339,36.319,112.272,36.286,112.21,36.247z M113.099,37.514
		c0.016,0.063,0.041,0.119,0.053,0.187C113.14,37.632,113.115,37.577,113.099,37.514z M112.593,36.56
		c0.048,0.051,0.102,0.094,0.145,0.151C112.695,36.654,112.641,36.611,112.593,36.56z M112.892,36.976
		c0.033,0.061,0.073,0.113,0.101,0.179C112.965,37.088,112.925,37.036,112.892,36.976z"/>
	<polygon fill="#86754D" points="117.483,35.36 117.383,35.36 117.383,35.46 117.383,46.079 117.383,46.179 117.483,46.179 
		123.797,46.179 123.897,46.179 123.897,46.079 123.897,45.704 123.897,45.604 123.797,45.604 117.958,45.604 117.958,41.095 
		123.348,41.095 123.448,41.095 123.448,40.995 123.448,40.59 123.448,40.49 123.348,40.49 117.958,40.49 117.958,35.935 
		123.797,35.935 123.897,35.935 123.897,35.835 123.897,35.46 123.897,35.36 123.797,35.36 	"/>
	<path fill="#86754D" d="M134.208,44.43l-0.08-0.04l-0.049,0.075c-0.518,0.795-1.642,1.29-2.931,1.29
		c-1.563,0-3.245-0.781-3.245-2.495V38.28c0-1.648,1.632-2.51,3.245-2.51c1.278,0,2.428,0.535,2.93,1.362l0.056,0.093l0.088-0.064
		l0.33-0.24l0.075-0.055l-0.049-0.079c-0.602-0.973-1.899-1.577-3.385-1.577c-1.92,0-3.865,1.055-3.865,3.071v4.978
		c0,2.016,1.922,3.07,3.82,3.07c1.508,0,2.822-0.61,3.43-1.592l0.058-0.093l-0.098-0.049L134.208,44.43z"/>
	<path fill="#86754D" d="M141.902,35.21c-1.948,0-4.045,0.97-4.045,3.1v4.905c0,2.14,2.097,3.115,4.045,3.115
		c2.665,0,4.059-1.567,4.059-3.115V38.31C145.961,36.18,143.857,35.21,141.902,35.21z M141.902,45.755
		c-1.671,0-3.47-0.795-3.47-2.54v-0.1h-0.001V38.31c0-1.853,1.862-2.527,3.456-2.54c1.613,0,3.499,0.665,3.499,2.54v4.905
		C145.386,44.96,143.58,45.755,141.902,45.755z"/>
	<path fill="#86754D" d="M153.828,40.746h-0.1v0.1v0.359v0.1h0.1h3.154v1.911c0,1.756-1.689,2.555-3.259,2.555
		c-1.563,0-3.246-0.799-3.246-2.555v-4.935c0-1.715,1.666-2.496,3.214-2.496c1.341,0,2.419,0.502,2.884,1.344l0.052,0.094
		l0.09-0.059l0.346-0.226l0.082-0.053l-0.051-0.083c-0.607-0.982-1.898-1.592-3.37-1.592c-1.899,0-3.821,1.055-3.821,3.071v4.935
		c0,2.14,1.981,3.115,3.821,3.115c1.847,0,3.834-0.975,3.834-3.115v-2.37v-0.1h-0.1H153.828z"/>
	<polygon fill="#86754D" points="168.438,35.36 168.338,35.36 168.338,35.46 168.338,45.367 162.206,35.408 162.177,35.36 
		162.121,35.36 161.537,35.36 161.437,35.36 161.437,35.46 161.437,46.08 161.437,46.18 161.537,46.18 161.928,46.18 162.028,46.18 
		162.028,46.08 162.042,36.294 168.082,46.132 168.111,46.18 168.167,46.18 168.813,46.18 168.913,46.18 168.913,46.08 
		168.913,35.46 168.913,35.36 168.813,35.36 	"/>
	<polygon fill="#86754D" points="173.403,35.36 173.303,35.36 173.303,35.46 173.303,46.08 173.303,46.18 173.403,46.18 
		173.778,46.18 173.878,46.18 173.878,46.08 173.878,35.46 173.878,35.36 173.778,35.36 	"/>
	<polygon fill="#86754D" points="177.303,35.36 177.203,35.36 177.203,35.46 177.203,35.835 177.203,35.935 177.303,35.935 
		180.742,35.935 180.742,46.08 180.742,46.18 180.842,46.18 181.217,46.18 181.317,46.18 181.317,46.08 181.317,35.935 
		184.758,35.935 184.858,35.935 184.858,35.835 184.858,35.46 184.858,35.36 184.758,35.36 	"/>
	<polygon fill="#86754D" points="188.282,35.36 188.182,35.36 188.182,35.46 188.182,46.08 188.182,46.18 188.282,46.18 
		188.657,46.18 188.757,46.18 188.757,46.08 188.757,35.46 188.757,35.36 188.657,35.36 	"/>
	<path fill="#86754D" d="M196.951,35.21c-1.947,0-4.043,0.97-4.043,3.1v4.905c0,1.548,1.389,3.115,4.043,3.115
		c2.666,0,4.061-1.567,4.061-3.115V38.31C201.012,36.18,198.907,35.21,196.951,35.21z M196.951,45.755
		c-1.67,0-3.468-0.795-3.468-2.54v-0.1h-0.001V38.31c0-1.853,1.862-2.527,3.456-2.54c1.614,0,3.499,0.665,3.499,2.54v4.905
		C200.437,44.96,198.63,45.755,196.951,45.755z"/>
	<polygon fill="#86754D" points="212.176,35.36 212.076,35.36 212.076,35.46 212.076,45.367 205.945,35.408 205.916,35.36 
		205.86,35.36 205.274,35.36 205.174,35.36 205.174,35.46 205.174,46.08 205.174,46.18 205.274,46.18 205.665,46.18 205.765,46.18 
		205.765,46.08 205.781,36.294 211.821,46.132 211.85,46.18 211.906,46.18 212.551,46.18 212.651,46.18 212.651,46.08 
		212.651,35.46 212.651,35.36 212.551,35.36 	"/>
	<path fill="#86754D" d="M225.932,40.746h-0.1v0.1v0.359v0.1h0.1h3.154v1.911c0,1.756-1.689,2.555-3.259,2.555
		c-1.563,0-3.246-0.799-3.246-2.555v-4.935c0-1.715,1.666-2.496,3.214-2.496c1.341,0,2.419,0.502,2.884,1.344l0.052,0.094
		l0.09-0.059l0.346-0.226l0.082-0.053l-0.051-0.083c-0.607-0.982-1.898-1.592-3.37-1.592c-1.899,0-3.821,1.055-3.821,3.071v4.935
		c0,2.14,1.981,3.115,3.821,3.115c1.847,0,3.834-0.975,3.834-3.115v-2.37v-0.1h-0.1H225.932z"/>
	<path fill="#86754D" d="M236.962,35.426l-0.024-0.065h-0.07h-0.6h-0.07l-0.024,0.065l-3.931,10.619l-0.05,0.135h0.144h0.405h0.069
		l0.024-0.065l1.387-3.729h4.691l1.384,3.729l0.024,0.065h0.068h0.401h0.146l-0.052-0.135L236.962,35.426z M234.431,41.81
		l2.137-5.784l2.135,5.784H234.431z"/>
	<polygon fill="#86754D" points="244.735,45.604 244.735,35.46 244.735,35.36 244.636,35.36 244.261,35.36 244.161,35.36 
		244.161,35.46 244.161,46.079 244.161,46.179 244.261,46.179 249.946,46.179 250.047,46.179 250.047,46.079 250.047,45.704 
		250.047,45.604 249.946,45.604 	"/>
	<path fill="#86754D" d="M260.886,46.045l-3.93-10.619l-0.023-0.065h-0.07h-0.6h-0.07l-0.021,0.065l-3.935,10.619l-0.049,0.135
		h0.146h0.399h0.07l0.022-0.065l1.388-3.729h4.691l1.386,3.729l0.022,0.065h0.067h0.402h0.146L260.886,46.045z M254.425,41.81
		l2.137-5.784l2.143,5.784H254.425z"/>
</g>
<g>
	<polygon fill="#86754D" points="136.658,685.296 136.582,685.296 136.531,685.354 132.779,689.441 132.66,689.57 132.793,689.688 
		133.207,690.049 133.331,690.158 133.446,690.039 136.745,686.549 136.745,703.787 136.745,703.959 136.917,703.959 
		137.538,703.959 137.71,703.959 137.71,703.787 137.71,685.469 137.71,685.296 137.538,685.296 	"/>
	<path fill="#86754D" d="M154.474,697.871v-12.4v-0.172h-0.172h-0.905h-0.082l-0.052,0.064l-10.09,12.392l-0.072,0.09l0.054,0.104
		l0.415,0.771l0.049,0.099h0.104h9.762v4.974v0.172h0.172h0.647h0.172v-0.172v-4.974h1.613h0.172v-0.18v-0.597v-0.172h-0.172
		L154.474,697.871L154.474,697.871z M144.315,697.871l9.191-11.295l-0.024,11.295H144.315z"/>
	<polygon fill="#86754D" points="160.917,684.322 160.745,684.322 160.745,684.494 160.745,684.873 160.745,685.046 
		160.917,685.046 164.303,685.046 164.303,695.173 164.303,695.345 164.476,695.345 164.853,695.345 165.025,695.345 
		165.025,695.173 165.025,685.046 168.411,685.046 168.583,685.046 168.585,684.873 168.585,684.494 168.585,684.322 
		168.413,684.322 	"/>
	<polygon fill="#86754D" points="179.074,684.322 178.901,684.322 178.901,684.494 178.901,689.479 172.505,689.479 
		172.505,684.494 172.505,684.322 172.333,684.322 171.956,684.322 171.783,684.322 171.783,684.494 171.783,695.171 
		171.783,695.345 171.956,695.345 172.333,695.345 172.505,695.345 172.505,695.171 172.505,690.202 178.901,690.202 
		178.901,695.171 178.901,695.345 179.074,695.345 179.451,695.345 179.624,695.345 179.624,695.171 179.624,684.494 
		179.624,684.322 179.451,684.322 	"/>
	<path fill="#86754D" d="M199.916,685.41l-0.042-0.111h-0.12h-1.035h-0.121l-0.041,0.111l-6.778,18.312l-0.086,0.232h0.248h0.698
		h0.12l0.042-0.111l2.39-6.435h8.092l2.389,6.435l0.042,0.111h0.12h0.699h0.248l-0.086-0.232L199.916,685.41z M195.552,696.423
		l3.686-9.976l3.685,9.976H195.552z"/>
	<polygon fill="#86754D" points="224.409,685.296 224.236,685.296 224.236,685.469 224.236,702.556 213.665,685.38 213.614,685.296 
		213.519,685.296 212.509,685.296 212.337,685.296 212.337,685.469 212.337,703.787 212.337,703.959 212.509,703.959 
		213.182,703.959 213.355,703.959 213.355,703.787 213.378,686.907 223.796,703.878 223.846,703.959 223.943,703.959 
		225.056,703.959 225.229,703.959 225.229,703.787 225.229,685.469 225.229,685.296 225.056,685.296 	"/>
	<polygon fill="#86754D" points="244.876,685.296 244.704,685.296 244.704,685.469 244.704,702.556 234.13,685.38 234.08,685.296 
		233.984,685.296 232.975,685.296 232.802,685.296 232.802,685.469 232.802,703.787 232.802,703.959 232.975,703.959 
		233.647,703.959 233.82,703.959 233.82,703.787 233.845,686.907 244.263,703.878 244.313,703.959 244.411,703.959 245.522,703.959 
		245.696,703.959 245.696,703.787 245.696,685.469 245.696,685.296 245.522,685.296 	"/>
	<path fill="#86754D" d="M265.521,685.296h-0.172v0.173v13.299c0,3.082-2.914,4.483-5.621,4.483c-2.692,0-5.597-1.401-5.597-4.483
		v-13.299v-0.173h-0.173h-0.646h-0.172v0.173v13.299c0,2.708,2.262,5.451,6.588,5.451c3.287,0,6.612-1.873,6.612-5.451v-13.299
		v-0.173h-0.173H265.521z"/>
	<path fill="#86754D" d="M279.576,685.41l-0.041-0.111h-0.121h-1.035h-0.12l-0.042,0.111l-6.778,18.312l-0.086,0.232h0.248h0.698
		h0.12l0.042-0.111l2.39-6.435h8.092l2.396,6.435l0.042,0.111h0.12h0.694h0.248l-0.086-0.232L279.576,685.41z M275.211,696.423
		l3.687-9.976l3.688,9.976H275.211z"/>
	<polygon fill="#86754D" points="292.989,702.965 292.989,685.469 292.989,685.296 292.815,685.296 292.169,685.296 
		291.997,685.296 291.997,685.469 291.997,703.785 291.997,703.959 292.169,703.959 301.976,703.959 302.147,703.959 
		302.147,703.785 302.147,703.139 302.147,702.965 301.976,702.965 	"/>
</g>
<g>
	<path fill="#86754D" d="M96.65,726.021c-0.072-3.413-2.045-5.146-5.864-5.146h-6.468h-0.173v0.173v18.318v0.172h0.173h0.621h0.172
		v-0.172v-8.001h3.907l6.105,8.104l0.311,0.067h0.578h0.347l-0.21-0.278l-5.974-7.896h0.637
		C94.687,731.367,96.65,729.567,96.65,726.021z M95.685,726.048c0,3.047-1.502,4.406-4.872,4.406h-5.701v-8.631h5.701l0.195-0.002
		C94.111,721.821,95.685,723.243,95.685,726.048z M91.448,721.673c0.166,0.009,0.335,0.01,0.495,0.027
		C91.784,721.683,91.614,721.682,91.448,721.673z M92.445,721.784c0.149,0.021,0.303,0.047,0.445,0.084
		C92.749,721.831,92.595,721.812,92.445,721.784z M93.348,722.025c0.128,0.047,0.264,0.086,0.386,0.143
		C93.612,722.111,93.476,722.072,93.348,722.025z M94.136,722.409c0.107,0.062,0.222,0.124,0.321,0.202
		C94.359,722.533,94.243,722.477,94.136,722.409z M95.669,724.596c0.028,0.109,0.071,0.205,0.092,0.321
		C95.74,724.801,95.697,724.705,95.669,724.596z M94.796,722.951c0.083,0.088,0.176,0.162,0.25,0.26
		C94.972,723.113,94.878,723.039,94.796,722.951z M95.312,723.667c0.056,0.104,0.125,0.194,0.173,0.309
		C95.438,723.861,95.369,723.771,95.312,723.667z"/>
	<polygon fill="#86754D" points="103.231,720.88 103.058,720.88 103.058,721.053 103.058,739.369 103.058,739.543 103.231,739.543 
		114.121,739.543 114.294,739.543 114.294,739.369 114.294,738.723 114.294,738.549 114.121,738.549 104.05,738.549 104.05,730.773 
		113.347,730.773 113.52,730.773 113.52,730.601 113.52,729.901 113.52,729.729 113.347,729.729 104.05,729.729 104.05,721.873 
		114.121,721.873 114.294,721.873 114.294,721.7 114.294,721.053 114.294,720.88 114.121,720.88 	"/>
	<path fill="#86754D" d="M132.079,736.524l-0.138-0.069l-0.084,0.13c-0.894,1.371-2.832,2.224-5.056,2.224
		c-2.696,0-5.597-1.348-5.597-4.304v-8.587c0-2.842,2.815-4.331,5.597-4.331c2.204,0,4.188,0.923,5.053,2.354l0.097,0.154
		l0.152-0.104l0.569-0.414l0.129-0.096l-0.084-0.142c-1.039-1.678-3.276-2.72-5.839-2.72c-3.312,0-6.666,1.82-6.666,5.297v8.586
		c0,3.479,3.315,5.296,6.589,5.296c2.601,0,4.868-1.053,5.917-2.747l0.099-0.154l-0.168-0.091L132.079,736.524z"/>
	<path fill="#86754D" d="M145.35,720.622c-3.36,0-6.977,1.673-6.977,5.348v8.459c0,3.692,3.617,5.374,6.977,5.374
		c4.596,0,7.001-2.704,7.001-5.374v-8.459C152.351,722.295,148.722,720.622,145.35,720.622z M145.35,738.811
		c-2.883,0-5.985-1.365-5.985-4.382v-0.172h-0.002v-8.287c0-3.191,3.211-4.354,5.961-4.383c2.783,0,6.034,1.148,6.034,4.383v8.459
		C151.358,737.439,148.244,738.811,145.35,738.811z"/>
	<path fill="#86754D" d="M165.92,730.171h-0.173v0.172v0.62v0.172h0.173h5.439v3.296c0,3.028-2.914,4.408-5.621,4.408
		c-2.697,0-5.599-1.38-5.599-4.408v-8.512c0-2.957,2.874-4.305,5.543-4.305c2.312,0,4.172,0.864,4.974,2.312l0.089,0.163
		l0.156-0.103l0.596-0.395l0.141-0.093l-0.088-0.142c-1.048-1.694-3.274-2.747-5.812-2.747c-3.275,0-6.591,1.815-6.591,5.297v8.512
		c0,3.69,3.417,5.373,6.591,5.373c3.185,0,6.613-1.683,6.613-5.373v-4.088v-0.172h-0.172h-6.259V730.171L165.92,730.171z"/>
	<polygon fill="#86754D" points="191.119,720.88 190.947,720.88 190.947,721.053 190.947,738.142 180.371,720.964 180.32,720.88 
		180.224,720.88 179.217,720.88 179.044,720.88 179.044,721.053 179.044,739.371 179.044,739.543 179.217,739.543 179.892,739.543 
		180.064,739.543 180.064,739.371 180.087,722.491 190.506,739.462 190.557,739.543 190.652,739.543 191.766,739.543 
		191.939,739.543 191.939,739.371 191.939,721.053 191.939,720.88 191.766,720.88 	"/>
	<polygon fill="#86754D" points="199.683,720.88 199.511,720.88 199.511,721.053 199.511,739.371 199.511,739.543 199.683,739.543 
		200.33,739.543 200.503,739.543 200.503,739.371 200.503,721.053 200.503,720.88 200.33,720.88 	"/>
	<polygon fill="#86754D" points="206.41,720.88 206.238,720.88 206.238,721.053 206.238,721.7 206.238,721.873 206.41,721.873 
		212.343,721.873 212.343,739.371 212.343,739.543 212.515,739.543 213.161,739.543 213.335,739.543 213.335,739.371 
		213.335,721.873 219.269,721.873 219.441,721.873 219.441,721.7 219.441,721.053 219.441,720.88 219.269,720.88 	"/>
	<polygon fill="#86754D" points="225.348,720.88 225.174,720.88 225.174,721.053 225.174,739.371 225.174,739.543 225.348,739.543 
		225.995,739.543 226.168,739.543 226.168,739.371 226.168,721.053 226.168,720.88 225.995,720.88 	"/>
	<path fill="#86754D" d="M240.3,720.622c-3.358,0-6.973,1.673-6.973,5.348v8.459c0,2.67,2.395,5.374,6.973,5.374
		c4.6,0,7.004-2.704,7.004-5.374v-8.459C247.304,722.295,243.674,720.622,240.3,720.622z M240.3,738.811
		c-2.88,0-5.983-1.365-5.983-4.382v-0.172l0,0v-8.287c0-3.191,3.21-4.354,5.959-4.383c2.783,0,6.037,1.148,6.037,4.383v8.459
		C246.313,737.439,243.196,738.811,240.3,738.811z"/>
	<polygon fill="#86754D" points="266.562,720.88 266.39,720.88 266.39,721.053 266.39,738.142 255.813,720.964 255.763,720.88 
		255.666,720.88 254.655,720.88 254.483,720.88 254.483,721.053 254.483,739.371 254.483,739.543 254.655,739.543 255.331,739.543 
		255.502,739.543 255.504,739.371 255.531,722.491 265.946,739.462 265.998,739.543 266.097,739.543 267.207,739.543 
		267.381,739.543 267.381,739.371 267.381,721.053 267.381,720.88 267.207,720.88 	"/>
	<path fill="#86754D" d="M290.287,730.171h-0.172v0.172v0.62v0.172h0.172h5.44v3.296c0,3.028-2.914,4.408-5.621,4.408
		c-2.697,0-5.604-1.38-5.604-4.408v-8.512c0-2.957,2.874-4.305,5.543-4.305c2.312,0,4.177,0.864,4.979,2.312l0.088,0.163
		l0.156-0.103l0.596-0.395l0.142-0.093l-0.087-0.142c-1.048-1.694-3.275-2.747-5.812-2.747c-3.271,0-6.592,1.815-6.592,5.297v8.512
		c0,3.69,3.416,5.373,6.592,5.373c3.188,0,6.612-1.683,6.612-5.373v-4.088v-0.172h-0.173h-6.259V730.171z"/>
	<path fill="#86754D" d="M309.312,720.994l-0.048-0.111h-0.114h-1.035h-0.12l-0.042,0.111l-6.78,18.312l-0.086,0.232h0.248h0.699
		h0.119l0.043-0.111l2.392-6.435h8.092l2.395,6.435l0.04,0.111h0.122h0.692h0.247l-0.086-0.232L309.312,720.994z M304.946,732.007
		l3.686-9.979l3.688,9.979H304.946z"/>
	<polygon fill="#86754D" points="322.723,738.549 322.723,721.053 322.723,720.88 322.551,720.88 321.903,720.88 321.73,720.88 
		321.73,721.053 321.73,739.369 321.73,739.543 321.903,739.543 331.71,739.543 331.882,739.543 331.882,739.369 331.882,738.723 
		331.882,738.549 331.71,738.549 	"/>
	<path fill="#86754D" d="M350.577,739.311l-6.779-18.312l-0.041-0.111h-0.121h-1.034h-0.114l-0.042,0.111l-6.777,18.312
		l-0.086,0.232h0.247h0.698h0.111l0.044-0.111l2.396-6.435h8.092l2.396,6.435l0.039,0.111h0.116h0.695h0.248L350.577,739.311z
		 M339.434,732.007l3.688-9.979l3.686,9.979H339.434z"/>
</g>
<path fill="#86754D" d="M1.002,6.284c0,1.37,1.156,2.415,2.584,2.415c1.355,0,2.697-1.003,2.697-2.415v-5.38l0.705-0.72H4.815
	l0.721,0.72v5.38c0,0.96-0.764,1.724-1.724,1.724c-0.974,0-1.836-0.75-1.836-1.724v-5.38l0.72-0.72H0.282l0.721,0.72L1.002,6.284
	L1.002,6.284z M10.379,7.795V1.553l4.47,6.963h0.289V0.904l0.72-0.72h-2.175l0.72,0.72V6.2l-3.756-6.016H8.924l0.705,0.72v6.891
	L8.924,8.516h2.175L10.379,7.795z M18.131,0.185l0.664,0.663v7.005l-0.664,0.663h2.246l-0.664-0.663V0.848l0.664-0.663H18.131z
	 M24.599,0.185h-2.358l0.678,0.663l2.345,7.668h0.424l2.414-7.668l0.679-0.663h-2.006l0.65,0.649l-1.766,5.762L23.95,0.834
	L24.599,0.185z M35.403,8.516V6.99l-0.89,0.904h-2.528V4.393h1.878l0.664,0.662V3.107L33.863,3.77h-1.878V0.805h2.528l0.89,0.891
	V0.185h-4.984l0.648,0.663v7.005l-0.648,0.663H35.403z M39.144,7.853v-3.22h1.258l2.019,3.883h1.385l-0.65-0.663l-1.863-3.418
	c0.932-0.282,1.567-1.158,1.567-1.949c0-1.412-1.313-2.301-2.698-2.301H37.58l0.648,0.663v7.005L37.58,8.516h2.229L39.144,7.853z
	 M39.144,0.805h1.017c0.891,0,1.598,0.764,1.598,1.666c0,0.863-0.721,1.539-1.598,1.539h-1.017V0.805z M49.85,6.2
	c0-0.819-0.382-1.327-0.777-1.597l-1.695-1.229c-0.606-0.437-0.918-1.002-0.918-1.427c0-0.875,0.748-1.185,1.201-1.185
	c0.239,0,0.409,0.098,0.537,0.098l0.733,0.792l0.776-1.159l-1.651-0.31C47.943,0.154,47.871,0.14,47.66,0.14
	c-1.455,0-2.119,1.241-2.119,2.048c0,0.635,0.326,1.355,1.074,1.906l1.709,1.229c0.465,0.325,0.592,0.805,0.592,1.215
	c0,0.705-0.438,1.469-1.383,1.469c-0.226,0-0.425-0.043-0.58-0.113l-0.791-0.932l-0.72,1.299l1.597,0.312
	c0,0,0.269,0.056,0.494,0.056C48.536,8.629,49.85,7.781,49.85,6.2 M52.263,0.185l0.664,0.663v7.005l-0.664,0.663h2.247l-0.664-0.663
	V0.848l0.664-0.663H52.263z M59.82,7.853V0.805h1.581l0.889,0.891V0.185h-5.86v1.511l0.904-0.891H58.9v7.048l-0.65,0.663h2.231
	L59.82,7.853z M64.209,0.848l2.105,3.799v3.206L65.65,8.516h2.245l-0.663-0.663V4.646l2.146-3.785l0.693-0.677H68.01l0.65,0.649
	l-1.752,3.121l-1.666-3.121l0.648-0.649h-2.357L64.209,0.848z M77.805,3.24c-0.305,0-0.785,0.141-1.266,0.422
	c-0.811,0.481-1.69,1.572-1.69,3.215c0,0.821,0.386,1.736,1.479,1.736c0.516,0,1.254-0.341,1.748-0.786
	c0.773-0.704,1.23-1.913,1.23-2.957C79.307,3.896,78.79,3.24,77.805,3.24 M75.799,6.596c0-1.736,0.88-2.676,1.244-2.828
	c0.104-0.047,0.27-0.094,0.388-0.094c0.586,0,0.926,0.445,0.926,1.35c0.024,1.525-0.774,2.909-1.267,3.074
	c-0.096,0.035-0.246,0.08-0.363,0.08C76.069,8.178,75.799,7.476,75.799,6.596 M81.079,3.521l-0.315,0.305l0.034,0.118h0.975
	C81.62,5,81.478,5.914,81.254,7.393c-0.316,2.193-0.586,2.969-0.81,3.156c-0.069,0.069-0.187,0.105-0.293,0.105
	c-0.141,0-0.364-0.105-0.517-0.176c-0.141-0.07-0.258,0.011-0.328,0.083c-0.094,0.104-0.199,0.269-0.199,0.397
	c0,0.235,0.305,0.353,0.505,0.353c0.224,0,0.786-0.187,1.29-0.81c0.398-0.492,0.939-1.629,1.396-4.281
	c0.082-0.494,0.176-0.986,0.375-2.276l1.197-0.118l0.258-0.305h-1.385c0.353-2.171,0.646-2.827,1.149-2.827
	c0.353,0,0.646,0.14,0.904,0.388c0.082,0.082,0.211,0.082,0.328-0.013c0.094-0.082,0.234-0.271,0.234-0.435
	c0.012-0.234-0.305-0.491-0.704-0.491c-0.681,0-1.396,0.399-1.889,0.985c-0.458,0.551-0.762,1.442-0.926,2.393H81.079z
	 M93.427,8.516l1.906-6.03l1.851,6.03h0.423l2.415-7.668l0.678-0.663h-2.005l0.649,0.649l-1.767,5.762L95.87,0.834l0.65-0.649
	h-2.359l0.664,0.663l0.169,0.551l-1.596,5.197L91.69,0.834l0.649-0.649h-2.358l0.678,0.663l2.345,7.668H93.427z M102.286,7.866
	l0.607-1.766h2.755l0.578,1.766l-0.649,0.649h2.358l-0.664-0.678l-2.598-7.653h-0.424l-2.642,7.653l-0.677,0.678h2.005
	L102.286,7.866z M104.292,2.034l1.144,3.445h-2.331L104.292,2.034z M113.614,6.2c0-0.819-0.382-1.327-0.776-1.597l-1.695-1.229
	c-0.607-0.437-0.918-1.002-0.918-1.427c0-0.875,0.748-1.185,1.2-1.185c0.239,0,0.41,0.098,0.537,0.098l0.733,0.792l0.777-1.159
	l-1.652-0.31c-0.112-0.029-0.184-0.043-0.396-0.043c-1.454,0-2.118,1.241-2.118,2.048c0,0.635,0.325,1.355,1.073,1.906l1.709,1.229
	c0.466,0.325,0.593,0.805,0.593,1.215c0,0.705-0.438,1.469-1.383,1.469c-0.227,0-0.426-0.043-0.58-0.113l-0.791-0.932l-0.72,1.299
	l1.596,0.312c0,0,0.269,0.056,0.495,0.056C112.3,8.629,113.614,7.781,113.614,6.2 M117.37,4.336h3.502v3.517l-0.663,0.663h2.244
	l-0.663-0.663V0.848l0.663-0.663h-2.244l0.663,0.663v2.867h-3.502V0.848l0.663-0.663h-2.23l0.649,0.663v7.005l-0.649,0.663h2.23
	l-0.663-0.663V4.336z M124.77,0.185l0.663,0.663v7.005l-0.663,0.663h2.244l-0.663-0.663V0.848l0.663-0.663H124.77z M130.743,7.795
	V1.553l4.385,6.967l0.375-0.004V0.904l0.721-0.72h-2.175l0.72,0.72V6.2l-3.757-6.016h-1.724l0.706,0.72v6.891l-0.706,0.721h2.176
	L130.743,7.795z M143.097,4.731v2.683c-0.198,0.198-0.594,0.594-1.37,0.594c-1.85,0-2.782-1.864-2.782-3.657
	c0-1.808,1.173-3.658,2.782-3.658c0.424,0,0.734,0.099,1.017,0.396l0.917,0.903v-1.44c-0.493-0.254-0.987-0.479-1.934-0.479
	c-2.274,0-3.869,2.034-3.869,4.28c0,2.202,1.595,4.278,3.869,4.278c1.285,0,1.836-0.311,2.288-0.607v-3.29l0.648-0.664h-2.23
	L143.097,4.731z M149.266,7.853V0.805h1.581l0.89,0.891V0.185h-5.86v1.511l0.903-0.891h1.568v7.048l-0.65,0.663h2.231L149.266,7.853
	z M153.033,4.351c0,2.118,1.2,4.349,3.333,4.349c2.147,0,3.348-2.23,3.348-4.349c0-2.119-1.2-4.351-3.348-4.351
	C154.233,0,153.033,2.231,153.033,4.351 M156.366,8.063c-1.667,0-2.246-1.991-2.246-3.713c0-1.724,0.579-3.716,2.246-3.716
	c1.681,0,2.26,1.992,2.26,3.716C158.625,6.072,158.046,8.063,156.366,8.063 M162.803,7.795V1.553l4.333,6.963h0.426V0.904l0.72-0.72
	h-2.175l0.721,0.72V6.2l-3.757-6.016h-1.723l0.706,0.72v6.891l-0.706,0.721h2.175L162.803,7.795z"/>
<path fill="#86754D" d="M293.552,302.779v48.511h34.104l-38.07,141.67c0,0-46.586-187.541-47.243-190.181h-49.274
	c-0.691,2.579-51.095,190.19-51.095,190.19L106.916,351.29h35.496v-48.511H0v48.511h31.554c0,0,54.458,217.807,55.116,220.449h76.44
	c0.675-2.582,36.491-138.717,36.491-138.717s34.03,136.1,34.681,138.717h76.438c0.688-2.604,57.988-220.449,57.988-220.449H400
	v-48.511H293.552z"/>
<polygon fill="none" stroke="#86754D" stroke-width="2.2688" stroke-miterlimit="10" points="207.815,104.002 214.778,99.979 
	221.744,104.002 221.744,112.044 214.778,116.062 207.815,112.044 "/>
<polygon fill="none" stroke="#86754D" stroke-width="2.2688" stroke-miterlimit="10" points="231.999,104.002 238.959,99.979 
	245.931,104.002 245.931,112.044 238.959,116.062 231.999,112.044 "/>
<polygon fill="none" stroke="#86754D" stroke-width="2.2688" stroke-miterlimit="10" points="256.185,104.002 263.146,99.979 
	270.11,104.002 270.11,112.044 263.146,116.062 256.185,112.044 "/>
<g>
	<line fill="none" stroke="#B7A57A" stroke-width="2" stroke-miterlimit="10" x1="256.015" y1="233.082" x2="222.03" y2="267.069"/>
	
		<line fill="none" stroke="#B7A57A" stroke-width="2" stroke-miterlimit="10" x1="222.029" y1="233.082" x2="256.013" y2="267.069"/>
</g>
<g>
	<polygon fill="#86754D" points="365.117,154.573 365.117,151.574 368.036,151.574 368.036,154.573 371.053,154.573 371.053,150.74 
		366.648,146.693 362.198,150.767 362.198,154.573 	"/>
	<polygon fill="#86754D" points="371.645,150.278 366.625,145.692 361.606,150.278 360.581,149.156 366.625,143.632 
		372.668,149.156 	"/>
</g>
<g>
	<polygon fill="#454545" points="365.117,203.569 365.117,200.57 368.036,200.57 368.036,203.569 371.053,203.569 371.053,199.736 
		366.648,195.689 362.198,199.763 362.198,203.569 	"/>
	<polygon fill="#454545" points="371.645,199.274 366.625,194.688 361.606,199.274 360.581,198.152 366.625,192.628 
		372.668,198.152 	"/>
</g>
<g>
	<path fill="#86754D" d="M17.167,160.725c0-1.921-1.564-3.484-3.485-3.484s-3.483,1.563-3.483,3.484
		c0,1.922,1.562,3.485,3.483,3.485S17.167,162.646,17.167,160.725z M11.94,160.725c0-0.96,0.782-1.742,1.742-1.742
		s1.742,0.782,1.742,1.742c0,0.961-0.782,1.743-1.742,1.743S11.94,161.686,11.94,160.725z"/>
	<path fill="#86754D" d="M13.667,178.583c0.25,0,0.488-0.106,0.653-0.295c0.384-0.436,9.41-10.751,9.379-17.552
		c-0.024-5.53-4.519-10.029-10.018-10.029c-5.524,0-10.018,4.501-10.018,10.033c0,6.797,8.966,17.11,9.348,17.546
		C13.177,178.475,13.404,178.577,13.667,178.583z M13.682,152.449c4.542,0,8.255,3.722,8.275,8.294
		c0.024,5.15-6.22,13.121-8.288,15.618c-2.059-2.499-8.263-10.466-8.263-15.621C5.407,156.168,9.119,152.449,13.682,152.449z"/>
</g>
<path fill="#FFFFFF" stroke="#A69060" stroke-width="2" stroke-miterlimit="10" d="M331.665,160.792c0,2.209-1.791,4-4,4H151.023
	c-2.209,0-4-1.791-4-4v-23.727c0-2.209,1.791-4,4-4h176.642c2.209,0,4,1.791,4,4V160.792z"/>
<path fill="#D9D9D9" stroke="#4B2E83" stroke-width="2" stroke-miterlimit="10" d="M331.665,210.117c0,2.209-1.791,4-4,4H151.023
	c-2.209,0-4-1.791-4-4V186.39c0-2.209,1.791-4,4-4h176.642c2.209,0,4,1.791,4,4V210.117z"/>
</svg>
