<?xml version="1.0" encoding="utf-8"?>
<!-- Generator: Adobe Illustrator 16.0.0, SVG Export Plug-In . SVG Version: 6.00 Build 0)  -->
<!DOCTYPE svg PUBLIC "-//W3C//DTD SVG 1.1//EN" "http://www.w3.org/Graphics/SVG/1.1/DTD/svg11.dtd">
<svg version="1.1" id="Isolation_Mode" xmlns="http://www.w3.org/2000/svg" xmlns:xlink="http://www.w3.org/1999/xlink" x="0px"
	 y="0px" width="57.417px" height="47.346px" viewBox="0 0 57.417 47.346" enable-background="new 0 0 57.417 47.346"
	 xml:space="preserve">
<g>
	<path fill="#A5A4A4" d="M29.05,46.691c-0.502,0-0.979-0.22-1.306-0.603c-3.325-3.898-6.901-7.487-10.056-10.654
		C10.478,28.198,4.782,22.481,4.782,16.423c0-8.819,6.231-15.993,13.891-15.993c4.042,0,7.77,1.963,10.378,5.365
		c2.607-3.402,6.335-5.365,10.375-5.365c7.661,0,13.894,7.174,13.894,15.993c0,6.159-6.407,12.584-13.827,20.025
		c-3.105,3.114-6.316,6.335-9.136,9.641C30.03,46.471,29.553,46.691,29.05,46.691z M18.672,3.861
		c-5.767,0-10.459,5.635-10.459,12.562c0,4.641,5.518,10.178,11.906,16.589c2.794,2.805,5.915,5.937,8.933,9.35
		c2.557-2.87,5.322-5.643,8.009-8.337c6.596-6.614,12.825-12.862,12.825-17.602c0-6.926-4.693-12.562-10.462-12.562
		c-3.608,0-6.919,2.211-8.854,5.916c-0.296,0.566-0.882,0.921-1.521,0.921l0,0c-0.639,0-1.225-0.355-1.521-0.921
		C25.594,6.073,22.283,3.861,18.672,3.861z"/>
</g>
</svg>
