<?xml version="1.0" encoding="utf-8"?>
<!-- Generator: Adobe Illustrator 16.0.0, SVG Export Plug-In . SVG Version: 6.00 Build 0)  -->
<!DOCTYPE svg PUBLIC "-//W3C//DTD SVG 1.1//EN" "http://www.w3.org/Graphics/SVG/1.1/DTD/svg11.dtd">
<svg version="1.1" id="Isolation_Mode" xmlns="http://www.w3.org/2000/svg" xmlns:xlink="http://www.w3.org/1999/xlink" x="0px"
	 y="0px" width="43.898px" height="47.346px" viewBox="0 0 43.898 47.346" enable-background="new 0 0 43.898 47.346"
	 xml:space="preserve">
<g>
	<path fill="#A5A4A4" d="M42.131,4.836H28.676c-0.423,0-0.822,0.2-1.076,0.538l-3.633,4.844h-4.036l-3.633-4.844
		c-0.254-0.338-0.652-0.538-1.076-0.538H1.767c-0.743,0-1.346,0.603-1.346,1.346v10.764c0,0.743,0.603,1.346,1.346,1.346h6.728
		v22.874c0,0.742,0.603,1.346,1.345,1.346h24.22c0.743,0,1.345-0.604,1.345-1.346V18.291h6.728c0.744,0,1.346-0.603,1.346-1.346
		V6.182C43.477,5.439,42.875,4.836,42.131,4.836z M40.785,15.6h-6.727c-0.743,0-1.346,0.603-1.346,1.346V39.82H11.185V16.946
		c0-0.743-0.602-1.346-1.346-1.346H3.112V7.527h11.438l3.633,4.844c0.254,0.338,0.653,0.538,1.076,0.538h5.382
		c0.425,0,0.822-0.2,1.076-0.538l3.633-4.844h11.437V15.6z"/>
</g>
</svg>
