<?xml version="1.0" encoding="utf-8"?>
<!-- Generator: Adobe Illustrator 16.0.0, SVG Export Plug-In . SVG Version: 6.00 Build 0)  -->
<!DOCTYPE svg PUBLIC "-//W3C//DTD SVG 1.1//EN" "http://www.w3.org/Graphics/SVG/1.1/DTD/svg11.dtd">
<svg version="1.1" id="Layer_1" xmlns="http://www.w3.org/2000/svg" xmlns:xlink="http://www.w3.org/1999/xlink" x="0px" y="0px"
	 width="317.453px" height="392.254px" viewBox="0 0 317.453 392.254" enable-background="new 0 0 317.453 392.254"
	 xml:space="preserve">
<path fill="#B7A57A" d="M97.146,241.189h-0.114l-4.583,0.945h-0.315l-0.717-3.667l0.059-0.257l7.246-3.725h4.871v21.199h-6.446
	V241.189z"/>
<path fill="#B7A57A" d="M112.959,256.06c-0.936,0-1.891-0.049-2.865-0.144c-0.974-0.097-1.977-0.212-3.008-0.344v-4.757h1.375
	c0.668,0.134,1.294,0.225,1.877,0.272c0.581,0.048,1.17,0.071,1.762,0.071c1.374,0,2.396-0.144,3.065-0.431
	c0.668-0.285,1.003-0.896,1.003-1.832c0-0.401-0.101-0.727-0.301-0.975c-0.202-0.248-0.535-0.448-1.003-0.601
	c-0.469-0.154-1.099-0.259-1.891-0.315c-0.793-0.058-1.781-0.088-2.966-0.088h-2.177l-0.574-0.543l0.889-11.889h13.351v4.927h-8.65
	l-0.144,3.009c1.68,0.02,3.155,0.143,4.425,0.372c1.27,0.23,2.33,0.602,3.182,1.117c0.849,0.515,1.488,1.198,1.918,2.049
	c0.43,0.849,0.646,1.915,0.646,3.194c0,1.337-0.282,2.449-0.845,3.337c-0.564,0.889-1.314,1.595-2.25,2.12
	c-0.937,0.525-1.996,0.897-3.18,1.117S114.2,256.06,112.959,256.06z"/>
<path fill="#B7A57A" d="M133.873,255.916c-1.682,0-3.108-0.13-4.283-0.388c-1.175-0.259-2.135-0.631-2.879-1.116
	c-0.746-0.488-1.291-1.085-1.635-1.793c-0.343-0.704-0.514-1.499-0.514-2.378c0-2.29,1.126-4.01,3.379-5.154
	c-0.764-0.497-1.389-1.143-1.875-1.935c-0.488-0.793-0.732-1.857-0.732-3.193c0-0.86,0.211-1.644,0.631-2.351
	c0.421-0.706,1.018-1.308,1.791-1.805c0.773-0.496,1.709-0.883,2.808-1.16c1.099-0.276,2.315-0.414,3.652-0.414
	c1.279,0,2.431,0.138,3.452,0.414c1.021,0.277,1.887,0.664,2.593,1.16c0.707,0.497,1.247,1.099,1.619,1.805
	c0.373,0.707,0.558,1.49,0.558,2.351c0,1.013-0.185,1.847-0.558,2.506c-0.372,0.658-1.056,1.284-2.049,1.877
	c0.439,0.229,0.851,0.496,1.231,0.802c0.383,0.306,0.712,0.663,0.988,1.073c0.277,0.411,0.498,0.889,0.659,1.433
	c0.163,0.545,0.244,1.16,0.244,1.849c0,0.993-0.167,1.887-0.502,2.678c-0.334,0.793-0.864,1.466-1.59,2.02
	c-0.726,0.555-1.667,0.979-2.82,1.276C136.885,255.768,135.495,255.916,133.873,255.916z M132.354,246.69
	c-0.533,0.361-0.966,0.769-1.289,1.218c-0.325,0.449-0.486,0.959-0.486,1.532c0,0.764,0.302,1.343,0.902,1.734
	c0.602,0.391,1.398,0.586,2.393,0.586c0.993,0,1.75-0.162,2.277-0.487c0.525-0.324,0.787-0.803,0.787-1.432
	c0-0.497-0.114-0.907-0.344-1.232c-0.229-0.325-0.54-0.601-0.931-0.83c-0.392-0.229-0.855-0.421-1.39-0.573
	c-0.535-0.154-1.099-0.306-1.691-0.458L132.354,246.69z M130.979,240.329c0,0.422,0.115,0.771,0.344,1.047
	c0.23,0.278,0.54,0.515,0.932,0.717c0.391,0.201,0.849,0.367,1.375,0.5c0.525,0.136,1.094,0.268,1.704,0.401
	c0.517-0.401,0.888-0.825,1.117-1.274c0.229-0.448,0.344-0.893,0.344-1.331c0-0.612-0.267-1.1-0.802-1.462
	c-0.535-0.363-1.242-0.545-2.119-0.545c-0.879,0-1.581,0.172-2.106,0.515C131.241,239.241,130.979,239.72,130.979,240.329z"/>
<path fill="#B7A57A" d="M144.528,259.84l1.204-10.142h6.303l-2.837,10.428L144.528,259.84z"/>
<path fill="#B7A57A" d="M160.085,256.06c-0.936,0-1.891-0.049-2.866-0.144c-0.973-0.097-1.975-0.212-3.008-0.344v-4.757h1.376
	c0.669,0.134,1.294,0.225,1.877,0.272c0.581,0.048,1.169,0.071,1.761,0.071c1.377,0,2.398-0.144,3.066-0.431
	c0.668-0.285,1.002-0.896,1.002-1.832c0-0.401-0.1-0.727-0.301-0.975c-0.199-0.248-0.534-0.448-1.002-0.601
	c-0.47-0.154-1.098-0.259-1.892-0.315c-0.792-0.058-1.78-0.088-2.965-0.088h-2.177l-0.573-0.543l0.887-11.889h13.353v4.927h-8.653
	l-0.143,3.009c1.681,0.02,3.154,0.143,4.427,0.372c1.27,0.23,2.329,0.602,3.18,1.117c0.85,0.515,1.489,1.198,1.92,2.049
	c0.43,0.849,0.644,1.915,0.644,3.194c0,1.337-0.282,2.449-0.846,3.337c-0.562,0.889-1.312,1.595-2.247,2.12
	c-0.937,0.525-1.997,0.897-3.182,1.117C162.539,255.948,161.325,256.06,160.085,256.06z"/>
<path fill="#B7A57A" d="M177.847,256.06c-0.936,0-1.892-0.049-2.865-0.144c-0.974-0.097-1.976-0.212-3.007-0.344v-4.757h1.375
	c0.667,0.134,1.293,0.225,1.875,0.272s1.171,0.071,1.764,0.071c1.374,0,2.396-0.144,3.064-0.431
	c0.668-0.285,1.002-0.896,1.002-1.832c0-0.401-0.101-0.727-0.301-0.975s-0.535-0.448-1.002-0.601
	c-0.469-0.154-1.099-0.259-1.891-0.315c-0.793-0.058-1.781-0.088-2.966-0.088h-2.177l-0.572-0.543l0.887-11.889h13.352v4.927h-8.653
	l-0.143,3.009c1.681,0.02,3.156,0.143,4.427,0.372c1.27,0.23,2.33,0.602,3.18,1.117c0.85,0.515,1.488,1.198,1.92,2.049
	c0.428,0.849,0.644,1.915,0.644,3.194c0,1.337-0.282,2.449-0.845,3.337c-0.563,0.889-1.312,1.595-2.249,2.12
	c-0.936,0.525-1.996,0.897-3.18,1.117C180.301,255.948,179.088,256.06,177.847,256.06z"/>
<path fill="#B7A57A" d="M195.896,256.029c-0.573,0-1.165-0.011-1.776-0.029s-1.193-0.052-1.748-0.1
	c-0.554-0.049-1.065-0.1-1.532-0.157c-0.468-0.058-0.836-0.115-1.103-0.171v-4.757h0.114c0.247,0.058,0.576,0.12,0.988,0.187
	c0.409,0.066,0.85,0.125,1.318,0.173c0.466,0.047,0.931,0.084,1.389,0.113c0.459,0.028,0.869,0.043,1.231,0.043
	c0.84,0,1.529-0.028,2.062-0.086c0.535-0.059,0.951-0.162,1.247-0.314c0.296-0.154,0.495-0.363,0.601-0.631
	c0.105-0.269,0.158-0.611,0.158-1.031c0-0.438-0.062-0.797-0.186-1.074c-0.125-0.275-0.354-0.497-0.688-0.659
	c-0.334-0.162-0.801-0.271-1.403-0.329c-0.602-0.058-1.372-0.086-2.307-0.086h-1.947v-4.354h1.92c0.84,0,1.526-0.023,2.062-0.072
	c0.536-0.047,0.949-0.143,1.247-0.286c0.295-0.144,0.496-0.339,0.602-0.587c0.104-0.248,0.157-0.573,0.157-0.975
	c0-0.344-0.053-0.635-0.157-0.873c-0.105-0.239-0.292-0.426-0.56-0.56c-0.268-0.133-0.625-0.229-1.075-0.286
	c-0.446-0.057-1.016-0.086-1.704-0.086c-0.61,0-1.378,0.048-2.306,0.144c-0.927,0.096-1.81,0.21-2.649,0.344h-0.114v-4.784
	c0.381-0.077,0.846-0.147,1.389-0.215c0.545-0.067,1.103-0.125,1.676-0.173s1.122-0.085,1.647-0.113
	c0.525-0.029,0.979-0.043,1.36-0.043c3.076,0,5.356,0.467,6.848,1.403c1.488,0.935,2.234,2.388,2.234,4.355
	c0,1.144-0.325,2.119-0.974,2.921c-0.649,0.803-1.576,1.395-2.78,1.776v0.229c1.338,0.287,2.394,0.87,3.167,1.748
	c0.774,0.878,1.161,1.919,1.161,3.123c0,2.062-0.808,3.623-2.421,4.683C201.429,255.498,199.047,256.029,195.896,256.029z"/>
<path fill="#B7A57A" d="M97.465,271.639h-8.141v-7.007h25.39v7.007h-8.14v22.958h-9.109V271.639z"/>
<path fill="#B7A57A" d="M131.681,295.001c-5.075,0-8.909-1.295-11.5-3.886c-2.592-2.593-3.888-6.412-3.888-11.459
	c0-5.104,1.296-8.95,3.888-11.543c2.591-2.591,6.425-3.886,11.5-3.886c5.048,0,8.873,1.303,11.479,3.907
	c2.605,2.605,3.907,6.445,3.907,11.521c0,5.047-1.302,8.866-3.907,11.459C140.554,293.706,136.729,295.001,131.681,295.001z
	 M131.681,287.795c1.215,0,2.213-0.115,2.997-0.346c0.782-0.229,1.403-0.641,1.863-1.234c0.458-0.594,0.774-1.418,0.951-2.47
	c0.175-1.053,0.263-2.416,0.263-4.089c0-1.62-0.102-2.965-0.303-4.03c-0.205-1.067-0.534-1.91-0.993-2.532
	c-0.459-0.619-1.08-1.052-1.863-1.295c-0.783-0.242-1.755-0.365-2.915-0.365c-1.161,0-2.132,0.123-2.915,0.365
	c-0.782,0.243-1.404,0.676-1.863,1.295c-0.459,0.622-0.789,1.458-0.992,2.513c-0.202,1.051-0.304,2.402-0.304,4.05
	c0,1.646,0.095,2.995,0.284,4.048c0.188,1.053,0.512,1.883,0.972,2.49c0.458,0.607,1.079,1.026,1.862,1.255
	C129.508,287.68,130.492,287.795,131.681,287.795z"/>
<path fill="#B7A57A" d="M150.793,264.632h7.168l10.894,13.202l2.428,3.358h0.405v-16.561h7.938v29.965h-7.168L161.971,281.8
	l-2.835-3.805h-0.405v16.602h-7.938V264.632z"/>
<path fill="#B7A57A" d="M195.336,295.083c-0.864,0-1.789-0.027-2.773-0.082c-0.986-0.054-1.998-0.141-3.037-0.262
	c-1.04-0.122-2.072-0.256-3.097-0.405c-1.027-0.149-1.999-0.33-2.916-0.547v-7.289c2.187,0.486,4.169,0.857,5.951,1.114
	s3.442,0.385,4.981,0.385c1.619,0,2.76-0.147,3.422-0.446c0.66-0.297,0.99-0.796,0.99-1.498c0-0.781-0.37-1.356-1.113-1.721
	c-0.742-0.364-1.909-0.653-3.502-0.87c-1.7-0.244-3.205-0.603-4.515-1.073c-1.31-0.474-2.409-1.107-3.299-1.902
	c-0.893-0.797-1.561-1.77-2.007-2.918c-0.445-1.145-0.668-2.515-0.668-4.108c0-2.916,1.128-5.184,3.381-6.803
	c2.255-1.62,5.407-2.43,9.457-2.43c0.701,0,1.396,0.02,2.084,0.06c0.69,0.041,1.432,0.108,2.229,0.203
	c0.795,0.095,1.659,0.216,2.59,0.364c0.933,0.148,1.992,0.344,3.18,0.587v7.207c-0.702-0.215-1.443-0.404-2.226-0.565
	c-0.784-0.163-1.575-0.304-2.371-0.426c-0.796-0.12-1.578-0.216-2.348-0.283s-1.478-0.102-2.126-0.102
	c-2.889,0-4.332,0.662-4.332,1.984c0,0.863,0.404,1.525,1.215,1.983c0.811,0.461,2.105,0.838,3.887,1.135
	c1.701,0.298,3.171,0.682,4.415,1.154c1.24,0.473,2.271,1.06,3.097,1.76c0.824,0.704,1.437,1.547,1.842,2.532
	c0.404,0.986,0.607,2.14,0.607,3.461C208.334,291.817,204.001,295.083,195.336,295.083z"/>
<line fill="none" stroke="#4B2E83" stroke-width="1.3657" stroke-miterlimit="10" x1="148.896" y1="80.829" x2="148.896" y2="103.379"/>
<line fill="none" stroke="#4B2E83" stroke-width="1.3657" stroke-miterlimit="10" x1="148.896" y1="130.585" x2="148.896" y2="159.137"/>
<line fill="none" stroke="#4B2E83" stroke-width="1.3657" stroke-miterlimit="10" x1="89.645" y1="103.379" x2="207.978" y2="103.379"/>
<line fill="none" stroke="#4B2E83" stroke-width="1.3657" stroke-miterlimit="10" x1="89.645" y1="130.584" x2="207.978" y2="130.584"/>
<rect x="120.049" y="5.005" fill="#4B2E83" width="57.691" height="6.446"/>
<rect x="120.049" y="78.71" fill="#4B2E83" width="57.691" height="6.446"/>
<path fill="#B7A57A" d="M74.634,26.475h-3.663v-3.153h11.429v3.153h-3.664V36.81h-4.102V26.475z"/>
<path fill="#B7A57A" d="M90.036,36.993c-2.284,0-4.011-0.583-5.176-1.75c-1.166-1.167-1.75-2.886-1.75-5.159
	c0-2.297,0.584-4.028,1.75-5.195c1.165-1.167,2.892-1.75,5.176-1.75c2.273,0,3.995,0.586,5.168,1.759s1.759,2.901,1.759,5.186
	c0,2.272-0.586,3.992-1.759,5.159S92.31,36.993,90.036,36.993z M90.036,33.748c0.548,0,0.997-0.052,1.349-0.155
	c0.354-0.103,0.633-0.289,0.84-0.556c0.205-0.267,0.35-0.638,0.428-1.112c0.079-0.474,0.118-1.088,0.118-1.841
	c0-0.729-0.044-1.333-0.136-1.813s-0.24-0.86-0.447-1.14c-0.206-0.278-0.485-0.474-0.839-0.583
	c-0.352-0.109-0.789-0.164-1.312-0.164c-0.522,0-0.959,0.055-1.311,0.164c-0.354,0.11-0.633,0.305-0.839,0.583
	c-0.207,0.28-0.357,0.656-0.447,1.131c-0.092,0.474-0.138,1.082-0.138,1.822c0,0.742,0.043,1.35,0.127,1.823
	c0.086,0.474,0.231,0.847,0.438,1.121s0.486,0.462,0.84,0.565C89.059,33.696,89.503,33.748,90.036,33.748z"/>
<path fill="#B7A57A" d="M101.338,26.475h-3.664v-3.153h11.43v3.153h-3.664V36.81h-4.102V26.475z"/>
<path fill="#B7A57A" d="M108.082,36.61l4.156-13.288h6.089l4.155,13.288v0.2h-3.955l-0.82-2.752h-4.867l-0.802,2.752h-3.956V36.61z
	 M116.814,30.941l-0.566-2.005l-0.801-2.826h-0.329l-0.82,2.862l-0.547,1.969H116.814z"/>
<path fill="#B7A57A" d="M123.504,23.322h4.101v10.354h5.541v3.135h-9.642V23.322z"/>
<path fill="#B7A57A" d="M142.569,37.029c-0.39,0-0.805-0.012-1.249-0.036c-0.442-0.024-0.898-0.063-1.367-0.119
	c-0.467-0.055-0.932-0.115-1.394-0.182c-0.462-0.066-0.899-0.149-1.312-0.246v-3.28c0.983,0.218,1.878,0.385,2.68,0.5
	c0.803,0.115,1.549,0.173,2.242,0.173c0.729,0,1.242-0.067,1.54-0.2c0.298-0.135,0.447-0.359,0.447-0.675
	c0-0.353-0.168-0.611-0.501-0.775c-0.335-0.164-0.86-0.295-1.578-0.391c-0.765-0.11-1.442-0.271-2.031-0.484
	c-0.589-0.212-1.085-0.498-1.486-0.857c-0.401-0.358-0.701-0.795-0.902-1.312c-0.2-0.517-0.301-1.134-0.301-1.851
	c0-1.312,0.507-2.333,1.522-3.062c1.015-0.729,2.434-1.094,4.256-1.094c0.315,0,0.629,0.009,0.938,0.028
	c0.311,0.018,0.646,0.049,1.004,0.091c0.358,0.043,0.747,0.098,1.166,0.164c0.419,0.067,0.896,0.156,1.432,0.265v3.245
	c-0.317-0.098-0.65-0.182-1.003-0.255c-0.353-0.073-0.707-0.137-1.065-0.191c-0.359-0.055-0.712-0.098-1.057-0.128
	c-0.348-0.03-0.666-0.044-0.958-0.044c-1.301,0-1.952,0.297-1.952,0.893c0,0.389,0.184,0.687,0.549,0.893
	c0.364,0.207,0.947,0.377,1.75,0.51c0.766,0.134,1.427,0.307,1.986,0.52c0.558,0.212,1.023,0.478,1.396,0.792
	c0.369,0.316,0.646,0.696,0.829,1.14c0.182,0.443,0.273,0.963,0.273,1.559C148.422,35.559,146.471,37.029,142.569,37.029z"/>
<path fill="#B7A57A" d="M148.566,36.61l4.156-13.288h6.088l4.156,13.288v0.2h-3.955l-0.82-2.752h-4.867l-0.801,2.752h-3.957V36.61z
	 M157.298,30.941l-0.563-2.005l-0.803-2.826h-0.328l-0.821,2.862l-0.547,1.969H157.298z"/>
<path fill="#B7A57A" d="M163.987,23.322h4.102v10.354h5.541v3.135h-9.643V23.322z"/>
<path fill="#B7A57A" d="M174.979,23.322h5.598l2.004,5.486l0.693,2.716h0.109l0.711-2.716l2.004-5.486h5.578V36.81h-3.61v-9.059
	h-0.163l-1.111,3.646l-1.841,4.867h-3.245l-1.841-4.867l-1.113-3.646h-0.163v9.059h-3.609V23.322z"/>
<path fill="#B7A57A" d="M200.279,36.993c-2.285,0-4.011-0.583-5.177-1.75c-1.167-1.167-1.751-2.886-1.751-5.159
	c0-2.297,0.584-4.028,1.751-5.195c1.166-1.167,2.892-1.75,5.177-1.75c2.272,0,3.995,0.586,5.168,1.759
	c1.172,1.173,1.758,2.901,1.758,5.186c0,2.272-0.586,3.992-1.758,5.159C204.274,36.409,202.552,36.993,200.279,36.993z
	 M200.279,33.748c0.547,0,0.996-0.052,1.35-0.155c0.352-0.103,0.631-0.289,0.838-0.556c0.206-0.267,0.35-0.638,0.428-1.112
	c0.08-0.474,0.119-1.088,0.119-1.841c0-0.729-0.047-1.333-0.137-1.813c-0.092-0.48-0.24-0.86-0.446-1.14
	c-0.207-0.278-0.486-0.474-0.839-0.583c-0.352-0.109-0.79-0.164-1.312-0.164s-0.959,0.055-1.313,0.164
	c-0.352,0.11-0.63,0.305-0.837,0.583c-0.207,0.28-0.355,0.656-0.447,1.131c-0.091,0.474-0.137,1.082-0.137,1.822
	c0,0.742,0.043,1.35,0.129,1.823c0.084,0.474,0.229,0.847,0.437,1.121c0.206,0.273,0.485,0.462,0.838,0.565
	C199.301,33.696,199.744,33.748,200.279,33.748z"/>
<path fill="#B7A57A" d="M208.883,23.322h3.227l4.903,5.942l1.094,1.514h0.182v-7.456h3.573V36.81h-3.228l-4.72-5.76l-1.276-1.714
	h-0.182v7.474h-3.573V23.322z"/>
<path fill="#B7A57A" d="M86.998,67.968c-4.615,0-8.042-1.079-10.281-3.237c-2.237-2.157-3.357-5.498-3.357-10.021
	c0-4.546,1.078-7.904,3.236-10.074c2.158-2.169,5.417-3.254,9.779-3.254c0.808,0,1.689,0.041,2.648,0.121
	c0.957,0.081,2.129,0.213,3.514,0.397v6.127c-0.762-0.069-1.402-0.126-1.921-0.173c-0.52-0.046-0.971-0.081-1.351-0.104
	c-0.381-0.023-0.715-0.041-1.005-0.052c-0.288-0.012-0.581-0.018-0.882-0.018c-1.246,0-2.255,0.087-3.029,0.26
	c-0.774,0.172-1.379,0.514-1.816,1.021c-0.438,0.507-0.739,1.224-0.9,2.146c-0.162,0.923-0.242,2.124-0.242,3.601
	c0,1.454,0.08,2.63,0.242,3.531c0.161,0.899,0.462,1.598,0.9,2.094c0.438,0.497,1.042,0.837,1.816,1.021s1.76,0.277,2.962,0.277
	c0.391,0,0.829-0.012,1.313-0.036c0.484-0.022,0.969-0.057,1.454-0.103c0.484-0.046,0.94-0.093,1.367-0.139
	c0.427-0.046,0.791-0.104,1.091-0.174v6.163c-0.854,0.184-1.754,0.333-2.701,0.45C88.891,67.911,87.945,67.968,86.998,67.968z"/>
<path fill="#B7A57A" d="M93.472,67.103l7.892-25.235h11.562l7.893,25.235v0.38h-7.512l-1.559-5.227h-9.241l-1.523,5.227h-7.512
	V67.103z M110.052,56.336l-1.071-3.807l-1.523-5.365h-0.624l-1.557,5.435l-1.039,3.737H110.052z"/>
<path fill="#B7A57A" d="M134.389,67.83c-2.354,0-4.326-0.231-5.92-0.692c-1.592-0.461-2.873-1.147-3.842-2.06
	c-0.97-0.912-1.661-2.054-2.078-3.427c-0.415-1.373-0.622-2.982-0.622-4.83V41.798h7.788v15.265c0,1.455,0.363,2.58,1.09,3.376
	c0.729,0.796,1.922,1.195,3.584,1.195c1.684,0,2.886-0.399,3.6-1.195c0.714-0.796,1.074-1.921,1.074-3.376V41.798h7.788v15.023
	c0,1.847-0.208,3.457-0.623,4.83c-0.416,1.373-1.107,2.522-2.077,3.444c-0.969,0.923-2.249,1.61-3.842,2.06
	C138.715,67.604,136.742,67.83,134.389,67.83z"/>
<path fill="#B7A57A" d="M163.396,67.968c-4.638,0-8.071-1.083-10.298-3.253c-2.228-2.169-3.341-5.504-3.341-10.004
	c0-8.885,4.789-13.328,14.366-13.328c1.315,0,2.693,0.075,4.138,0.225c1.441,0.15,2.682,0.353,3.721,0.606v6.162
	c-1.569-0.254-2.967-0.433-4.188-0.537c-1.225-0.103-2.24-0.156-3.046-0.156c-1.432,0-2.604,0.093-3.514,0.277
	c-0.912,0.185-1.624,0.536-2.13,1.056c-0.507,0.519-0.854,1.234-1.038,2.146c-0.186,0.912-0.277,2.094-0.277,3.548
	c0,1.431,0.08,2.59,0.242,3.478c0.161,0.89,0.455,1.594,0.882,2.112c0.427,0.52,1.026,0.872,1.802,1.056
	c0.772,0.185,1.771,0.277,2.994,0.277c0.229,0,0.478,0,0.744,0c0.265,0,0.535-0.012,0.813-0.036v-7.131h7.097v12.116
	c-1.523,0.393-3.094,0.723-4.709,0.987C166.039,67.835,164.62,67.968,163.396,67.968z"/>
<path fill="#B7A57A" d="M175.997,41.868h7.789v9.484h9.485v-9.484h7.788v25.616h-7.788V57.341h-9.485v10.143h-7.789V41.868z"/>
<path fill="#B7A57A" d="M210.821,47.856h-6.958v-5.988h21.704v5.988h-6.956v19.627h-7.79V47.856z"/>
<path fill="#B7A57A" d="M127.828,122.148c0-0.81,0.131-1.496,0.396-2.054c0.263-0.56,0.607-1.039,1.031-1.438
	s0.91-0.736,1.455-1.013c0.548-0.276,1.104-0.537,1.67-0.781c0.348-0.141,0.662-0.286,0.945-0.434
	c0.283-0.147,0.523-0.306,0.724-0.472c0.198-0.167,0.355-0.354,0.473-0.56c0.116-0.206,0.172-0.438,0.172-0.694
	c0-0.489-0.192-0.843-0.577-1.062c-0.386-0.217-1.009-0.328-1.87-0.328c-0.323,0-0.657,0.017-1.005,0.049
	c-0.347,0.032-0.686,0.071-1.012,0.115c-0.327,0.046-0.637,0.094-0.927,0.146c-0.289,0.051-0.55,0.097-0.78,0.135l-0.271-3.396
	c1.081-0.167,2.019-0.289,2.817-0.367c0.796-0.077,1.529-0.115,2.199-0.115c1.979,0,3.432,0.36,4.358,1.08
	c0.926,0.721,1.391,1.813,1.391,3.279c0,0.669-0.101,1.263-0.301,1.784c-0.198,0.521-0.465,0.981-0.8,1.38
	c-0.335,0.397-0.714,0.746-1.138,1.042c-0.425,0.296-0.868,0.559-1.33,0.791c-0.76,0.386-1.357,0.679-1.795,0.877
	c-0.438,0.2-0.656,0.416-0.656,0.647v0.25h5.979v3.337h-11.148V122.148z"/>
<path fill="#B7A57A" d="M147.099,124.541c-2.083,0-3.7-0.608-4.851-1.823c-1.151-1.215-1.728-3.044-1.728-5.488
	c0-2.443,0.576-4.279,1.728-5.508c1.15-1.228,2.768-1.842,4.851-1.842c2.084,0,3.697,0.614,4.842,1.842
	c1.146,1.229,1.716,3.064,1.716,5.508c0,2.444-0.57,4.272-1.716,5.488C150.796,123.933,149.183,124.541,147.099,124.541z
	 M147.099,121.126c0.399,0,0.739-0.056,1.022-0.173c0.284-0.116,0.516-0.318,0.694-0.608c0.181-0.287,0.315-0.688,0.406-1.196
	c0.088-0.507,0.134-1.147,0.134-1.918c0-0.784-0.046-1.431-0.134-1.939c-0.091-0.507-0.226-0.909-0.406-1.205
	c-0.179-0.296-0.41-0.502-0.694-0.617c-0.283-0.116-0.623-0.174-1.022-0.174c-0.411,0-0.763,0.058-1.05,0.174
	c-0.289,0.115-0.525,0.321-0.706,0.617s-0.312,0.698-0.395,1.205c-0.084,0.509-0.127,1.155-0.127,1.939
	c0,0.771,0.043,1.408,0.127,1.909c0.083,0.501,0.214,0.901,0.395,1.196c0.181,0.296,0.417,0.502,0.706,0.618
	C146.336,121.07,146.688,121.126,147.099,121.126z"/>
<path fill="#B7A57A" d="M158.308,114.587h-0.078l-3.086,0.636h-0.214l-0.48-2.469l0.039-0.173l4.879-2.507h3.28v14.273h-4.34
	V114.587z"/>
<path fill="#B7A57A" d="M168.125,114.587h-0.077l-3.087,0.636h-0.211l-0.483-2.469l0.038-0.173l4.881-2.507h3.279v14.273h-4.34
	V114.587z"/>
<rect x="53.394" y="11.644" fill="none" stroke="#4B2E83" stroke-width="1.3657" stroke-miterlimit="10" width="191.001" height="67.066"/>
<path fill="#808285" d="M232.56,280.679l23.262,5.371c0.143-0.622,0.273-1.247,0.407-1.874l-23.351-4.962
	C232.775,279.702,232.672,280.193,232.56,280.679z"/>
<path fill="#6D6E71" d="M232.878,279.214l23.351,4.962c0.915-4.327,1.573-8.749,1.961-13.25l-23.777-2.081
	C234.107,272.367,233.594,275.826,232.878,279.214z"/>
<path fill="#4B2E83" d="M39.157,261.449c0,33.048,14.612,62.681,37.728,82.796l15.661-18.016
	c-18.087-15.738-29.521-38.923-29.521-64.78c0-47.41,38.433-85.843,85.843-85.843c0.002,0,0.002,0,0.002,0l0.001-23.87
	c0,0-0.001,0-0.003,0C88.277,151.736,39.157,200.856,39.157,261.449z"/>
<path fill="#939598" d="M148.868,347.294c-21.552,0-41.247-7.944-56.322-21.064l-15.661,18.016
	c19.267,16.765,44.439,26.919,71.983,26.919c52.112,0,95.734-36.331,106.929-85.044l-23.261-5.37
	C223.777,318.866,189.645,347.294,148.868,347.294z"/>
<path fill="#58595B" d="M234.387,268.917l23.778,2.081c0.164-1.898,0.278-3.812,0.345-5.735l-23.853-0.832
	C234.605,265.937,234.516,267.433,234.387,268.917z"/>
<path fill="#D1D3D4" d="M234.713,261.449c0,0.998-0.022,1.991-0.056,2.981l23.853,0.832c0.044-1.268,0.073-2.536,0.073-3.813
	c0-60.592-49.12-109.713-109.712-109.713v23.87C196.281,175.606,234.713,214.04,234.713,261.449z"/>
<polygon fill="#4B2E83" points="92.419,326.087 92.526,341.999 76.754,344.122 "/>
<polygon fill="#4B2E83" points="148.871,151.615 159.41,163.537 148.868,175.606 "/>
<path fill="#4B2E83" d="M11.006,179.753c-0.26,0-0.517-0.006-0.766-0.016c-0.25-0.012-0.514-0.029-0.793-0.058v-3.506
	c0.257-0.026,0.499-0.045,0.729-0.057c0.229-0.012,0.454-0.018,0.68-0.018c0.569,0,0.986,0.084,1.25,0.249
	c0.265,0.166,0.397,0.424,0.397,0.775c0,0.385-0.206,0.632-0.615,0.739v0.021c0.238,0.044,0.417,0.138,0.54,0.28
	c0.125,0.143,0.187,0.328,0.187,0.555c0,0.353-0.131,0.613-0.392,0.781C11.961,179.669,11.556,179.753,11.006,179.753z
	 M10.908,177.566c0.195,0,0.332-0.025,0.408-0.082c0.077-0.054,0.116-0.148,0.116-0.282c0-0.129-0.039-0.221-0.116-0.274
	c-0.076-0.055-0.21-0.083-0.399-0.083c-0.168,0-0.315,0.01-0.441,0.031v0.69H10.908z M10.991,179.003
	c0.187,0,0.326-0.029,0.413-0.092c0.09-0.063,0.133-0.162,0.133-0.296c0-0.136-0.04-0.229-0.122-0.282
	c-0.08-0.053-0.226-0.079-0.431-0.079h-0.509v0.73c0.02,0.002,0.041,0.007,0.061,0.009c0.021,0.003,0.048,0.006,0.084,0.007
	c0.035,0.003,0.082,0.003,0.14,0.003C10.816,179.003,10.895,179.003,10.991,179.003z"/>
<path fill="#4B2E83" d="M14.574,178.604c-0.048,0.006-0.097,0.011-0.146,0.011c-0.049,0-0.102,0-0.156,0h-0.152v1.09h-1.081v-3.531
	c0.412-0.048,0.805-0.074,1.177-0.074c0.346,0,0.644,0.026,0.893,0.074c0.25,0.048,0.455,0.121,0.615,0.222
	c0.16,0.103,0.278,0.232,0.354,0.392c0.075,0.161,0.113,0.352,0.113,0.574c0,0.495-0.225,0.844-0.673,1.046l0.854,1.298h-1.21
	L14.574,178.604z M14.426,177.798c0.129,0,0.235-0.007,0.322-0.022c0.086-0.014,0.154-0.038,0.204-0.071
	c0.049-0.034,0.084-0.079,0.105-0.136c0.021-0.056,0.032-0.124,0.032-0.207c0-0.084-0.011-0.154-0.03-0.21
	c-0.018-0.058-0.051-0.102-0.099-0.131c-0.046-0.033-0.109-0.056-0.191-0.069c-0.082-0.012-0.186-0.02-0.31-0.02
	c-0.046,0-0.102,0.003-0.172,0.006c-0.068,0.003-0.124,0.008-0.169,0.014v0.822c0.033,0.011,0.074,0.017,0.118,0.02
	C14.283,177.796,14.346,177.798,14.426,177.798z"/>
<path fill="#4B2E83" d="M16.641,176.149h1.081v3.556h-1.081V176.149z"/>
<path fill="#4B2E83" d="M19.592,179.763c-0.103,0-0.213-0.003-0.329-0.01c-0.116-0.006-0.238-0.016-0.36-0.031
	c-0.123-0.014-0.246-0.029-0.368-0.048c-0.12-0.017-0.237-0.039-0.346-0.063v-0.865c0.259,0.056,0.495,0.101,0.706,0.131
	c0.211,0.032,0.409,0.045,0.593,0.045c0.191,0,0.326-0.017,0.405-0.052s0.117-0.095,0.117-0.178c0-0.093-0.045-0.161-0.131-0.204
	c-0.09-0.044-0.228-0.078-0.417-0.104c-0.202-0.028-0.38-0.071-0.537-0.128c-0.154-0.056-0.284-0.132-0.391-0.226
	c-0.105-0.094-0.185-0.21-0.237-0.347c-0.054-0.135-0.079-0.298-0.079-0.485c0-0.348,0.134-0.615,0.402-0.809
	c0.266-0.192,0.64-0.29,1.12-0.29c0.084,0,0.166,0.003,0.248,0.009c0.082,0.005,0.169,0.012,0.264,0.023
	c0.096,0.012,0.197,0.026,0.31,0.045c0.109,0.017,0.235,0.039,0.376,0.068v0.855c-0.083-0.025-0.172-0.047-0.264-0.068
	c-0.094-0.018-0.188-0.036-0.282-0.05c-0.095-0.015-0.188-0.024-0.278-0.034c-0.091-0.007-0.176-0.011-0.252-0.011
	c-0.344,0-0.515,0.078-0.515,0.235c0,0.102,0.048,0.181,0.145,0.235s0.249,0.101,0.46,0.136c0.203,0.034,0.377,0.08,0.524,0.135
	c0.147,0.058,0.271,0.127,0.368,0.21s0.17,0.184,0.22,0.301c0.048,0.116,0.07,0.254,0.07,0.41
	C21.134,179.375,20.62,179.763,19.592,179.763z"/>
<path fill="#4B2E83" d="M22.302,176.98h-0.966v-0.831h3.014v0.831h-0.967v2.725h-1.081V176.98z"/>
<path fill="#4B2E83" d="M26.363,179.753c-0.604,0-1.059-0.153-1.366-0.461c-0.307-0.308-0.461-0.762-0.461-1.359
	c0-0.607,0.154-1.062,0.461-1.371c0.308-0.307,0.763-0.462,1.366-0.462c0.598,0,1.052,0.156,1.361,0.466
	c0.31,0.309,0.464,0.765,0.464,1.367c0,0.598-0.154,1.052-0.464,1.359S26.961,179.753,26.363,179.753z M26.363,178.897
	c0.143,0,0.262-0.014,0.354-0.042c0.094-0.025,0.167-0.074,0.222-0.146c0.054-0.071,0.092-0.168,0.114-0.293
	c0.019-0.125,0.029-0.286,0.029-0.484c0-0.192-0.012-0.352-0.036-0.479c-0.023-0.127-0.064-0.227-0.117-0.3
	c-0.055-0.075-0.129-0.126-0.22-0.156c-0.094-0.027-0.21-0.042-0.347-0.042c-0.138,0-0.254,0.015-0.347,0.042
	c-0.092,0.03-0.167,0.081-0.222,0.156c-0.055,0.073-0.094,0.171-0.118,0.298c-0.022,0.124-0.034,0.285-0.034,0.48
	s0.01,0.354,0.033,0.479c0.021,0.125,0.062,0.224,0.115,0.295c0.056,0.074,0.128,0.123,0.221,0.148
	C26.104,178.884,26.223,178.897,26.363,178.897z"/>
<path fill="#4B2E83" d="M28.631,176.149h1.081v2.729h1.461v0.826h-2.542V176.149z"/>
<path fill="#4B2E83" d="M33.937,179.753c-0.261,0-0.515-0.006-0.764-0.016c-0.251-0.012-0.516-0.029-0.794-0.058v-3.506
	c0.256-0.026,0.499-0.045,0.729-0.057c0.229-0.012,0.456-0.018,0.679-0.018c0.57,0,0.988,0.084,1.251,0.249
	c0.267,0.166,0.398,0.424,0.398,0.775c0,0.385-0.205,0.632-0.615,0.739v0.021c0.235,0.044,0.417,0.138,0.54,0.28
	c0.124,0.143,0.187,0.328,0.187,0.555c0,0.353-0.132,0.613-0.394,0.781C34.893,179.669,34.486,179.753,33.937,179.753z
	 M33.84,177.566c0.195,0,0.331-0.025,0.408-0.082c0.076-0.054,0.115-0.148,0.115-0.282c0-0.129-0.039-0.221-0.115-0.274
	c-0.077-0.055-0.209-0.083-0.398-0.083c-0.17,0-0.317,0.01-0.442,0.031v0.69H33.84z M33.921,179.003
	c0.189,0,0.328-0.029,0.416-0.092c0.089-0.063,0.132-0.162,0.132-0.296c0-0.136-0.04-0.229-0.122-0.282s-0.226-0.079-0.431-0.079
	h-0.509v0.73c0.02,0.002,0.038,0.007,0.06,0.009c0.021,0.003,0.049,0.006,0.085,0.007c0.034,0.003,0.081,0.003,0.14,0.003
	C33.748,179.003,33.825,179.003,33.921,179.003z"/>
<path fill="#4B2E83" d="M35.604,179.651l1.094-3.502h1.606l1.095,3.502v0.054h-1.042l-0.216-0.726h-1.284l-0.21,0.726h-1.043
	V179.651z M37.905,178.156l-0.149-0.527l-0.211-0.745h-0.087l-0.216,0.756l-0.145,0.517H37.905z"/>
<path fill="#4B2E83" d="M40.264,178.6l-1.364-2.45h1.177l0.545,1.091l0.152,0.393h0.05l0.148-0.393l0.547-1.091h1.168l-1.341,2.417
	v1.139h-1.082V178.6z"/>
<path fill="#4B2E83" d="M11.477,188.367c-0.181,0-0.367-0.004-0.56-0.01c-0.19-0.006-0.374-0.017-0.548-0.032
	c-0.174-0.015-0.335-0.03-0.481-0.049c-0.147-0.018-0.263-0.035-0.347-0.054v-1.494h0.036c0.077,0.019,0.181,0.037,0.311,0.061
	c0.13,0.02,0.266,0.038,0.413,0.053c0.148,0.015,0.293,0.027,0.438,0.035c0.143,0.01,0.272,0.015,0.387,0.015
	c0.264,0,0.479-0.009,0.648-0.028c0.167-0.019,0.298-0.052,0.391-0.1c0.094-0.047,0.156-0.112,0.19-0.197
	c0.031-0.083,0.048-0.192,0.048-0.323c0-0.138-0.02-0.249-0.059-0.337c-0.039-0.087-0.111-0.156-0.216-0.207
	c-0.104-0.052-0.252-0.085-0.439-0.103c-0.19-0.021-0.432-0.028-0.726-0.028h-0.611V184.2h0.604c0.263,0,0.479-0.007,0.646-0.022
	c0.168-0.015,0.299-0.044,0.392-0.09c0.093-0.045,0.155-0.107,0.189-0.184c0.032-0.078,0.049-0.182,0.049-0.306
	c0-0.108-0.017-0.201-0.049-0.275c-0.034-0.076-0.092-0.134-0.175-0.176c-0.085-0.04-0.198-0.071-0.34-0.09
	c-0.139-0.019-0.318-0.026-0.534-0.026c-0.192,0-0.434,0.015-0.725,0.045c-0.291,0.031-0.568,0.066-0.832,0.107H9.541v-1.502
	c0.119-0.023,0.265-0.048,0.438-0.068c0.17-0.021,0.346-0.039,0.525-0.053c0.18-0.015,0.354-0.028,0.518-0.037
	c0.166-0.008,0.307-0.014,0.428-0.014c0.965,0,1.682,0.148,2.15,0.441c0.469,0.295,0.701,0.75,0.701,1.367
	c0,0.36-0.102,0.665-0.307,0.918c-0.203,0.252-0.494,0.438-0.871,0.558v0.072c0.419,0.09,0.751,0.273,0.994,0.549
	c0.242,0.275,0.364,0.603,0.364,0.98c0,0.647-0.253,1.139-0.76,1.472C13.213,188.201,12.465,188.367,11.477,188.367z"/>
<path fill="#4B2E83" d="M18.019,188.331c-0.528,0-0.977-0.041-1.347-0.122s-0.67-0.198-0.903-0.35
	c-0.234-0.154-0.407-0.342-0.514-0.563c-0.108-0.223-0.161-0.471-0.161-0.747c0-0.72,0.354-1.26,1.06-1.618
	c-0.239-0.157-0.435-0.358-0.589-0.608c-0.153-0.249-0.229-0.585-0.229-1.004c0-0.27,0.066-0.516,0.198-0.737
	c0.131-0.222,0.319-0.412,0.561-0.566c0.243-0.156,0.537-0.277,0.883-0.365c0.345-0.086,0.728-0.13,1.147-0.13
	c0.401,0,0.763,0.044,1.084,0.13c0.322,0.088,0.593,0.209,0.814,0.365c0.221,0.154,0.392,0.345,0.509,0.566
	c0.116,0.222,0.175,0.468,0.175,0.737c0,0.317-0.059,0.581-0.175,0.788c-0.117,0.207-0.332,0.403-0.643,0.589
	c0.137,0.073,0.265,0.156,0.386,0.252c0.12,0.097,0.224,0.208,0.311,0.338c0.088,0.129,0.156,0.279,0.207,0.449
	c0.051,0.172,0.076,0.365,0.076,0.581c0,0.312-0.052,0.591-0.157,0.84c-0.104,0.25-0.272,0.463-0.5,0.635
	c-0.228,0.175-0.522,0.309-0.886,0.402C18.963,188.284,18.526,188.331,18.019,188.331z M17.54,185.434
	c-0.168,0.112-0.302,0.241-0.404,0.382c-0.104,0.143-0.153,0.302-0.153,0.482c0,0.239,0.095,0.42,0.283,0.544
	c0.189,0.123,0.439,0.185,0.753,0.185c0.312,0,0.549-0.051,0.713-0.153c0.167-0.101,0.249-0.253,0.249-0.451
	c0-0.155-0.038-0.283-0.108-0.385c-0.071-0.104-0.169-0.188-0.292-0.261s-0.269-0.133-0.438-0.18
	c-0.167-0.051-0.345-0.098-0.529-0.145L17.54,185.434z M17.108,183.436c0,0.133,0.036,0.242,0.107,0.328
	c0.073,0.088,0.171,0.163,0.293,0.227c0.124,0.062,0.268,0.114,0.432,0.156c0.165,0.042,0.344,0.084,0.536,0.126
	c0.161-0.126,0.279-0.26,0.35-0.4c0.072-0.141,0.108-0.28,0.108-0.417c0-0.193-0.083-0.347-0.253-0.46
	c-0.166-0.114-0.389-0.171-0.663-0.171c-0.277,0-0.498,0.054-0.663,0.162C17.191,183.094,17.108,183.244,17.108,183.436z"/>
<path fill="#4B2E83" d="M22.551,188.349c-0.336,0-0.6-0.081-0.792-0.242c-0.19-0.162-0.287-0.419-0.287-0.766
	c0-0.348,0.097-0.602,0.287-0.761c0.192-0.159,0.456-0.238,0.792-0.238c0.337,0,0.601,0.079,0.793,0.238
	c0.191,0.159,0.289,0.413,0.289,0.761c0,0.347-0.098,0.604-0.289,0.766C23.151,188.268,22.888,188.349,22.551,188.349z"/>
<path fill="#4B2E83" d="M26.143,188.375c-0.293,0-0.594-0.015-0.9-0.044c-0.306-0.029-0.62-0.066-0.944-0.108v-1.494h0.432
	c0.21,0.044,0.406,0.07,0.589,0.085c0.184,0.016,0.369,0.023,0.553,0.023c0.434,0,0.754-0.045,0.963-0.135
	c0.21-0.09,0.317-0.282,0.317-0.577c0-0.125-0.032-0.226-0.096-0.305s-0.168-0.141-0.316-0.189
	c-0.146-0.048-0.344-0.079-0.593-0.099c-0.249-0.017-0.558-0.026-0.931-0.026h-0.684l-0.181-0.173l0.279-3.732h4.194v1.547h-2.719
	l-0.045,0.945c0.527,0.007,0.992,0.046,1.39,0.116c0.399,0.072,0.732,0.189,0.999,0.352c0.268,0.162,0.468,0.376,0.604,0.643
	c0.135,0.268,0.202,0.603,0.202,1.004c0,0.42-0.089,0.77-0.266,1.047c-0.177,0.28-0.413,0.502-0.707,0.666
	c-0.293,0.165-0.627,0.284-0.998,0.353C26.913,188.341,26.533,188.375,26.143,188.375z"/>
<path fill="#4B2E83" d="M31.828,185.767c-0.671,0-1.188-0.177-1.551-0.526c-0.365-0.352-0.545-0.884-0.545-1.597
	c0-0.715,0.183-1.25,0.549-1.606c0.364-0.357,0.882-0.535,1.547-0.535c0.672,0,1.189,0.178,1.552,0.535
	c0.365,0.356,0.546,0.892,0.546,1.606c0,0.713-0.181,1.245-0.546,1.597C33.018,185.59,32.5,185.767,31.828,185.767z M31.828,184.588
	c0.246,0,0.424-0.062,0.531-0.189c0.107-0.126,0.163-0.378,0.163-0.755c0-0.192-0.015-0.351-0.041-0.472
	c-0.027-0.124-0.067-0.222-0.122-0.294c-0.054-0.073-0.124-0.121-0.211-0.148c-0.088-0.027-0.193-0.04-0.32-0.04
	c-0.251,0-0.431,0.064-0.539,0.193c-0.108,0.13-0.162,0.382-0.162,0.761c0,0.377,0.054,0.629,0.162,0.755
	C31.397,184.525,31.577,184.588,31.828,184.588z M35.518,181.601h1.665l-3.104,6.658h-1.664L35.518,181.601z M37.785,188.349
	c-0.672,0-1.189-0.177-1.551-0.531c-0.365-0.354-0.547-0.886-0.547-1.601c0-0.714,0.184-1.248,0.551-1.604
	c0.364-0.354,0.881-0.528,1.547-0.528c0.671,0,1.189,0.175,1.552,0.528c0.363,0.355,0.544,0.89,0.544,1.604
	c0,0.715-0.181,1.247-0.544,1.601C38.975,188.172,38.456,188.349,37.785,188.349z M37.785,187.17c0.126,0,0.232-0.015,0.319-0.04
	c0.087-0.028,0.158-0.078,0.212-0.148c0.053-0.072,0.095-0.17,0.121-0.293c0.027-0.123,0.042-0.281,0.042-0.472
	c0-0.378-0.055-0.632-0.163-0.761s-0.285-0.193-0.531-0.193c-0.252,0-0.431,0.064-0.539,0.193s-0.162,0.383-0.162,0.761
	c0,0.377,0.054,0.631,0.162,0.76C37.354,187.104,37.533,187.17,37.785,187.17z"/>
<path fill="#4B2E83" d="M233.135,362.144c-0.604,0-1.059-0.154-1.365-0.462s-0.461-0.761-0.461-1.36
	c0-0.606,0.154-1.062,0.461-1.368c0.307-0.309,0.762-0.463,1.365-0.463c0.598,0,1.053,0.156,1.362,0.464
	c0.309,0.311,0.464,0.767,0.464,1.367c0,0.6-0.155,1.053-0.464,1.36C234.188,361.989,233.732,362.144,233.135,362.144z
	 M233.135,361.287c0.144,0,0.261-0.015,0.354-0.041s0.167-0.075,0.222-0.145c0.055-0.072,0.092-0.171,0.113-0.295
	c0.021-0.125,0.031-0.286,0.031-0.485c0-0.192-0.012-0.352-0.037-0.478c-0.023-0.126-0.062-0.228-0.117-0.301
	c-0.054-0.074-0.129-0.126-0.221-0.154c-0.093-0.028-0.209-0.043-0.346-0.043c-0.138,0-0.254,0.015-0.347,0.043
	s-0.165,0.08-0.222,0.154c-0.055,0.073-0.093,0.172-0.117,0.298c-0.023,0.126-0.035,0.285-0.035,0.48s0.012,0.354,0.033,0.48
	c0.021,0.125,0.061,0.223,0.115,0.295c0.055,0.073,0.128,0.123,0.221,0.149S232.993,361.287,233.135,361.287z"/>
<path fill="#4B2E83" d="M236.112,359.37h-0.965v-0.832h3.014v0.832h-0.966v2.725h-1.083V359.37z"/>
<path fill="#4B2E83" d="M238.55,358.538h1.08v1.317h1.317v-1.317h1.082v3.557h-1.082v-1.408h-1.317v1.408h-1.08V358.538z"/>
<path fill="#4B2E83" d="M242.615,358.538h2.787v0.827h-1.707v0.538h1.524v0.826h-1.524v0.534h1.755v0.831h-2.835V358.538z"/>
<path fill="#4B2E83" d="M247.439,360.994c-0.047,0.007-0.098,0.011-0.146,0.011c-0.05,0-0.103,0-0.157,0h-0.153v1.09h-1.081v-3.531
	c0.412-0.049,0.806-0.073,1.178-0.073c0.346,0,0.645,0.024,0.894,0.073c0.25,0.048,0.454,0.122,0.616,0.222
	c0.159,0.104,0.277,0.233,0.353,0.393c0.073,0.16,0.111,0.352,0.111,0.572c0,0.496-0.223,0.847-0.673,1.049l0.856,1.296h-1.212
	L247.439,360.994z M247.291,360.188c0.128,0,0.235-0.008,0.322-0.022c0.086-0.014,0.154-0.038,0.203-0.072
	c0.051-0.032,0.086-0.078,0.107-0.134c0.019-0.057,0.03-0.126,0.03-0.209c0-0.084-0.009-0.153-0.028-0.209
	c-0.02-0.057-0.053-0.101-0.099-0.132c-0.048-0.032-0.11-0.056-0.192-0.068c-0.083-0.011-0.185-0.019-0.31-0.019
	c-0.045,0-0.103,0.001-0.171,0.005c-0.069,0.004-0.126,0.008-0.171,0.014v0.822c0.036,0.011,0.075,0.016,0.12,0.02
	C247.148,360.185,247.211,360.188,247.291,360.188z"/>
<path fill="#4B2E83" d="M250.025,362.042l1.096-3.504h1.605l1.096,3.504v0.053h-1.043l-0.217-0.726h-1.283l-0.212,0.726h-1.042
	V362.042z M252.328,360.546l-0.15-0.527l-0.211-0.745h-0.086l-0.217,0.755l-0.144,0.518H252.328z"/>
<path fill="#4B2E83" d="M254.091,358.538h1.081v2.73h1.461v0.826h-2.542V358.538z"/>
<path fill="#4B2E83" d="M256.671,362.042l1.097-3.504h1.604l1.096,3.504v0.053h-1.043l-0.216-0.726h-1.282l-0.212,0.726h-1.044
	V362.042z M258.974,360.546l-0.149-0.527l-0.21-0.745h-0.089l-0.215,0.755l-0.145,0.518H258.974z"/>
<path fill="#4B2E83" d="M262.016,362.151c-0.104,0-0.213-0.002-0.33-0.008c-0.117-0.007-0.236-0.017-0.36-0.032
	c-0.123-0.015-0.247-0.03-0.367-0.047c-0.122-0.019-0.237-0.04-0.347-0.065v-0.864c0.26,0.057,0.496,0.102,0.707,0.131
	c0.211,0.031,0.408,0.046,0.592,0.046c0.191,0,0.326-0.018,0.405-0.053c0.079-0.036,0.118-0.095,0.118-0.178
	c0-0.094-0.045-0.162-0.133-0.204c-0.088-0.045-0.227-0.078-0.415-0.104c-0.202-0.029-0.381-0.071-0.536-0.127
	c-0.155-0.058-0.286-0.131-0.392-0.227c-0.106-0.094-0.187-0.21-0.237-0.346c-0.054-0.136-0.08-0.299-0.08-0.486
	c0-0.348,0.134-0.616,0.401-0.809c0.268-0.193,0.642-0.289,1.122-0.289c0.083,0,0.166,0.002,0.248,0.008
	c0.08,0.005,0.169,0.013,0.263,0.023c0.096,0.012,0.197,0.027,0.31,0.044c0.109,0.018,0.235,0.041,0.376,0.069v0.855
	c-0.083-0.025-0.171-0.048-0.264-0.068c-0.092-0.019-0.186-0.035-0.282-0.049c-0.094-0.015-0.188-0.026-0.278-0.034
	s-0.175-0.012-0.253-0.012c-0.342,0-0.514,0.077-0.514,0.235c0,0.102,0.05,0.181,0.145,0.234c0.098,0.056,0.25,0.101,0.461,0.136
	c0.201,0.035,0.377,0.082,0.524,0.137c0.147,0.057,0.27,0.126,0.367,0.209c0.098,0.084,0.171,0.184,0.219,0.3
	c0.048,0.118,0.072,0.254,0.072,0.412C263.558,361.765,263.043,362.151,262.016,362.151z"/>
<path fill="#4B2E83" d="M263.955,358.538h1.081v1.355h0.4l0.693-1.355h1.195l-0.89,1.548l-0.279,0.13v0.044l0.289,0.134l0.966,1.701
	h-1.196l-0.716-1.374h-0.463v1.374h-1.081V358.538z"/>
<path fill="#4B2E83" d="M267.33,362.042l1.095-3.504h1.605l1.096,3.504v0.053h-1.044l-0.215-0.726h-1.283l-0.211,0.726h-1.043
	V362.042z M269.633,360.546l-0.149-0.527l-0.212-0.745h-0.088l-0.215,0.755l-0.145,0.518H269.633z"/>
<path fill="#4B2E83" d="M233.48,371.187c-0.18,0-0.365-0.003-0.559-0.008c-0.19-0.007-0.373-0.018-0.548-0.031
	c-0.174-0.016-0.334-0.032-0.481-0.051c-0.146-0.018-0.263-0.034-0.346-0.055v-1.491h0.035c0.079,0.017,0.182,0.037,0.311,0.058
	c0.129,0.02,0.268,0.039,0.413,0.054c0.146,0.014,0.293,0.026,0.438,0.036c0.144,0.009,0.272,0.014,0.387,0.014
	c0.265,0,0.479-0.01,0.648-0.026c0.167-0.02,0.297-0.051,0.391-0.101c0.093-0.047,0.155-0.113,0.19-0.196
	c0.031-0.084,0.048-0.192,0.048-0.325c0-0.138-0.019-0.25-0.058-0.338c-0.039-0.086-0.111-0.156-0.217-0.207
	s-0.253-0.085-0.439-0.103c-0.19-0.019-0.432-0.028-0.726-0.028h-0.611v-1.367h0.604c0.264,0,0.479-0.007,0.646-0.021
	c0.169-0.016,0.299-0.045,0.392-0.091c0.094-0.044,0.156-0.105,0.189-0.185c0.032-0.078,0.049-0.18,0.049-0.306
	c0-0.107-0.017-0.199-0.049-0.274c-0.033-0.074-0.092-0.135-0.176-0.176c-0.085-0.041-0.197-0.071-0.339-0.089
	c-0.14-0.019-0.317-0.027-0.534-0.027c-0.191,0-0.434,0.015-0.725,0.045c-0.289,0.03-0.567,0.066-0.832,0.107h-0.035v-1.501
	c0.119-0.025,0.265-0.048,0.437-0.068c0.17-0.021,0.346-0.04,0.525-0.055c0.181-0.015,0.354-0.027,0.518-0.035
	c0.165-0.01,0.308-0.015,0.429-0.015c0.965,0,1.681,0.147,2.149,0.441c0.468,0.294,0.702,0.75,0.702,1.367
	c0,0.36-0.103,0.666-0.307,0.918c-0.203,0.253-0.494,0.438-0.872,0.559v0.071c0.419,0.09,0.751,0.273,0.994,0.549
	c0.243,0.276,0.364,0.604,0.364,0.98c0,0.648-0.253,1.139-0.76,1.472C235.219,371.021,234.47,371.187,233.48,371.187z"/>
<path fill="#4B2E83" d="M237.088,370.054c0-0.379,0.062-0.697,0.187-0.958c0.121-0.261,0.282-0.484,0.48-0.671
	s0.425-0.344,0.679-0.473c0.256-0.129,0.515-0.25,0.78-0.364c0.161-0.065,0.308-0.134,0.44-0.202
	c0.131-0.069,0.244-0.142,0.337-0.221s0.166-0.165,0.22-0.261c0.054-0.097,0.081-0.203,0.081-0.324c0-0.229-0.09-0.393-0.269-0.494
	c-0.183-0.102-0.473-0.153-0.874-0.153c-0.149,0-0.306,0.007-0.468,0.022s-0.319,0.032-0.473,0.053
	c-0.152,0.021-0.297,0.045-0.432,0.068c-0.135,0.024-0.257,0.046-0.364,0.062l-0.127-1.582c0.504-0.079,0.942-0.135,1.313-0.173
	c0.373-0.036,0.715-0.054,1.026-0.054c0.924,0,1.603,0.169,2.034,0.505c0.433,0.336,0.647,0.847,0.647,1.53
	c0,0.311-0.046,0.589-0.141,0.831c-0.092,0.243-0.216,0.458-0.373,0.645c-0.155,0.185-0.331,0.347-0.529,0.485
	c-0.198,0.138-0.405,0.26-0.622,0.368c-0.354,0.18-0.632,0.316-0.836,0.409c-0.203,0.094-0.307,0.194-0.307,0.303v0.116h2.79v1.557
	h-5.202V370.054z"/>
<path fill="#4B2E83" d="M244.046,371.169c-0.338,0-0.602-0.082-0.794-0.243s-0.287-0.416-0.287-0.766
	c0-0.347,0.095-0.601,0.287-0.76c0.192-0.158,0.456-0.238,0.794-0.238c0.335,0,0.6,0.08,0.79,0.238
	c0.193,0.159,0.288,0.413,0.288,0.76c0,0.35-0.095,0.604-0.288,0.766C244.646,371.087,244.381,371.169,244.046,371.169z"/>
<path fill="#4B2E83" d="M248.688,371.169c-0.948,0-1.678-0.264-2.191-0.792c-0.513-0.527-0.77-1.301-0.77-2.321
	c0-2.483,1.289-3.726,3.869-3.726c0.239,0,0.491,0.015,0.752,0.046c0.261,0.029,0.538,0.073,0.832,0.135l-0.243,1.402
	c-0.27-0.047-0.504-0.081-0.701-0.103c-0.198-0.021-0.386-0.031-0.558-0.031c-0.582,0-1.021,0.104-1.314,0.314
	s-0.482,0.567-0.566,1.071c0.174-0.119,0.38-0.214,0.619-0.283c0.241-0.07,0.506-0.104,0.793-0.104c0.365,0,0.696,0.047,0.99,0.144
	c0.294,0.096,0.545,0.231,0.756,0.405c0.209,0.174,0.371,0.387,0.485,0.638c0.114,0.253,0.172,0.532,0.172,0.839
	c0,0.365-0.068,0.696-0.203,0.988c-0.136,0.295-0.329,0.543-0.581,0.747c-0.251,0.204-0.557,0.361-0.916,0.468
	C249.551,371.115,249.144,371.169,248.688,371.169z M248.688,368.02c-0.18,0-0.358,0.031-0.535,0.094
	c-0.178,0.064-0.316,0.141-0.42,0.23c0.025,0.498,0.111,0.854,0.262,1.071c0.15,0.216,0.381,0.323,0.693,0.323
	c0.3,0,0.518-0.07,0.655-0.212c0.14-0.141,0.208-0.364,0.208-0.67c0-0.3-0.067-0.514-0.202-0.643
	C249.212,368.084,248.994,368.02,248.688,368.02z"/>
<path fill="#4B2E83" d="M254.148,368.586c-0.672,0-1.189-0.174-1.552-0.525c-0.363-0.352-0.544-0.884-0.544-1.598
	s0.183-1.25,0.549-1.606c0.365-0.357,0.882-0.535,1.547-0.535c0.672,0,1.189,0.178,1.553,0.535c0.362,0.356,0.545,0.893,0.545,1.606
	s-0.183,1.246-0.545,1.598C255.338,368.412,254.82,368.586,254.148,368.586z M254.148,367.408c0.246,0,0.423-0.063,0.531-0.189
	s0.162-0.379,0.162-0.756c0-0.192-0.014-0.351-0.04-0.472c-0.027-0.124-0.069-0.222-0.122-0.293
	c-0.054-0.071-0.125-0.121-0.211-0.148c-0.088-0.027-0.193-0.041-0.32-0.041c-0.252,0-0.432,0.064-0.539,0.194
	c-0.108,0.129-0.162,0.383-0.162,0.76s0.054,0.63,0.162,0.756C253.717,367.345,253.896,367.408,254.148,367.408z M257.838,364.422
	h1.664l-3.104,6.657h-1.666L257.838,364.422z M260.105,371.169c-0.672,0-1.189-0.178-1.552-0.532
	c-0.364-0.353-0.545-0.886-0.545-1.6s0.183-1.249,0.549-1.602c0.366-0.354,0.882-0.531,1.548-0.531c0.672,0,1.189,0.177,1.552,0.531
	c0.364,0.353,0.546,0.888,0.546,1.602s-0.182,1.247-0.546,1.6C261.295,370.991,260.777,371.169,260.105,371.169z M260.105,369.99
	c0.126,0,0.232-0.013,0.319-0.04c0.087-0.026,0.157-0.076,0.212-0.148c0.053-0.072,0.094-0.17,0.121-0.293s0.041-0.281,0.041-0.472
	c0-0.378-0.054-0.632-0.162-0.761s-0.285-0.192-0.531-0.192c-0.252,0-0.433,0.063-0.539,0.192c-0.108,0.129-0.163,0.383-0.163,0.761
	s0.055,0.631,0.163,0.76C259.673,369.927,259.854,369.99,260.105,369.99z"/>
<path fill="#4B2E83" d="M266.309,188.175c-0.048,0.006-0.097,0.011-0.146,0.011c-0.05,0-0.103,0-0.157,0h-0.153v1.09h-1.081v-3.531
	c0.412-0.048,0.806-0.074,1.178-0.074c0.346,0,0.644,0.026,0.893,0.074c0.251,0.048,0.455,0.121,0.616,0.222
	c0.159,0.101,0.277,0.232,0.353,0.392c0.075,0.161,0.114,0.352,0.114,0.574c0,0.495-0.226,0.844-0.674,1.046l0.855,1.298h-1.21
	L266.309,188.175z M266.16,187.368c0.127,0,0.235-0.007,0.321-0.022c0.087-0.014,0.155-0.038,0.205-0.071
	c0.049-0.034,0.085-0.079,0.106-0.136c0.02-0.056,0.029-0.124,0.029-0.207c0-0.085-0.008-0.154-0.028-0.21
	c-0.019-0.058-0.052-0.102-0.099-0.133s-0.109-0.055-0.191-0.067c-0.082-0.012-0.186-0.02-0.312-0.02
	c-0.044,0-0.101,0.003-0.169,0.006c-0.069,0.003-0.127,0.008-0.171,0.014v0.822c0.036,0.011,0.075,0.017,0.12,0.02
	C266.019,187.366,266.08,187.368,266.16,187.368z"/>
<path fill="#4B2E83" d="M270.073,189.323c-0.328,0-0.603-0.031-0.823-0.096s-0.398-0.159-0.533-0.286s-0.23-0.285-0.289-0.476
	c-0.057-0.191-0.087-0.414-0.087-0.67v-2.085h1.082v2.118c0,0.201,0.051,0.358,0.151,0.47c0.1,0.108,0.268,0.164,0.499,0.164
	s0.399-0.056,0.498-0.164c0.1-0.111,0.149-0.269,0.149-0.47v-2.118h1.081v2.085c0,0.256-0.028,0.479-0.087,0.67
	c-0.058,0.19-0.154,0.349-0.288,0.478s-0.312,0.224-0.532,0.286C270.673,189.292,270.398,189.323,270.073,189.323z"/>
<path fill="#4B2E83" d="M273.633,189.333c-0.102,0-0.214-0.003-0.33-0.01c-0.117-0.006-0.235-0.016-0.361-0.031
	c-0.122-0.014-0.245-0.029-0.365-0.048c-0.123-0.017-0.238-0.039-0.347-0.063v-0.865c0.259,0.056,0.495,0.101,0.706,0.131
	c0.213,0.029,0.408,0.045,0.592,0.045c0.191,0,0.326-0.017,0.405-0.052s0.118-0.095,0.118-0.178c0-0.094-0.043-0.161-0.133-0.204
	c-0.087-0.044-0.227-0.078-0.415-0.104c-0.202-0.029-0.381-0.071-0.536-0.128c-0.155-0.056-0.286-0.132-0.391-0.226
	c-0.106-0.094-0.187-0.21-0.238-0.347c-0.052-0.135-0.08-0.298-0.08-0.485c0-0.348,0.134-0.615,0.402-0.809
	c0.267-0.192,0.641-0.29,1.121-0.29c0.084,0,0.166,0.003,0.248,0.009c0.081,0.005,0.169,0.012,0.264,0.023s0.197,0.026,0.309,0.045
	c0.109,0.017,0.235,0.039,0.377,0.068v0.855c-0.084-0.025-0.171-0.047-0.265-0.068c-0.093-0.019-0.186-0.036-0.281-0.05
	c-0.095-0.015-0.188-0.024-0.278-0.034c-0.092-0.007-0.175-0.011-0.253-0.011c-0.343,0-0.515,0.078-0.515,0.235
	c0,0.102,0.048,0.181,0.145,0.235c0.098,0.055,0.25,0.101,0.463,0.136c0.2,0.034,0.376,0.08,0.522,0.135
	c0.147,0.058,0.27,0.127,0.367,0.21s0.171,0.184,0.219,0.301c0.049,0.116,0.071,0.254,0.071,0.41
	C275.174,188.945,274.661,189.333,273.633,189.333z"/>
<path fill="#4B2E83" d="M276.853,189.333c-0.103,0-0.214-0.003-0.329-0.01c-0.117-0.006-0.236-0.016-0.361-0.031
	c-0.123-0.014-0.246-0.029-0.367-0.048c-0.121-0.017-0.237-0.039-0.346-0.063v-0.865c0.26,0.056,0.495,0.101,0.707,0.131
	c0.211,0.029,0.407,0.045,0.59,0.045c0.192,0,0.328-0.017,0.406-0.052c0.079-0.035,0.118-0.095,0.118-0.178
	c0-0.094-0.044-0.161-0.132-0.204c-0.088-0.044-0.228-0.078-0.416-0.104c-0.202-0.029-0.381-0.071-0.536-0.128
	c-0.155-0.056-0.286-0.132-0.392-0.226s-0.186-0.21-0.237-0.347c-0.053-0.135-0.08-0.298-0.08-0.485
	c0-0.348,0.134-0.615,0.401-0.809c0.268-0.192,0.642-0.29,1.121-0.29c0.084,0,0.167,0.003,0.249,0.009
	c0.081,0.005,0.169,0.012,0.264,0.023s0.197,0.026,0.308,0.045c0.11,0.017,0.236,0.039,0.377,0.068v0.855
	c-0.083-0.025-0.17-0.047-0.264-0.068c-0.092-0.019-0.187-0.036-0.28-0.05c-0.096-0.015-0.188-0.024-0.28-0.034
	c-0.091-0.007-0.175-0.011-0.252-0.011c-0.343,0-0.514,0.078-0.514,0.235c0,0.102,0.049,0.181,0.144,0.235
	c0.097,0.055,0.249,0.101,0.462,0.136c0.201,0.034,0.376,0.08,0.524,0.135c0.147,0.058,0.269,0.127,0.366,0.21
	s0.172,0.184,0.22,0.301c0.047,0.116,0.071,0.254,0.071,0.41C278.395,188.945,277.882,189.333,276.853,189.333z"/>
<path fill="#4B2E83" d="M278.793,185.72h1.082v3.556h-1.082V185.72z"/>
<path fill="#4B2E83" d="M280.148,189.222l1.095-3.502h1.606l1.095,3.502v0.054h-1.042l-0.217-0.726h-1.283l-0.211,0.726h-1.043
	V189.222z M282.45,187.727l-0.149-0.527l-0.211-0.745h-0.087l-0.215,0.756l-0.145,0.517H282.45z"/>
<path fill="#4B2E83" d="M264.767,197.235c0-0.379,0.062-0.697,0.185-0.959c0.123-0.26,0.283-0.484,0.481-0.669
	c0.198-0.188,0.424-0.346,0.678-0.473c0.257-0.13,0.516-0.251,0.78-0.366c0.162-0.064,0.309-0.133,0.439-0.201
	c0.132-0.069,0.245-0.143,0.338-0.221c0.094-0.078,0.167-0.165,0.221-0.262s0.081-0.203,0.081-0.323c0-0.229-0.089-0.393-0.27-0.494
	s-0.473-0.154-0.874-0.154c-0.149,0-0.305,0.008-0.467,0.023c-0.162,0.015-0.319,0.033-0.473,0.054
	c-0.153,0.02-0.297,0.044-0.432,0.066c-0.136,0.025-0.257,0.045-0.365,0.064l-0.125-1.584c0.504-0.078,0.941-0.134,1.314-0.172
	c0.372-0.036,0.713-0.053,1.024-0.053c0.924,0,1.602,0.167,2.033,0.504c0.433,0.336,0.648,0.844,0.648,1.529
	c0,0.312-0.046,0.588-0.14,0.832c-0.094,0.243-0.217,0.458-0.373,0.645c-0.157,0.185-0.332,0.347-0.531,0.484
	c-0.198,0.139-0.405,0.262-0.621,0.369c-0.354,0.18-0.633,0.317-0.836,0.408c-0.206,0.095-0.307,0.195-0.307,0.304v0.116h2.789
	v1.558h-5.2V197.235z"/>
<path fill="#4B2E83" d="M272.595,198.378c-0.294,0-0.594-0.016-0.899-0.046c-0.306-0.029-0.622-0.065-0.945-0.108v-1.493h0.432
	c0.211,0.042,0.407,0.071,0.589,0.086c0.184,0.015,0.368,0.022,0.555,0.022c0.433,0,0.751-0.044,0.962-0.135
	s0.316-0.282,0.316-0.576c0-0.126-0.032-0.227-0.096-0.306c-0.062-0.078-0.168-0.141-0.313-0.189
	c-0.147-0.048-0.347-0.081-0.596-0.099s-0.558-0.027-0.931-0.027h-0.684l-0.18-0.171l0.278-3.732h4.193v1.546h-2.718l-0.044,0.946
	c0.525,0.005,0.991,0.044,1.39,0.116c0.398,0.071,0.73,0.188,0.998,0.351s0.468,0.377,0.604,0.644
	c0.135,0.266,0.202,0.602,0.202,1.003c0,0.419-0.089,0.77-0.266,1.048c-0.177,0.279-0.413,0.501-0.706,0.666
	c-0.294,0.165-0.627,0.282-0.999,0.351C273.365,198.343,272.984,198.378,272.595,198.378z"/>
<path fill="#4B2E83" d="M277.301,198.351c-0.336,0-0.601-0.081-0.793-0.243c-0.191-0.162-0.286-0.417-0.286-0.765
	s0.095-0.602,0.286-0.762c0.192-0.157,0.457-0.236,0.793-0.236s0.6,0.079,0.791,0.236c0.192,0.16,0.289,0.414,0.289,0.762
	s-0.097,0.603-0.289,0.765C277.9,198.27,277.637,198.351,277.301,198.351z"/>
<path fill="#4B2E83" d="M281.943,198.351c-0.948,0-1.678-0.264-2.191-0.793c-0.513-0.525-0.77-1.299-0.77-2.32
	c0-2.483,1.291-3.725,3.87-3.725c0.239,0,0.489,0.015,0.751,0.045c0.261,0.029,0.538,0.073,0.832,0.134l-0.243,1.403
	c-0.27-0.047-0.504-0.082-0.7-0.103c-0.199-0.021-0.384-0.031-0.559-0.031c-0.583,0-1.021,0.104-1.314,0.314
	c-0.294,0.21-0.482,0.567-0.567,1.071c0.175-0.12,0.382-0.214,0.621-0.283c0.239-0.068,0.506-0.104,0.792-0.104
	c0.366,0,0.696,0.049,0.99,0.145s0.545,0.231,0.755,0.405s0.372,0.387,0.487,0.638c0.113,0.253,0.17,0.531,0.17,0.838
	c0,0.366-0.066,0.697-0.202,0.99c-0.135,0.294-0.328,0.543-0.58,0.746c-0.253,0.204-0.558,0.36-0.918,0.467
	C282.806,198.298,282.399,198.351,281.943,198.351z M281.943,195.201c-0.18,0-0.359,0.031-0.535,0.095
	c-0.179,0.062-0.316,0.14-0.419,0.229c0.024,0.498,0.11,0.854,0.261,1.07c0.151,0.216,0.381,0.323,0.693,0.323
	c0.301,0,0.519-0.069,0.655-0.211c0.14-0.141,0.207-0.363,0.207-0.67c0-0.3-0.065-0.516-0.202-0.644
	C282.469,195.267,282.249,195.201,281.943,195.201z"/>
<path fill="#4B2E83" d="M287.405,195.769c-0.673,0-1.19-0.176-1.554-0.526c-0.362-0.351-0.543-0.884-0.543-1.598
	s0.182-1.249,0.549-1.607c0.365-0.356,0.882-0.534,1.548-0.534c0.671,0,1.188,0.178,1.552,0.534
	c0.363,0.358,0.543,0.894,0.543,1.607s-0.18,1.247-0.543,1.598S288.076,195.769,287.405,195.769z M287.405,194.589
	c0.246,0,0.423-0.062,0.53-0.188s0.162-0.378,0.162-0.756c0-0.192-0.015-0.35-0.04-0.472c-0.028-0.124-0.066-0.221-0.122-0.293
	c-0.054-0.072-0.125-0.121-0.211-0.147c-0.088-0.028-0.194-0.041-0.319-0.041c-0.253,0-0.433,0.063-0.539,0.193
	c-0.11,0.128-0.163,0.383-0.163,0.76c0,0.378,0.053,0.63,0.163,0.756C286.973,194.526,287.152,194.589,287.405,194.589z
	 M291.094,191.604h1.665l-3.104,6.658h-1.663L291.094,191.604z M293.362,198.351c-0.673,0-1.19-0.178-1.553-0.53
	c-0.363-0.354-0.544-0.888-0.544-1.604c0-0.714,0.181-1.245,0.549-1.601c0.365-0.354,0.881-0.531,1.548-0.531
	c0.671,0,1.189,0.178,1.551,0.531c0.363,0.355,0.544,0.887,0.544,1.601c0,0.716-0.181,1.25-0.544,1.604
	C294.552,198.173,294.033,198.351,293.362,198.351z M293.362,197.172c0.124,0,0.231-0.015,0.318-0.04
	c0.087-0.027,0.157-0.077,0.212-0.148c0.054-0.072,0.093-0.17,0.121-0.293c0.026-0.123,0.04-0.28,0.04-0.474
	c0-0.376-0.054-0.63-0.161-0.76c-0.107-0.127-0.284-0.192-0.53-0.192c-0.253,0-0.433,0.065-0.539,0.192
	c-0.109,0.13-0.164,0.384-0.164,0.76c0,0.379,0.055,0.633,0.164,0.762C292.93,197.107,293.109,197.172,293.362,197.172z"/>
<path fill="#4B2E83" d="M283.571,254.08c0.069-0.16,0.13-0.31,0.176-0.446c0.046-0.14,0.082-0.274,0.11-0.407
	c0.026-0.132,0.047-0.269,0.058-0.408s0.017-0.292,0.017-0.46v-2.59h1.086v2.679c0,0.169-0.014,0.329-0.039,0.481
	s-0.068,0.304-0.129,0.454s-0.141,0.307-0.236,0.468c-0.096,0.163-0.214,0.338-0.355,0.526L283.571,254.08z"/>
<path fill="#4B2E83" d="M285.272,253.272l1.096-3.504h1.604l1.096,3.504v0.054h-1.042l-0.216-0.727h-1.283l-0.213,0.727h-1.042
	V253.272z M287.574,251.778l-0.149-0.529l-0.211-0.743h-0.087l-0.216,0.753l-0.143,0.52H287.574z"/>
<path fill="#4B2E83" d="M289.337,249.793c0.417-0.048,0.81-0.071,1.179-0.071c0.348,0,0.647,0.024,0.896,0.074
	c0.248,0.05,0.451,0.128,0.612,0.235c0.16,0.106,0.278,0.243,0.352,0.412c0.076,0.165,0.114,0.366,0.114,0.601
	c0,0.887-0.648,1.329-1.941,1.329h-0.13v0.953h-1.082V249.793z M290.727,251.543c0.129,0,0.234-0.008,0.322-0.024
	c0.086-0.016,0.154-0.043,0.204-0.081c0.048-0.039,0.085-0.092,0.105-0.154c0.021-0.065,0.032-0.145,0.032-0.239
	c0-0.098-0.01-0.177-0.027-0.238c-0.018-0.062-0.05-0.113-0.096-0.149c-0.047-0.036-0.111-0.063-0.192-0.079
	c-0.082-0.017-0.187-0.024-0.315-0.024c-0.051,0-0.111,0.003-0.179,0.005c-0.07,0.003-0.124,0.007-0.162,0.014v0.947
	c0.048,0.007,0.098,0.013,0.148,0.017C290.618,251.54,290.672,251.543,290.727,251.543z"/>
<path fill="#4B2E83" d="M292.355,253.272l1.095-3.504h1.606l1.095,3.504v0.054h-1.042l-0.217-0.727h-1.283l-0.211,0.727h-1.043
	V253.272z M294.657,251.778l-0.149-0.529l-0.211-0.743h-0.087l-0.215,0.753l-0.145,0.52H294.657z"/>
<path fill="#4B2E83" d="M296.42,249.769h0.852l1.292,1.568l0.289,0.397h0.048v-1.966h0.941v3.558h-0.851l-1.245-1.519l-0.336-0.452
	h-0.047v1.971h-0.943V249.769z"/>
<path fill="#4B2E83" d="M284.986,261.866c-0.335,0-0.599-0.08-0.791-0.242c-0.19-0.162-0.288-0.418-0.288-0.766
	s0.098-0.602,0.288-0.761c0.192-0.158,0.456-0.239,0.791-0.239c0.337,0,0.601,0.081,0.793,0.239
	c0.193,0.159,0.288,0.413,0.288,0.761s-0.095,0.604-0.288,0.766C285.587,261.786,285.323,261.866,284.986,261.866z"/>
<path fill="#4B2E83" d="M289.568,261.848c-0.529,0-0.977-0.04-1.346-0.121c-0.369-0.08-0.671-0.197-0.904-0.352
	c-0.234-0.152-0.404-0.341-0.514-0.562c-0.107-0.223-0.162-0.471-0.162-0.746c0-0.721,0.354-1.261,1.062-1.619
	c-0.24-0.158-0.437-0.36-0.59-0.608c-0.154-0.249-0.229-0.584-0.229-1.005c0-0.269,0.065-0.515,0.198-0.737
	c0.133-0.221,0.32-0.41,0.563-0.565c0.24-0.155,0.536-0.277,0.881-0.365c0.345-0.086,0.727-0.13,1.147-0.13
	c0.4,0,0.763,0.044,1.084,0.13c0.32,0.088,0.592,0.21,0.814,0.365s0.392,0.345,0.508,0.565c0.117,0.223,0.176,0.469,0.176,0.737
	c0,0.319-0.059,0.582-0.176,0.789c-0.116,0.208-0.33,0.404-0.643,0.589c0.138,0.072,0.267,0.156,0.387,0.253
	c0.119,0.097,0.223,0.207,0.311,0.337c0.087,0.129,0.155,0.278,0.207,0.45c0.051,0.169,0.076,0.363,0.076,0.58
	c0,0.312-0.053,0.592-0.157,0.84c-0.104,0.25-0.273,0.463-0.501,0.636c-0.227,0.174-0.522,0.308-0.885,0.4
	C290.514,261.802,290.076,261.848,289.568,261.848z M289.09,258.951c-0.168,0.112-0.303,0.241-0.404,0.383s-0.152,0.301-0.152,0.481
	c0,0.238,0.095,0.42,0.283,0.544c0.188,0.123,0.438,0.184,0.752,0.184c0.311,0,0.55-0.051,0.716-0.152
	c0.163-0.102,0.247-0.253,0.247-0.451c0-0.154-0.037-0.284-0.109-0.386c-0.071-0.102-0.17-0.188-0.293-0.261
	c-0.122-0.072-0.268-0.132-0.436-0.18c-0.168-0.05-0.346-0.098-0.53-0.145L289.09,258.951z M288.658,256.954
	c0,0.133,0.037,0.242,0.108,0.328c0.071,0.087,0.17,0.162,0.292,0.225c0.123,0.062,0.268,0.116,0.432,0.156
	c0.166,0.043,0.344,0.085,0.535,0.127c0.162-0.127,0.279-0.26,0.352-0.399c0.073-0.142,0.109-0.281,0.109-0.419
	c0-0.193-0.085-0.346-0.255-0.459c-0.167-0.113-0.388-0.171-0.663-0.171c-0.277,0-0.498,0.053-0.662,0.162
	C288.741,256.611,288.658,256.762,288.658,256.954z"/>
<path fill="#4B2E83" d="M295.082,259.284c-0.671,0-1.189-0.177-1.551-0.525c-0.363-0.353-0.545-0.885-0.545-1.599
	c0-0.713,0.184-1.248,0.548-1.606c0.368-0.356,0.883-0.535,1.548-0.535c0.673,0,1.188,0.179,1.554,0.535
	c0.362,0.358,0.544,0.894,0.544,1.606c0,0.714-0.182,1.246-0.544,1.599C296.271,259.107,295.755,259.284,295.082,259.284z
	 M295.082,258.104c0.246,0,0.423-0.062,0.531-0.188s0.162-0.378,0.162-0.756c0-0.192-0.014-0.35-0.04-0.473
	c-0.026-0.122-0.067-0.22-0.122-0.293c-0.054-0.071-0.124-0.12-0.211-0.148c-0.086-0.026-0.194-0.039-0.32-0.039
	c-0.251,0-0.431,0.064-0.539,0.194c-0.106,0.128-0.162,0.38-0.162,0.759c0,0.378,0.056,0.63,0.162,0.756
	C294.651,258.042,294.831,258.104,295.082,258.104z M298.771,255.118h1.664l-3.104,6.658h-1.664L298.771,255.118z M301.039,261.866
	c-0.671,0-1.189-0.177-1.552-0.531s-0.544-0.887-0.544-1.6c0-0.716,0.183-1.25,0.549-1.604c0.366-0.353,0.88-0.529,1.547-0.529
	c0.672,0,1.188,0.177,1.554,0.529c0.361,0.354,0.544,0.889,0.544,1.604c0,0.713-0.183,1.245-0.544,1.6
	C302.228,261.689,301.711,261.866,301.039,261.866z M301.039,260.687c0.125,0,0.234-0.014,0.319-0.039
	c0.088-0.027,0.159-0.077,0.212-0.148c0.054-0.072,0.095-0.17,0.121-0.293c0.027-0.123,0.041-0.281,0.041-0.471
	c0-0.379-0.054-0.633-0.162-0.762c-0.108-0.128-0.284-0.193-0.531-0.193c-0.252,0-0.432,0.065-0.539,0.193
	c-0.108,0.129-0.162,0.383-0.162,0.762c0,0.377,0.054,0.63,0.162,0.759C300.607,260.623,300.787,260.687,301.039,260.687z"/>
<path fill="#4B2E83" d="M287.402,274.247c-0.641,0-1.117-0.148-1.428-0.448s-0.466-0.764-0.466-1.393
	c0-0.631,0.149-1.097,0.449-1.397c0.298-0.3,0.752-0.451,1.357-0.451c0.112,0,0.234,0.007,0.366,0.018
	c0.135,0.01,0.297,0.027,0.489,0.055v0.85c-0.106-0.009-0.194-0.017-0.267-0.023c-0.072-0.008-0.135-0.012-0.188-0.015
	c-0.052-0.002-0.1-0.005-0.141-0.008c-0.039-0.002-0.08-0.002-0.12-0.002c-0.174,0-0.314,0.013-0.422,0.036
	c-0.107,0.024-0.192,0.072-0.252,0.142c-0.06,0.072-0.103,0.17-0.125,0.297c-0.022,0.13-0.033,0.296-0.033,0.5
	s0.011,0.366,0.033,0.49c0.022,0.126,0.065,0.223,0.125,0.291c0.06,0.069,0.145,0.117,0.252,0.142
	c0.107,0.028,0.244,0.039,0.411,0.039c0.055,0,0.115-0.001,0.182-0.005c0.068-0.003,0.137-0.006,0.203-0.014
	c0.066-0.007,0.13-0.014,0.189-0.021c0.059-0.007,0.109-0.014,0.151-0.022v0.854c-0.118,0.026-0.243,0.047-0.374,0.063
	C287.666,274.24,287.533,274.247,287.402,274.247z"/>
<path fill="#4B2E83" d="M288.302,274.128l1.094-3.502h1.605l1.096,3.502v0.053h-1.044l-0.215-0.726h-1.283l-0.211,0.726h-1.042
	V274.128z M290.603,272.633l-0.149-0.528l-0.211-0.744h-0.087l-0.217,0.753l-0.143,0.52H290.603z"/>
<path fill="#4B2E83" d="M292.364,270.626h0.854l1.291,1.565l0.288,0.398h0.049v-1.964h0.941v3.555h-0.851l-1.244-1.519l-0.337-0.452
	h-0.049v1.971h-0.942V270.626z"/>
<path fill="#4B2E83" d="M296.057,274.128l1.096-3.502h1.604l1.096,3.502v0.053h-1.042l-0.216-0.726h-1.283l-0.211,0.726h-1.043
	V274.128z M298.358,272.633l-0.149-0.528l-0.21-0.744h-0.088l-0.216,0.753l-0.145,0.52H298.358z"/>
<path fill="#4B2E83" d="M301.246,274.233c-0.195,0-0.395-0.006-0.596-0.017c-0.202-0.012-0.379-0.026-0.529-0.046v-3.541
	c0.309-0.016,0.567-0.029,0.779-0.039c0.211-0.01,0.396-0.015,0.557-0.015c0.366,0,0.678,0.036,0.94,0.105
	c0.261,0.071,0.475,0.181,0.644,0.327c0.168,0.147,0.292,0.337,0.373,0.568c0.08,0.233,0.119,0.511,0.119,0.829
	c0,0.33-0.041,0.611-0.125,0.842c-0.082,0.231-0.215,0.419-0.399,0.565c-0.181,0.146-0.418,0.252-0.708,0.319
	S301.66,274.233,301.246,274.233z M301.684,273.382c0.145,0,0.263-0.014,0.359-0.043c0.097-0.026,0.174-0.079,0.231-0.155
	c0.058-0.075,0.098-0.175,0.12-0.301c0.022-0.125,0.034-0.284,0.034-0.477c0-0.187-0.013-0.345-0.04-0.47
	c-0.024-0.125-0.068-0.226-0.131-0.3c-0.062-0.076-0.145-0.129-0.248-0.162c-0.101-0.031-0.23-0.048-0.384-0.048
	c-0.055,0-0.114,0.002-0.178,0.005c-0.063,0.002-0.147,0.009-0.251,0.015v1.903c0.075,0.013,0.154,0.021,0.238,0.026
	C301.521,273.38,301.603,273.382,301.684,273.382z"/>
<path fill="#4B2E83" d="M303.567,274.128l1.096-3.502h1.604l1.096,3.502v0.053h-1.042l-0.217-0.726h-1.283l-0.211,0.726h-1.043
	V274.128z M305.869,272.633l-0.148-0.528l-0.212-0.744h-0.087l-0.217,0.753l-0.143,0.52H305.869z"/>
<path fill="#4B2E83" d="M287.204,278.08h-0.036l-1.439,0.297h-0.099l-0.224-1.153l0.017-0.082l2.276-1.169h1.53v6.659h-2.025V278.08
	z"/>
<path fill="#4B2E83" d="M291.299,282.722c-0.336,0-0.6-0.081-0.793-0.243c-0.192-0.162-0.287-0.418-0.287-0.765
	c0-0.348,0.095-0.602,0.287-0.762c0.193-0.157,0.457-0.237,0.793-0.237s0.6,0.08,0.791,0.237c0.192,0.16,0.289,0.414,0.289,0.762
	c0,0.347-0.097,0.603-0.289,0.765C291.898,282.641,291.635,282.722,291.299,282.722z"/>
<path fill="#4B2E83" d="M295.878,282.703c-0.528,0-0.977-0.04-1.344-0.122c-0.37-0.08-0.67-0.197-0.905-0.349
	c-0.233-0.155-0.405-0.341-0.513-0.563c-0.108-0.222-0.162-0.471-0.162-0.747c0-0.72,0.354-1.26,1.062-1.619
	c-0.24-0.157-0.436-0.359-0.59-0.608c-0.152-0.248-0.229-0.583-0.229-1.003c0-0.27,0.067-0.516,0.198-0.736
	c0.132-0.223,0.319-0.412,0.562-0.567c0.243-0.156,0.537-0.278,0.882-0.366c0.345-0.086,0.728-0.129,1.147-0.129
	c0.402,0,0.764,0.043,1.084,0.129c0.321,0.088,0.593,0.21,0.814,0.366c0.222,0.155,0.393,0.345,0.51,0.567
	c0.116,0.221,0.174,0.467,0.174,0.736c0,0.317-0.058,0.581-0.174,0.787c-0.117,0.207-0.333,0.404-0.645,0.59
	c0.138,0.072,0.268,0.156,0.387,0.252c0.12,0.096,0.224,0.208,0.311,0.337c0.088,0.13,0.156,0.279,0.207,0.449
	c0.051,0.173,0.076,0.365,0.076,0.581c0,0.312-0.053,0.592-0.157,0.843c-0.106,0.248-0.271,0.46-0.499,0.634
	c-0.229,0.174-0.523,0.308-0.887,0.398C296.824,282.657,296.389,282.703,295.878,282.703z M295.4,279.807
	c-0.167,0.113-0.302,0.241-0.404,0.382c-0.102,0.142-0.152,0.302-0.152,0.482c0,0.239,0.096,0.421,0.283,0.543
	c0.189,0.123,0.439,0.186,0.751,0.186c0.313,0,0.55-0.053,0.716-0.154c0.165-0.102,0.246-0.252,0.246-0.449
	c0-0.156-0.036-0.285-0.105-0.387c-0.073-0.102-0.171-0.19-0.293-0.261c-0.123-0.072-0.27-0.132-0.438-0.181
	c-0.168-0.048-0.344-0.096-0.531-0.144L295.4,279.807z M294.969,277.809c0,0.132,0.037,0.241,0.108,0.328
	c0.072,0.088,0.17,0.162,0.293,0.226c0.123,0.062,0.267,0.115,0.433,0.158c0.164,0.04,0.343,0.082,0.536,0.124
	c0.16-0.124,0.277-0.259,0.35-0.399c0.07-0.142,0.107-0.28,0.107-0.419c0-0.192-0.084-0.345-0.252-0.458
	c-0.167-0.113-0.39-0.173-0.666-0.173c-0.275,0-0.496,0.057-0.66,0.163C295.052,277.467,294.969,277.617,294.969,277.809z"/>
<path fill="#4B2E83" d="M301.393,280.14c-0.67,0-1.188-0.177-1.551-0.526c-0.363-0.353-0.545-0.883-0.545-1.598
	c0-0.713,0.184-1.249,0.55-1.606c0.366-0.356,0.882-0.535,1.546-0.535c0.673,0,1.189,0.179,1.555,0.535
	c0.361,0.357,0.543,0.894,0.543,1.606c0,0.715-0.182,1.245-0.543,1.598C302.582,279.963,302.065,280.14,301.393,280.14z
	 M301.393,278.96c0.246,0,0.425-0.062,0.532-0.188c0.107-0.127,0.162-0.378,0.162-0.756c0-0.192-0.014-0.351-0.04-0.472
	c-0.027-0.124-0.068-0.222-0.122-0.292c-0.053-0.074-0.124-0.122-0.21-0.148c-0.088-0.028-0.194-0.042-0.322-0.042
	c-0.25,0-0.431,0.064-0.538,0.193c-0.108,0.129-0.161,0.384-0.161,0.761c0,0.378,0.053,0.629,0.161,0.756
	C300.962,278.897,301.143,278.96,301.393,278.96z M305.084,275.973h1.664l-3.105,6.659h-1.664L305.084,275.973z M307.35,282.722
	c-0.672,0-1.188-0.177-1.551-0.531c-0.363-0.353-0.546-0.887-0.546-1.602c0-0.714,0.184-1.249,0.549-1.603
	c0.368-0.353,0.882-0.53,1.548-0.53c0.673,0,1.189,0.178,1.554,0.53c0.362,0.354,0.544,0.889,0.544,1.603
	c0,0.715-0.182,1.249-0.544,1.602C308.539,282.545,308.022,282.722,307.35,282.722z M307.35,281.542c0.127,0,0.232-0.012,0.321-0.04
	c0.085-0.027,0.157-0.076,0.211-0.147c0.054-0.073,0.096-0.171,0.122-0.293c0.026-0.123,0.039-0.279,0.039-0.473
	c0-0.378-0.054-0.631-0.161-0.762c-0.108-0.128-0.286-0.192-0.532-0.192c-0.25,0-0.432,0.064-0.539,0.192
	c-0.107,0.131-0.162,0.384-0.162,0.762s0.055,0.632,0.162,0.761C306.918,281.479,307.1,281.542,307.35,281.542z"/>
<path fill="#4B2E83" d="M281.475,294.133h1.081v2.73h1.461v0.827h-2.542V294.133z"/>
<path fill="#4B2E83" d="M286.002,297.736c-0.604,0-1.057-0.152-1.365-0.46c-0.307-0.309-0.461-0.761-0.461-1.36
	c0-0.605,0.154-1.062,0.461-1.37c0.309-0.306,0.762-0.461,1.365-0.461c0.598,0,1.053,0.155,1.361,0.464
	c0.31,0.31,0.464,0.766,0.464,1.367c0,0.6-0.154,1.052-0.464,1.36C287.055,297.584,286.6,297.736,286.002,297.736z M286.002,296.882
	c0.144,0,0.262-0.015,0.354-0.041s0.167-0.075,0.222-0.146c0.055-0.07,0.093-0.168,0.113-0.293c0.02-0.125,0.031-0.286,0.031-0.485
	c0-0.192-0.013-0.351-0.036-0.478c-0.025-0.128-0.062-0.228-0.118-0.301c-0.055-0.073-0.128-0.126-0.22-0.154
	c-0.094-0.027-0.21-0.042-0.347-0.042c-0.139,0-0.254,0.015-0.347,0.042c-0.093,0.028-0.166,0.081-0.221,0.154
	s-0.094,0.173-0.118,0.298c-0.023,0.126-0.037,0.285-0.037,0.48s0.012,0.354,0.035,0.48c0.021,0.125,0.061,0.224,0.115,0.296
	s0.128,0.122,0.221,0.148S285.86,296.882,286.002,296.882z"/>
<path fill="#4B2E83" d="M287.934,294.133h1.162l0.317,1.908l0.067,0.601h0.073l0.104-0.601l0.447-1.908h1.062l0.446,1.908
	l0.105,0.601h0.067l0.072-0.601l0.316-1.908h1.154l-0.832,3.558h-1.417l-0.318-1.355l-0.104-0.909h-0.054l-0.105,0.909l-0.317,1.355
	h-1.416L287.934,294.133z"/>
<path fill="#4B2E83" d="M293.652,294.133h2.787v0.827h-1.707v0.538h1.523v0.827h-1.523v0.533h1.755v0.832h-2.835V294.133z"/>
<path fill="#4B2E83" d="M298.477,296.589c-0.049,0.007-0.098,0.011-0.146,0.011c-0.051,0-0.102,0-0.156,0h-0.154v1.091h-1.081
	v-3.532c0.413-0.048,0.806-0.073,1.178-0.073c0.346,0,0.644,0.025,0.894,0.073c0.249,0.047,0.455,0.122,0.615,0.222
	c0.159,0.101,0.277,0.231,0.353,0.393c0.076,0.16,0.112,0.352,0.112,0.571c0,0.497-0.223,0.846-0.672,1.05l0.855,1.297h-1.211
	L298.477,296.589z M298.327,295.782c0.128,0,0.234-0.008,0.323-0.022c0.086-0.015,0.153-0.037,0.203-0.071
	c0.05-0.033,0.084-0.079,0.105-0.135c0.021-0.057,0.031-0.126,0.031-0.21c0-0.083-0.01-0.152-0.028-0.207
	c-0.019-0.058-0.052-0.102-0.099-0.135c-0.047-0.03-0.11-0.054-0.193-0.066c-0.08-0.012-0.183-0.019-0.309-0.019
	c-0.045,0-0.102,0.001-0.172,0.004c-0.068,0.004-0.125,0.009-0.17,0.015v0.823c0.035,0.009,0.077,0.015,0.121,0.019
	C298.185,295.78,298.248,295.782,298.327,295.782z"/>
<path fill="#4B2E83" d="M301.263,296.426v-0.058l1.179-2.283h0.018l1.086,0.082l0.049,0.092l-1.254,2v0.018h0.688l0.201-0.759h0.772
	v0.759h0.53v0.803h-0.53v0.611h-1.061v-0.611h-1.581L301.263,296.426z"/>
<path fill="#4B2E83" d="M306.344,297.728c-0.283,0-0.522-0.021-0.72-0.064c-0.196-0.043-0.358-0.106-0.483-0.188
	c-0.124-0.082-0.216-0.182-0.273-0.301c-0.058-0.118-0.086-0.25-0.086-0.399c0-0.382,0.188-0.672,0.566-0.864
	c-0.129-0.083-0.232-0.19-0.313-0.324c-0.083-0.134-0.123-0.312-0.123-0.536c0-0.144,0.035-0.274,0.105-0.394
	c0.07-0.118,0.171-0.22,0.3-0.302c0.13-0.084,0.287-0.149,0.471-0.194c0.185-0.048,0.389-0.072,0.614-0.072
	c0.214,0,0.406,0.024,0.577,0.072c0.172,0.045,0.317,0.11,0.436,0.194c0.119,0.082,0.209,0.184,0.271,0.302
	c0.062,0.119,0.094,0.25,0.094,0.394c0,0.171-0.031,0.312-0.094,0.421c-0.062,0.11-0.177,0.216-0.344,0.316
	c0.073,0.037,0.143,0.082,0.207,0.133c0.064,0.052,0.119,0.111,0.166,0.181c0.045,0.069,0.083,0.149,0.11,0.241
	c0.026,0.09,0.042,0.194,0.042,0.309c0,0.166-0.029,0.316-0.084,0.448c-0.058,0.135-0.146,0.246-0.268,0.34
	c-0.122,0.093-0.28,0.164-0.474,0.213C306.848,297.702,306.615,297.728,306.344,297.728z M306.088,296.181
	c-0.091,0.061-0.162,0.129-0.217,0.203c-0.054,0.076-0.081,0.162-0.081,0.258c0,0.128,0.051,0.226,0.151,0.291
	c0.1,0.065,0.234,0.1,0.402,0.1c0.165,0,0.293-0.028,0.381-0.083c0.088-0.054,0.132-0.134,0.132-0.241
	c0-0.083-0.018-0.15-0.058-0.204c-0.038-0.056-0.09-0.103-0.155-0.141c-0.066-0.038-0.144-0.069-0.233-0.097
	c-0.09-0.025-0.185-0.051-0.284-0.077L306.088,296.181z M305.856,295.112c0,0.072,0.021,0.13,0.06,0.177
	c0.037,0.047,0.091,0.087,0.156,0.119c0.064,0.035,0.142,0.062,0.229,0.085c0.087,0.022,0.184,0.044,0.286,0.068
	c0.088-0.068,0.147-0.14,0.188-0.215c0.038-0.075,0.058-0.15,0.058-0.223c0-0.103-0.045-0.185-0.135-0.245
	c-0.09-0.062-0.208-0.092-0.354-0.092c-0.148,0-0.267,0.028-0.354,0.087C305.901,294.932,305.856,295.012,305.856,295.112z"/>
<path fill="#4B2E83" d="M282.54,306.6c-0.336,0-0.6-0.081-0.792-0.243c-0.191-0.162-0.288-0.418-0.288-0.765
	c0-0.349,0.097-0.602,0.288-0.761c0.192-0.158,0.456-0.238,0.792-0.238s0.6,0.08,0.792,0.238c0.19,0.159,0.287,0.412,0.287,0.761
	c0,0.347-0.097,0.603-0.287,0.765C283.14,306.519,282.876,306.6,282.54,306.6z"/>
<path fill="#4B2E83" d="M283.998,304.143v-0.107l2.204-4.274h0.036l2.033,0.153l0.089,0.171l-2.347,3.744v0.036h1.287l0.376-1.422
	h1.45v1.422h0.988v1.501h-0.988v1.143h-1.989v-1.143h-2.961L283.998,304.143z"/>
<path fill="#4B2E83" d="M292.628,304.017c-0.673,0-1.191-0.175-1.554-0.525c-0.363-0.352-0.543-0.884-0.543-1.598
	s0.182-1.249,0.548-1.606c0.366-0.356,0.883-0.535,1.549-0.535c0.671,0,1.188,0.179,1.55,0.535c0.364,0.357,0.545,0.893,0.545,1.606
	s-0.181,1.246-0.545,1.598C293.815,303.842,293.299,304.017,292.628,304.017z M292.628,302.839c0.245,0,0.422-0.063,0.528-0.189
	c0.109-0.126,0.163-0.378,0.163-0.756c0-0.193-0.015-0.35-0.04-0.473c-0.027-0.123-0.068-0.221-0.123-0.292
	c-0.053-0.073-0.123-0.123-0.21-0.147c-0.087-0.028-0.194-0.042-0.318-0.042c-0.253,0-0.433,0.064-0.541,0.194
	c-0.108,0.128-0.163,0.383-0.163,0.76c0,0.378,0.055,0.63,0.163,0.756S292.375,302.839,292.628,302.839z M296.316,299.851h1.664
	l-3.104,6.658h-1.666L296.316,299.851z M298.582,306.6c-0.67,0-1.188-0.177-1.551-0.531c-0.363-0.354-0.544-0.887-0.544-1.602
	c0-0.714,0.183-1.249,0.548-1.602c0.366-0.354,0.882-0.531,1.547-0.531c0.673,0,1.19,0.178,1.553,0.531
	c0.363,0.353,0.545,0.888,0.545,1.602c0,0.715-0.182,1.248-0.545,1.602C299.772,306.423,299.255,306.6,298.582,306.6z
	 M298.582,305.421c0.127,0,0.232-0.014,0.32-0.041c0.086-0.027,0.158-0.077,0.211-0.147c0.055-0.074,0.096-0.17,0.123-0.293
	c0.025-0.123,0.039-0.28,0.039-0.473c0-0.378-0.053-0.631-0.162-0.761c-0.108-0.129-0.284-0.194-0.531-0.194
	c-0.252,0-0.431,0.065-0.538,0.194c-0.108,0.13-0.163,0.383-0.163,0.761s0.055,0.632,0.163,0.762
	C298.151,305.356,298.33,305.421,298.582,305.421z"/>
<polyline fill="none" stroke="#4B2E83" stroke-width="1.3657" stroke-miterlimit="10" points="68.07,195.168 57.711,185.553 
	44.51,185.553 "/>
<polyline fill="none" stroke="#4B2E83" stroke-width="1.3657" stroke-miterlimit="10" points="237.953,204.782 248.312,195.168 
	261.512,195.168 "/>
<polyline fill="none" stroke="#4B2E83" stroke-width="1.3657" stroke-miterlimit="10" points="256.066,268.752 270.201,268.868 
	279.947,259.967 "/>
<polyline fill="none" stroke="#4B2E83" stroke-width="1.3657" stroke-miterlimit="10" points="202.615,350.548 212.975,360.163 
	226.175,360.163 "/>
<polyline fill="none" stroke="#4B2E83" stroke-width="1.3657" stroke-miterlimit="10" points="277.552,294.597 267.193,284.981 
	253.994,284.981 "/>
<line fill="none" stroke="#4B2E83" stroke-width="1.3657" stroke-miterlimit="10" x1="255.307" y1="277.279" x2="281.182" y2="277.279"/>
</svg>
