<?xml version="1.0" encoding="utf-8"?>
<!-- Generator: Adobe Illustrator 16.0.0, SVG Export Plug-In . SVG Version: 6.00 Build 0)  -->
<!DOCTYPE svg PUBLIC "-//W3C//DTD SVG 1.1//EN" "http://www.w3.org/Graphics/SVG/1.1/DTD/svg11.dtd">
<svg version="1.1" id="Layer_1" xmlns="http://www.w3.org/2000/svg" xmlns:xlink="http://www.w3.org/1999/xlink" x="0px" y="0px"
	 width="317.453px" height="669.891px" viewBox="0 0 317.453 669.891" enable-background="new 0 0 317.453 669.891"
	 xml:space="preserve">
<path fill="#B7A57A" d="M146.208,394.264c0-0.801,0.13-1.477,0.39-2.029c0.26-0.552,0.601-1.025,1.019-1.418
	c0.418-0.393,0.897-0.727,1.437-1c0.542-0.271,1.089-0.529,1.648-0.77c0.343-0.139,0.654-0.282,0.934-0.428
	c0.278-0.146,0.517-0.301,0.712-0.466c0.197-0.167,0.352-0.35,0.468-0.554c0.113-0.203,0.17-0.432,0.17-0.685
	c0-0.483-0.191-0.832-0.572-1.048c-0.379-0.216-0.995-0.323-1.845-0.323c-0.318,0-0.649,0.016-0.991,0.048
	c-0.343,0.032-0.677,0.069-1,0.113c-0.325,0.045-0.629,0.091-0.915,0.142c-0.287,0.052-0.542,0.096-0.77,0.135l-0.268-3.352
	c1.067-0.164,1.992-0.286,2.78-0.361c0.788-0.077,1.512-0.113,2.171-0.113c1.954,0,3.39,0.355,4.304,1.065
	c0.914,0.712,1.37,1.79,1.37,3.236c0,0.66-0.098,1.247-0.295,1.763c-0.195,0.513-0.459,0.969-0.791,1.361
	c-0.33,0.392-0.703,0.736-1.123,1.028c-0.419,0.292-0.857,0.554-1.313,0.781c-0.748,0.382-1.338,0.669-1.771,0.866
	c-0.433,0.195-0.648,0.408-0.648,0.637v0.25h5.904v3.293h-11.007V394.264z"/>
<path fill="#B7A57A" d="M165.23,396.624c-2.057,0-3.654-0.598-4.789-1.799c-1.138-1.2-1.704-3.004-1.704-5.417
	c0-2.412,0.566-4.224,1.704-5.437c1.135-1.212,2.732-1.817,4.789-1.817s3.65,0.605,4.778,1.817c1.132,1.213,1.697,3.025,1.697,5.437
	c0,2.413-0.564,4.216-1.697,5.417C168.88,396.026,167.287,396.624,165.23,396.624z M165.23,393.254c0.395,0,0.729-0.058,1.009-0.172
	c0.279-0.114,0.508-0.313,0.685-0.6c0.179-0.285,0.313-0.681,0.401-1.181c0.089-0.5,0.133-1.133,0.133-1.894
	c0-0.776-0.044-1.414-0.133-1.914c-0.088-0.501-0.222-0.899-0.401-1.191c-0.176-0.291-0.405-0.494-0.685-0.609
	c-0.28-0.114-0.615-0.17-1.009-0.17c-0.405,0-0.753,0.056-1.037,0.17c-0.286,0.115-0.518,0.318-0.695,0.609
	c-0.179,0.292-0.309,0.69-0.392,1.191c-0.082,0.5-0.122,1.138-0.122,1.914c0,0.761,0.04,1.39,0.122,1.883
	c0.083,0.496,0.213,0.891,0.392,1.182c0.177,0.293,0.409,0.495,0.695,0.609C164.478,393.197,164.826,393.254,165.23,393.254z"/>
<path fill="#B7A57A" d="M176.293,386.798h-0.076l-3.046,0.629h-0.209l-0.477-2.439l0.039-0.17l4.818-2.476h3.237v14.092h-4.286
	V386.798z"/>
<path fill="#B7A57A" d="M186.806,396.68c-0.624,0-1.257-0.029-1.904-0.094c-0.648-0.062-1.314-0.141-2-0.229v-3.161h0.914
	c0.446,0.09,0.861,0.151,1.248,0.181c0.387,0.031,0.778,0.049,1.171,0.049c0.913,0,1.594-0.097,2.038-0.285
	c0.444-0.191,0.666-0.598,0.666-1.22c0-0.268-0.066-0.482-0.201-0.647c-0.133-0.165-0.355-0.299-0.666-0.4
	c-0.312-0.103-0.73-0.172-1.256-0.209c-0.528-0.039-1.185-0.058-1.971-0.058h-1.449l-0.38-0.362l0.59-7.902h8.874v3.275h-5.75
	l-0.096,1.999c1.118,0.014,2.098,0.097,2.944,0.249c0.843,0.153,1.548,0.399,2.112,0.743c0.564,0.344,0.991,0.796,1.277,1.361
	c0.286,0.564,0.428,1.274,0.428,2.124c0,0.89-0.188,1.629-0.563,2.219c-0.374,0.592-0.874,1.059-1.494,1.408
	c-0.623,0.352-1.326,0.598-2.114,0.744C188.436,396.61,187.63,396.68,186.806,396.68z"/>
<line fill="none" stroke="#4B2E83" stroke-width="1.3482" stroke-miterlimit="10" x1="108.643" y1="374.359" x2="230.845" y2="374.359"/>
<line fill="none" stroke="#4B2E83" stroke-width="1.3482" stroke-miterlimit="10" x1="169.743" y1="324.751" x2="169.743" y2="370.432"/>
<line fill="none" stroke="#4B2E83" stroke-width="1.3482" stroke-miterlimit="10" x1="108.643" y1="404.039" x2="230.845" y2="404.039"/>
<line fill="none" stroke="#4B2E83" stroke-width="1.3482" stroke-miterlimit="10" x1="169.743" y1="404.207" x2="169.743" y2="428.34"/>
<rect x="152.485" y="367.996" fill="#4B2E83" width="34.516" height="6.363"/>
<path fill="#B7A57A" d="M112.649,521.574v-0.977l19.982-38.744h0.328l18.432,1.389l0.815,1.547l-21.288,33.93v0.328h11.664
	l3.426-12.889h13.131v12.889h8.973v13.621h-8.973v10.357h-18.024v-10.357h-26.834L112.649,521.574z"/>
<path fill="#B7A57A" d="M197.962,481.854c8.591,0,15.213,2.395,19.862,7.178c4.649,4.785,6.972,11.799,6.972,21.043
	c0,22.512-11.69,33.768-35.07,33.768c-2.176,0-4.447-0.137-6.811-0.406c-2.366-0.273-4.882-0.682-7.544-1.227l2.202-12.723
	c2.446,0.436,4.566,0.748,6.362,0.938c1.794,0.191,3.478,0.287,5.057,0.287c5.273,0,9.243-0.953,11.907-2.855
	c2.665-1.902,4.377-5.139,5.139-9.705c-1.578,1.086-3.454,1.945-5.627,2.568c-2.176,0.625-4.568,0.938-7.177,0.938
	c-3.319,0-6.311-0.436-8.973-1.305c-2.665-0.869-4.95-2.092-6.853-3.672c-1.902-1.576-3.372-3.506-4.404-5.791
	c-1.033-2.283-1.549-4.811-1.549-7.584c0-3.314,0.613-6.307,1.836-8.973c1.223-2.662,2.978-4.92,5.261-6.77
	c2.283-1.846,5.056-3.262,8.319-4.24C190.133,482.344,193.832,481.854,197.962,481.854z M197.962,510.4
	c1.632,0,3.249-0.285,4.854-0.855c1.603-0.572,2.869-1.264,3.792-2.08c-0.217-4.514-1.007-7.75-2.363-9.707
	c-1.361-1.957-3.455-2.936-6.283-2.936c-2.719,0-4.702,0.641-5.953,1.916c-1.251,1.279-1.876,3.303-1.876,6.076
	c0,2.719,0.613,4.664,1.835,5.834C193.192,509.818,195.19,510.4,197.962,510.4z"/>
<path fill="#B7A57A" d="M115.976,551.268h7.377l2.646,7.234l0.913,3.582h0.145l0.938-3.582l2.644-7.234h7.355v17.787h-4.76v-11.947
	h-0.216l-1.466,4.809l-2.428,6.418h-4.277l-2.428-6.418l-1.466-4.809h-0.216v11.947h-4.76V551.268z"/>
<path fill="#B7A57A" d="M140.924,551.268h5.409v17.787h-5.409V551.268z"/>
<path fill="#B7A57A" d="M149.29,551.268h5.407v13.652h7.307v4.135H149.29V551.268z"/>
<path fill="#B7A57A" d="M163.781,551.268h5.409v13.652h7.308v4.135h-12.716V551.268z"/>
<path fill="#B7A57A" d="M178.276,551.268h5.407v17.787h-5.407V551.268z"/>
<path fill="#B7A57A" d="M195.052,569.295c-3.012,0-5.288-0.77-6.826-2.307c-1.539-1.539-2.306-3.807-2.306-6.805
	c0-3.027,0.767-5.311,2.306-6.85c1.539-1.537,3.814-2.309,6.826-2.309c2.997,0,5.267,0.775,6.813,2.322
	c1.549,1.545,2.321,3.826,2.321,6.836c0,2.998-0.772,5.266-2.321,6.805C200.319,568.525,198.049,569.295,195.052,569.295z
	 M195.052,565.016c0.721,0,1.313-0.068,1.78-0.203c0.465-0.137,0.832-0.383,1.106-0.732c0.271-0.354,0.459-0.844,0.562-1.467
	c0.105-0.625,0.159-1.434,0.159-2.43c0-0.961-0.061-1.758-0.181-2.389c-0.122-0.635-0.317-1.135-0.589-1.504
	c-0.273-0.369-0.642-0.625-1.105-0.768c-0.464-0.145-1.041-0.217-1.731-0.217c-0.689,0-1.265,0.072-1.73,0.217
	c-0.466,0.143-0.834,0.398-1.105,0.768c-0.272,0.369-0.469,0.865-0.588,1.49c-0.121,0.623-0.181,1.426-0.181,2.402
	c0,0.98,0.057,1.779,0.167,2.404c0.113,0.627,0.306,1.121,0.578,1.479c0.272,0.359,0.64,0.609,1.104,0.746
	C193.763,564.947,194.348,565.016,195.052,565.016z"/>
<path fill="#B7A57A" d="M206.397,551.268h4.254l6.466,7.836l1.442,1.994h0.241v-9.83h4.709v17.787h-4.253l-6.225-7.596l-1.683-2.26
	h-0.239v9.855h-4.712V551.268z"/>
<polygon fill="#939598" points="243.133,597.586 245.151,608.641 234.569,604.859 "/>
<path fill="#939598" d="M255.821,648.412h4.289v1.27h-2.625v0.828h2.344v1.271h-2.344v0.82h2.699v1.281h-4.363V648.412z"/>
<path fill="#939598" d="M262.845,653.971c-0.157,0-0.326-0.006-0.506-0.016s-0.366-0.025-0.555-0.049
	c-0.19-0.021-0.379-0.047-0.564-0.074c-0.188-0.025-0.366-0.059-0.533-0.098v-1.332c0.399,0.09,0.761,0.158,1.085,0.203
	c0.327,0.047,0.629,0.07,0.911,0.07c0.295,0,0.503-0.027,0.623-0.082c0.123-0.055,0.183-0.145,0.183-0.273
	c0-0.143-0.067-0.246-0.204-0.314c-0.136-0.064-0.349-0.117-0.64-0.156c-0.309-0.047-0.585-0.111-0.824-0.197
	c-0.239-0.088-0.44-0.201-0.602-0.346c-0.163-0.146-0.285-0.326-0.366-0.535s-0.123-0.459-0.123-0.75
	c0-0.531,0.206-0.945,0.618-1.242c0.41-0.295,0.987-0.443,1.726-0.443c0.128,0,0.256,0.004,0.379,0.01
	c0.127,0.008,0.263,0.02,0.408,0.039c0.146,0.018,0.303,0.039,0.472,0.066c0.172,0.027,0.364,0.061,0.581,0.107v1.314
	c-0.128-0.039-0.262-0.074-0.406-0.102c-0.143-0.031-0.287-0.057-0.432-0.078c-0.146-0.023-0.288-0.041-0.429-0.053
	c-0.14-0.012-0.271-0.018-0.388-0.018c-0.529,0-0.792,0.121-0.792,0.363c0,0.156,0.075,0.277,0.222,0.361
	c0.148,0.084,0.384,0.154,0.71,0.205c0.31,0.057,0.577,0.125,0.806,0.213c0.227,0.086,0.414,0.193,0.564,0.322
	c0.151,0.127,0.263,0.279,0.337,0.461c0.075,0.18,0.11,0.391,0.11,0.633C265.218,653.375,264.428,653.971,262.845,653.971z"/>
<path fill="#939598" d="M268.524,653.984c-0.986,0-1.719-0.23-2.195-0.689c-0.479-0.463-0.718-1.174-0.718-2.143
	c0-0.971,0.23-1.689,0.691-2.15c0.459-0.463,1.157-0.693,2.089-0.693c0.171,0,0.361,0.008,0.563,0.023
	c0.205,0.018,0.456,0.047,0.752,0.086v1.309c-0.164-0.016-0.299-0.027-0.411-0.037c-0.109-0.01-0.207-0.018-0.289-0.023
	c-0.079-0.004-0.152-0.008-0.213-0.01c-0.062-0.004-0.125-0.004-0.188-0.004c-0.267,0-0.482,0.018-0.646,0.057
	c-0.166,0.035-0.294,0.107-0.39,0.217c-0.093,0.107-0.158,0.262-0.191,0.459c-0.035,0.197-0.052,0.451-0.052,0.768
	c0,0.312,0.017,0.562,0.052,0.756c0.033,0.191,0.098,0.34,0.191,0.447c0.096,0.105,0.225,0.178,0.39,0.217
	c0.164,0.039,0.375,0.061,0.63,0.061c0.085,0,0.178-0.002,0.281-0.008c0.104-0.006,0.208-0.014,0.311-0.023
	c0.105-0.01,0.201-0.02,0.292-0.029c0.093-0.01,0.17-0.021,0.234-0.037v1.316c-0.184,0.039-0.374,0.07-0.576,0.098
	C268.928,653.973,268.726,653.984,268.524,653.984z"/>
<path fill="#939598" d="M269.906,653.801l1.686-5.389h2.47l1.686,5.389v0.082h-1.605l-0.332-1.119h-1.975l-0.326,1.119h-1.604
	V653.801z M273.448,651.502l-0.229-0.814l-0.327-1.148h-0.133l-0.332,1.162l-0.221,0.801H273.448z"/>
<path fill="#939598" d="M276.162,648.447c0.642-0.074,1.244-0.111,1.811-0.111c0.538,0,0.996,0.039,1.378,0.115
	c0.384,0.076,0.697,0.197,0.943,0.363c0.247,0.164,0.428,0.375,0.545,0.631c0.114,0.256,0.173,0.564,0.173,0.926
	c0,1.363-0.997,2.047-2.987,2.047h-0.199v1.465h-1.663V648.447z M278.298,651.139c0.199,0,0.363-0.014,0.496-0.037
	c0.133-0.025,0.237-0.066,0.314-0.125c0.076-0.061,0.131-0.141,0.16-0.238c0.034-0.098,0.051-0.221,0.051-0.367
	c0-0.148-0.015-0.273-0.042-0.367c-0.026-0.098-0.076-0.174-0.148-0.229c-0.071-0.059-0.169-0.1-0.296-0.123
	c-0.123-0.023-0.287-0.037-0.482-0.037c-0.078,0-0.172,0.004-0.277,0.008c-0.107,0.006-0.189,0.014-0.248,0.021v1.457
	c0.074,0.01,0.15,0.018,0.229,0.025C278.133,651.135,278.215,651.139,278.298,651.139z"/>
<path fill="#939598" d="M281.581,648.412h4.287v1.27h-2.625v0.828h2.344v1.271h-2.344v0.82h2.699v1.281h-4.361V648.412z"/>
<path fill="#939598" d="M286.638,648.412h2.271l0.812,2.223l0.282,1.102h0.043l0.289-1.102l0.812-2.223h2.263v5.471h-1.464v-3.674
	h-0.066l-0.451,1.479l-0.746,1.973h-1.316l-0.746-1.973l-0.451-1.479h-0.066v3.674h-1.465V648.412z"/>
<path fill="#939598" d="M294.313,648.412h4.287v1.27h-2.625v0.828h2.344v1.271h-2.344v0.82h2.699v1.281h-4.361V648.412z"/>
<path fill="#939598" d="M299.37,648.412h1.309l1.989,2.408l0.444,0.613h0.073v-3.021h1.45v5.471h-1.31l-1.915-2.338l-0.52-0.695
	h-0.072v3.033h-1.449V648.412z"/>
<path fill="#939598" d="M306.72,649.689h-1.486v-1.277h4.636v1.277h-1.485v4.193h-1.664V649.689z"/>
<path fill="#939598" d="M260.116,616.627h-0.096l-3.809,0.785h-0.261l-0.595-3.049l0.046-0.213l6.025-3.094h4.046v17.617h-5.357
	V616.627z"/>
<path fill="#939598" d="M267.615,622.41v-0.285l5.833-11.307h0.094l5.381,0.404l0.238,0.451l-6.213,9.904v0.096h3.403l1.001-3.762
	h3.832v3.762h2.619v3.975h-2.619v3.025h-5.26v-3.025h-7.833L267.615,622.41z"/>
<path fill="#939598" d="M287.851,628.91c-0.889,0-1.586-0.213-2.094-0.643s-0.763-1.104-0.763-2.023s0.255-1.59,0.763-2.012
	c0.508-0.42,1.205-0.631,2.094-0.631c0.891,0,1.588,0.211,2.096,0.631c0.508,0.422,0.762,1.092,0.762,2.012
	s-0.254,1.594-0.762,2.023S288.741,628.91,287.851,628.91z"/>
<path fill="#939598" d="M300.159,628.91c-2.572,0-4.566-0.748-5.986-2.25c-1.422-1.498-2.131-3.756-2.131-6.771
	c0-3.018,0.709-5.283,2.131-6.797c1.42-1.518,3.414-2.273,5.986-2.273c2.573,0,4.564,0.756,5.978,2.273
	c1.411,1.514,2.118,3.779,2.118,6.797c0,3.016-0.707,5.273-2.118,6.771C304.724,628.162,302.732,628.91,300.159,628.91z
	 M300.159,624.697c0.492,0,0.914-0.072,1.264-0.215c0.348-0.143,0.633-0.393,0.855-0.75c0.223-0.355,0.39-0.848,0.5-1.475
	c0.111-0.629,0.166-1.416,0.166-2.369c0-0.969-0.055-1.768-0.166-2.393c-0.11-0.629-0.277-1.123-0.5-1.488s-0.508-0.621-0.855-0.764
	c-0.35-0.143-0.771-0.213-1.264-0.213c-0.508,0-0.939,0.07-1.295,0.213c-0.359,0.143-0.648,0.398-0.871,0.764
	c-0.221,0.365-0.385,0.859-0.488,1.488c-0.102,0.625-0.154,1.424-0.154,2.393c0,0.953,0.053,1.736,0.154,2.357
	c0.104,0.617,0.268,1.109,0.488,1.475c0.223,0.365,0.512,0.619,0.871,0.762C299.22,624.625,299.651,624.697,300.159,624.697z"/>
<path fill="#939598" d="M255.771,633.029h3.687l1.319,3.613l0.456,1.787h0.071l0.468-1.787l1.32-3.613h3.674v8.881h-2.376v-5.965
	h-0.107l-0.732,2.402l-1.213,3.203h-2.136l-1.213-3.203l-0.732-2.402h-0.108v5.965h-2.377V633.029z"/>
<path fill="#939598" d="M268.231,633.029h2.7v8.881h-2.7V633.029z"/>
<path fill="#939598" d="M272.407,633.029h2.699v6.816h3.649v2.064h-6.349V633.029z"/>
<path fill="#939598" d="M279.644,633.029h2.701v6.816h3.648v2.064h-6.35V633.029z"/>
<path fill="#939598" d="M286.882,633.029h2.701v8.881h-2.701V633.029z"/>
<path fill="#939598" d="M295.261,642.031c-1.506,0-2.643-0.385-3.41-1.152s-1.152-1.9-1.152-3.396c0-1.512,0.385-2.652,1.152-3.42
	c0.768-0.77,1.904-1.154,3.41-1.154c1.496,0,2.629,0.389,3.4,1.158c0.773,0.773,1.159,1.912,1.159,3.416
	c0,1.496-0.386,2.629-1.159,3.396C297.89,641.646,296.757,642.031,295.261,642.031z M295.261,639.895
	c0.357,0,0.655-0.035,0.887-0.104c0.232-0.066,0.416-0.188,0.553-0.365c0.135-0.174,0.229-0.42,0.281-0.732s0.078-0.715,0.078-1.211
	c0-0.48-0.029-0.879-0.088-1.195c-0.062-0.316-0.158-0.564-0.295-0.75c-0.137-0.184-0.32-0.312-0.555-0.383
	c-0.23-0.072-0.519-0.107-0.861-0.107c-0.346,0-0.633,0.035-0.865,0.107c-0.232,0.07-0.416,0.199-0.553,0.383
	c-0.137,0.186-0.233,0.434-0.293,0.744c-0.061,0.312-0.09,0.713-0.09,1.201s0.026,0.889,0.084,1.199
	c0.057,0.312,0.151,0.559,0.287,0.738c0.137,0.18,0.319,0.305,0.553,0.371C294.616,639.859,294.908,639.895,295.261,639.895z"/>
<path fill="#939598" d="M300.925,633.029h2.125l3.229,3.912l0.719,0.996h0.121v-4.908h2.354v8.881h-2.125l-3.109-3.791l-0.84-1.129
	h-0.12v4.92h-2.353V633.029z"/>
<line fill="none" stroke="#939598" stroke-width="1.3482" stroke-miterlimit="10" x1="254.048" y1="606.775" x2="311.187" y2="606.775"/>
<line fill="none" stroke="#939598" stroke-width="1.3482" stroke-miterlimit="10" x1="254.048" y1="657.686" x2="311.187" y2="657.686"/>
<line fill="none" stroke="#939598" stroke-width="1.3482" stroke-miterlimit="10" x1="254.048" y1="644.58" x2="311.187" y2="644.58"/>
<path fill="#4B2E83" d="M169.758,608.641c-46.802,0-84.741-37.939-84.741-84.74s37.939-84.74,84.741-84.74
	c42.672,0,77.973,31.543,83.868,72.582l23.32-3.381c-7.537-52.451-52.651-92.764-107.188-92.764
	c-59.815,0-108.304,48.488-108.304,108.303s48.489,108.305,108.304,108.305c12.324,0,24.167-2.064,35.204-5.857l-7.659-22.289
	C188.667,607.025,179.401,608.641,169.758,608.641z"/>
<path fill="#939598" d="M278.031,523.904c0-5.277-0.386-10.465-1.114-15.539l-23.319,3.381c0.57,3.971,0.872,8.027,0.872,12.158
	c0,37.156-23.917,68.723-57.196,80.158l7.66,22.287C247.464,611.738,278.031,571.391,278.031,523.904z"/>
<polygon fill="#4B2E83" points="276.95,508.279 266.776,520.246 253.612,511.672 "/>
<polygon fill="#939598" points="204.968,626.33 191.337,618.525 197.353,604.012 "/>
<path fill="#B7A57A" d="M121.706,99.978l4.341-13.88h6.362l4.34,13.88v0.21h-4.131l-0.859-2.876h-5.083l-0.838,2.876h-4.132V99.978z
	 M130.827,94.055l-0.59-2.093L129.4,89.01h-0.343l-0.856,2.988l-0.571,2.057H130.827z"/>
<path fill="#B7A57A" d="M135.494,86.097h4.55l2.152,7.101l0.685,3.028h0.21l0.706-3.028l2.133-7.101h4.456l-4.59,14.091h-5.695
	L135.494,86.097z"/>
<path fill="#B7A57A" d="M151.451,86.097h11.044v3.274h-6.76v2.133h6.036v3.275h-6.036v2.113h6.949v3.296h-11.233V86.097z"/>
<path fill="#B7A57A" d="M170.568,95.826c-0.191,0.027-0.383,0.039-0.582,0.039c-0.197,0-0.401,0-0.617,0h-0.611v4.323h-4.284V86.192
	c1.637-0.192,3.192-0.287,4.667-0.287c1.37,0,2.549,0.095,3.54,0.287c0.991,0.189,1.804,0.483,2.438,0.884
	c0.635,0.4,1.102,0.917,1.4,1.552c0.297,0.636,0.447,1.391,0.447,2.268c0,1.968-0.888,3.351-2.665,4.151l3.389,5.141h-4.798
	L170.568,95.826z M169.979,92.627c0.507,0,0.934-0.028,1.275-0.085c0.343-0.058,0.614-0.154,0.811-0.285
	c0.196-0.134,0.336-0.312,0.418-0.534c0.083-0.222,0.125-0.498,0.125-0.828c0-0.33-0.039-0.606-0.115-0.828
	c-0.076-0.223-0.205-0.398-0.389-0.524c-0.185-0.127-0.438-0.215-0.762-0.268c-0.325-0.051-0.733-0.075-1.228-0.075
	c-0.18,0-0.404,0.006-0.676,0.019c-0.273,0.012-0.498,0.032-0.677,0.057v3.256c0.14,0.04,0.297,0.063,0.478,0.076
	C169.413,92.622,169.662,92.627,169.979,92.627z"/>
<path fill="#B7A57A" d="M177.5,99.978l4.341-13.88h6.361l4.34,13.88v0.21h-4.13l-0.858-2.876h-5.083l-0.839,2.876H177.5V99.978z
	 M186.622,94.055l-0.59-2.093l-0.837-2.952h-0.343l-0.858,2.988l-0.57,2.057H186.622z"/>
<path fill="#B7A57A" d="M200.16,100.455c-2.551,0-4.438-0.598-5.664-1.791c-1.226-1.193-1.837-3.027-1.837-5.502
	c0-4.888,2.633-7.331,7.902-7.331c0.722,0,1.482,0.04,2.275,0.124c0.792,0.082,1.476,0.191,2.048,0.331v3.39
	c-0.865-0.139-1.633-0.237-2.305-0.294c-0.672-0.056-1.231-0.086-1.676-0.086c-0.786,0-1.431,0.052-1.931,0.153
	c-0.502,0.102-0.892,0.295-1.171,0.581c-0.281,0.285-0.472,0.679-0.572,1.18c-0.102,0.501-0.152,1.152-0.152,1.952
	c0,0.787,0.045,1.424,0.134,1.913c0.089,0.49,0.25,0.876,0.484,1.162c0.237,0.287,0.564,0.48,0.991,0.582
	c0.426,0.102,0.974,0.152,1.646,0.152c0.127,0,0.264,0,0.41,0s0.295-0.006,0.447-0.019v-3.924h3.903v6.666
	c-0.836,0.215-1.701,0.397-2.589,0.543C201.615,100.381,200.833,100.455,200.16,100.455z"/>
<path fill="#B7A57A" d="M207.093,86.097h11.044v3.274h-6.761v2.133h6.038v3.275h-6.038v2.113h6.949v3.296h-11.233V86.097z"/>
<path fill="#B7A57A" d="M139.133,249.108c-1.631,0-3.316-0.028-5.057-0.082c-1.742-0.055-3.4-0.15-4.976-0.285
	c-1.579-0.138-3.031-0.287-4.365-0.449c-1.333-0.162-2.378-0.325-3.14-0.49v-13.538h0.328c0.706,0.163,1.643,0.339,2.812,0.53
	c1.169,0.19,2.419,0.354,3.754,0.488c1.332,0.136,2.651,0.246,3.956,0.326c1.304,0.082,2.473,0.124,3.505,0.124
	c2.393,0,4.352-0.083,5.875-0.246c1.52-0.165,2.705-0.462,3.547-0.897c0.844-0.434,1.413-1.032,1.712-1.795
	c0.301-0.76,0.451-1.739,0.451-2.936c0-1.25-0.178-2.27-0.532-3.058c-0.354-0.787-1.005-1.414-1.957-1.875
	c-0.952-0.463-2.285-0.777-3.997-0.94c-1.712-0.163-3.902-0.245-6.567-0.245h-5.544v-12.396h5.463c2.393,0,4.352-0.068,5.873-0.205
	c1.522-0.136,2.704-0.408,3.548-0.814c0.842-0.41,1.413-0.964,1.712-1.673c0.299-0.707,0.449-1.631,0.449-2.773
	c0-0.979-0.15-1.809-0.449-2.487c-0.299-0.679-0.829-1.211-1.588-1.591c-0.764-0.381-1.783-0.654-3.06-0.816
	c-1.279-0.162-2.896-0.244-4.852-0.244c-1.742,0-3.931,0.136-6.567,0.406c-2.637,0.273-5.151,0.602-7.543,0.981h-0.328v-13.622
	c1.087-0.217,2.407-0.422,3.956-0.613c1.552-0.189,3.141-0.352,4.773-0.488c1.63-0.136,3.192-0.247,4.69-0.328
	c1.495-0.081,2.785-0.121,3.875-0.121c8.754,0,15.252,1.333,19.494,3.996c4.241,2.667,6.361,6.798,6.361,12.396
	c0,3.263-0.926,6.037-2.774,8.32c-1.85,2.284-4.487,3.97-7.912,5.058v0.652c3.806,0.815,6.812,2.476,9.013,4.976
	c2.202,2.5,3.303,5.465,3.303,8.89c0,5.873-2.299,10.317-6.892,13.334C154.888,247.601,148.104,249.108,139.133,249.108z"/>
<path fill="#B7A57A" d="M171.838,238.832c0-3.427,0.559-6.32,1.673-8.688c1.113-2.364,2.569-4.39,4.365-6.075
	c1.792-1.685,3.845-3.112,6.158-4.282c2.309-1.168,4.662-2.27,7.054-3.302c1.468-0.598,2.799-1.21,3.997-1.836
	c1.195-0.626,2.215-1.291,3.06-2c0.84-0.704,1.508-1.494,1.998-2.364c0.489-0.869,0.734-1.847,0.734-2.936
	c0-2.067-0.816-3.562-2.449-4.486c-1.631-0.925-4.269-1.387-7.912-1.387c-1.358,0-2.771,0.07-4.239,0.204
	c-1.469,0.135-2.896,0.3-4.284,0.489c-1.386,0.191-2.691,0.396-3.914,0.612c-1.224,0.218-2.325,0.407-3.303,0.569l-1.143-14.355
	c4.566-0.705,8.535-1.222,11.909-1.548c3.371-0.326,6.469-0.489,9.296-0.489c8.374,0,14.52,1.521,18.434,4.567
	c3.916,3.046,5.873,7.667,5.873,13.865c0,2.828-0.421,5.342-1.264,7.544c-0.843,2.202-1.972,4.148-3.384,5.832
	c-1.414,1.687-3.018,3.154-4.813,4.405c-1.793,1.25-3.67,2.364-5.627,3.344c-3.208,1.63-5.738,2.869-7.584,3.71
	c-1.85,0.844-2.773,1.754-2.773,2.733v1.061h25.284v14.112h-47.145V238.832z"/>
<path fill="#B7A57A" d="M116.563,256.371h7.377l2.646,7.236l0.912,3.581h0.145l0.938-3.581l2.643-7.236h7.355v17.787h-4.759v-11.946
	h-0.217l-1.466,4.809l-2.428,6.416h-4.276l-2.429-6.416l-1.466-4.809h-0.216v11.946h-4.76V256.371z"/>
<path fill="#B7A57A" d="M141.512,256.371h5.408v17.787h-5.408V256.371z"/>
<path fill="#B7A57A" d="M149.877,256.371h5.406v13.654h7.308v4.133h-12.714V256.371z"/>
<path fill="#B7A57A" d="M164.369,256.371h5.409v13.654h7.307v4.133h-12.716V256.371z"/>
<path fill="#B7A57A" d="M178.863,256.371h5.409v17.787h-5.409V256.371z"/>
<path fill="#B7A57A" d="M195.639,274.398c-3.012,0-5.288-0.769-6.825-2.307c-1.539-1.539-2.307-3.806-2.307-6.803
	c0-3.028,0.768-5.31,2.307-6.849c1.538-1.538,3.813-2.308,6.825-2.308c2.997,0,5.267,0.773,6.813,2.32
	c1.549,1.546,2.321,3.825,2.321,6.837c0,2.998-0.772,5.264-2.321,6.803C200.906,273.629,198.636,274.398,195.639,274.398z
	 M195.639,270.119c0.721,0,1.314-0.067,1.779-0.204s0.833-0.38,1.107-0.733c0.27-0.353,0.459-0.84,0.562-1.465
	c0.105-0.625,0.158-1.434,0.158-2.429c0-0.962-0.061-1.759-0.182-2.392c-0.119-0.632-0.316-1.132-0.588-1.502
	c-0.273-0.367-0.642-0.625-1.105-0.77c-0.464-0.144-1.042-0.216-1.731-0.216c-0.688,0-1.266,0.073-1.729,0.216
	c-0.466,0.144-0.834,0.403-1.105,0.77c-0.273,0.37-0.47,0.866-0.589,1.491c-0.121,0.625-0.181,1.427-0.181,2.403
	c0,0.977,0.057,1.778,0.167,2.403c0.113,0.625,0.306,1.118,0.578,1.479c0.273,0.361,0.641,0.608,1.105,0.745
	C194.351,270.052,194.935,270.119,195.639,270.119z"/>
<path fill="#B7A57A" d="M206.984,256.371h4.254l6.467,7.836l1.44,1.996h0.242v-9.832h4.71v17.787h-4.254l-6.225-7.595l-1.683-2.259
	h-0.239v9.854h-4.712V256.371z"/>
<line fill="none" stroke="#4B2E83" stroke-width="1.3482" stroke-miterlimit="10" x1="170.331" y1="44.265" x2="170.331" y2="74.184"/>
<line fill="none" stroke="#4B2E83" stroke-width="1.3482" stroke-miterlimit="10" x1="108.812" y1="78.114" x2="231.015" y2="78.114"/>
<line fill="none" stroke="#4B2E83" stroke-width="1.3482" stroke-miterlimit="10" x1="108.812" y1="107.793" x2="231.015" y2="107.793"/>
<line fill="none" stroke="#4B2E83" stroke-width="1.3482" stroke-miterlimit="10" x1="170.331" y1="107.96" x2="170.331" y2="133.444"/>
<rect x="153.072" y="71.752" fill="#4B2E83" width="34.516" height="6.362"/>
<polygon fill="#939598" points="94.996,304.598 83.757,304.634 89.348,294.884 "/>
<path fill="#939598" d="M12.958,354.879h4.289v1.272h-2.625v0.828h2.344v1.271h-2.344v0.822h2.699v1.279h-4.363V354.879z"/>
<path fill="#939598" d="M19.981,360.439c-0.156,0-0.325-0.005-0.506-0.014c-0.179-0.01-0.365-0.026-0.553-0.049
	c-0.19-0.022-0.381-0.045-0.565-0.074c-0.188-0.027-0.366-0.059-0.533-0.1v-1.33c0.397,0.089,0.762,0.156,1.085,0.204
	c0.328,0.046,0.629,0.07,0.912,0.07c0.296,0,0.503-0.028,0.623-0.083c0.121-0.053,0.182-0.146,0.182-0.273
	c0-0.143-0.067-0.248-0.204-0.315c-0.136-0.065-0.349-0.118-0.64-0.158c-0.31-0.042-0.585-0.109-0.824-0.195
	c-0.238-0.087-0.44-0.202-0.601-0.348c-0.164-0.146-0.286-0.324-0.367-0.532c-0.081-0.209-0.122-0.459-0.122-0.751
	c0-0.532,0.206-0.947,0.618-1.242c0.411-0.296,0.986-0.443,1.726-0.443c0.127,0,0.255,0.003,0.38,0.01
	c0.126,0.01,0.262,0.021,0.408,0.038c0.145,0.018,0.302,0.041,0.472,0.068c0.171,0.025,0.364,0.062,0.581,0.106v1.316
	c-0.127-0.039-0.263-0.075-0.406-0.103c-0.143-0.032-0.287-0.056-0.433-0.078c-0.145-0.022-0.289-0.04-0.428-0.053
	c-0.141-0.011-0.271-0.017-0.388-0.017c-0.527,0-0.792,0.12-0.792,0.361c0,0.157,0.075,0.279,0.223,0.363
	c0.147,0.083,0.384,0.152,0.71,0.207c0.311,0.053,0.58,0.123,0.806,0.208c0.227,0.088,0.414,0.194,0.564,0.323
	c0.15,0.129,0.264,0.283,0.336,0.461c0.074,0.181,0.11,0.392,0.11,0.633C22.354,359.842,21.565,360.439,19.981,360.439z"/>
<path fill="#939598" d="M25.661,360.453c-0.987,0-1.719-0.231-2.196-0.691c-0.479-0.459-0.718-1.174-0.718-2.14
	c0-0.971,0.229-1.687,0.691-2.153c0.462-0.462,1.158-0.693,2.089-0.693c0.171,0,0.361,0.008,0.566,0.025
	c0.203,0.017,0.455,0.046,0.75,0.083v1.309c-0.163-0.013-0.299-0.026-0.412-0.036c-0.11-0.01-0.207-0.016-0.289-0.022
	c-0.08-0.005-0.153-0.009-0.214-0.012c-0.062-0.002-0.123-0.004-0.188-0.004c-0.267,0-0.483,0.02-0.647,0.057
	c-0.166,0.038-0.294,0.11-0.388,0.218c-0.095,0.108-0.16,0.262-0.193,0.458c-0.037,0.197-0.052,0.453-0.052,0.77
	c0,0.311,0.016,0.561,0.052,0.755c0.033,0.193,0.098,0.342,0.193,0.446c0.093,0.107,0.222,0.18,0.388,0.218
	c0.164,0.041,0.376,0.06,0.633,0.06c0.083,0,0.175-0.003,0.279-0.007c0.105-0.005,0.208-0.012,0.312-0.022
	c0.103-0.012,0.199-0.021,0.292-0.031c0.091-0.009,0.168-0.021,0.233-0.035v1.315c-0.184,0.038-0.375,0.071-0.577,0.095
	C26.064,360.441,25.862,360.453,25.661,360.453z"/>
<path fill="#939598" d="M27.042,360.269l1.685-5.39h2.47l1.686,5.39v0.082h-1.604l-0.331-1.116h-1.975l-0.326,1.116h-1.604V360.269z
	 M30.585,357.97l-0.229-0.814l-0.326-1.145h-0.134l-0.332,1.161l-0.221,0.798H30.585z"/>
<path fill="#939598" d="M33.299,354.916c0.64-0.074,1.244-0.111,1.811-0.111c0.538,0,0.996,0.038,1.378,0.116
	c0.383,0.075,0.696,0.197,0.942,0.361c0.249,0.166,0.428,0.376,0.545,0.631c0.115,0.257,0.172,0.565,0.172,0.925
	c0,1.366-0.993,2.049-2.986,2.049h-0.199v1.464h-1.663V354.916z M35.435,357.608c0.197,0,0.361-0.014,0.496-0.039
	c0.133-0.023,0.237-0.066,0.312-0.126c0.077-0.057,0.132-0.138,0.163-0.235c0.033-0.099,0.047-0.223,0.047-0.371
	c0-0.147-0.012-0.27-0.04-0.365c-0.027-0.095-0.077-0.172-0.148-0.229c-0.071-0.057-0.169-0.097-0.295-0.123
	c-0.125-0.023-0.288-0.035-0.482-0.035c-0.08,0-0.174,0.002-0.278,0.008c-0.105,0.004-0.19,0.011-0.247,0.021v1.456
	c0.074,0.011,0.15,0.019,0.229,0.026C35.269,357.604,35.351,357.608,35.435,357.608z"/>
<path fill="#939598" d="M38.718,354.879h4.286v1.272h-2.623v0.828h2.344v1.271h-2.344v0.822h2.697v1.279h-4.36V354.879z"/>
<path fill="#939598" d="M43.774,354.879h2.271l0.813,2.227l0.281,1.101h0.043l0.289-1.101l0.816-2.227h2.26v5.472h-1.464v-3.675
	h-0.064l-0.453,1.478l-0.747,1.975h-1.316l-0.747-1.975l-0.451-1.478h-0.067v3.675h-1.464V354.879z"/>
<path fill="#939598" d="M51.45,354.879h4.287v1.272h-2.625v0.828h2.344v1.271h-2.344v0.822h2.7v1.279H51.45V354.879z"/>
<path fill="#939598" d="M56.507,354.879h1.309l1.989,2.409l0.444,0.615h0.073v-3.024h1.449v5.472h-1.309l-1.915-2.337l-0.518-0.694
	h-0.073v3.031h-1.45V354.879z"/>
<path fill="#939598" d="M63.855,356.158H62.37v-1.279h4.635v1.279H65.52v4.192h-1.664V356.158z"/>
<path fill="#939598" d="M17.898,323.528h-0.109l-4.312,0.889H13.18l-0.673-3.449l0.054-0.242l6.82-3.504h4.581v19.946h-6.063
	V323.528z"/>
<path fill="#939598" d="M31.616,323.528h-0.109l-4.31,0.889h-0.296l-0.676-3.449l0.054-0.242l6.82-3.504h4.583v19.946h-6.066
	V323.528z"/>
<path fill="#939598" d="M43.88,337.436c-1.005,0-1.796-0.241-2.372-0.727c-0.576-0.484-0.863-1.25-0.863-2.29
	c0-1.042,0.287-1.802,0.863-2.278c0.576-0.476,1.366-0.714,2.372-0.714s1.797,0.238,2.373,0.714
	c0.575,0.476,0.864,1.237,0.864,2.278c0,1.041-0.289,1.806-0.864,2.29C45.677,337.194,44.886,337.436,43.88,337.436z"/>
<path fill="#939598" d="M57.788,337.436c-2.84,0-5.026-0.79-6.562-2.371c-1.536-1.581-2.305-3.899-2.305-6.954
	c0-7.44,3.864-11.161,11.589-11.161c0.72,0,1.469,0.045,2.25,0.136c0.784,0.091,1.613,0.225,2.494,0.404l-0.728,4.205
	c-0.809-0.144-1.508-0.247-2.101-0.309c-0.596-0.064-1.15-0.094-1.672-0.094c-1.744,0-3.055,0.314-3.936,0.943
	c-0.88,0.628-1.447,1.698-1.697,3.206c0.52-0.358,1.139-0.64,1.858-0.847c0.719-0.208,1.511-0.31,2.373-0.31
	c1.096,0,2.083,0.144,2.963,0.429c0.88,0.289,1.635,0.693,2.266,1.214c0.628,0.521,1.112,1.16,1.455,1.914
	c0.342,0.754,0.513,1.591,0.513,2.507c0,1.097-0.204,2.085-0.606,2.966c-0.406,0.88-0.986,1.626-1.739,2.236
	c-0.755,0.613-1.672,1.078-2.751,1.403C60.377,337.274,59.154,337.436,57.788,337.436z M57.788,328.002
	c-0.538,0-1.072,0.096-1.604,0.282c-0.529,0.19-0.948,0.419-1.253,0.689c0.071,1.492,0.333,2.562,0.782,3.207
	c0.448,0.647,1.142,0.971,2.074,0.971c0.9,0,1.554-0.21,1.968-0.633c0.414-0.423,0.621-1.092,0.621-2.007
	c0-0.9-0.203-1.541-0.607-1.929C59.366,328.196,58.706,328.002,57.788,328.002z"/>
<path fill="#939598" d="M12.906,339.496h3.687l1.32,3.615l0.455,1.788h0.073l0.467-1.788l1.32-3.615h3.675v8.884h-2.377v-5.967
	h-0.107l-0.732,2.402l-1.213,3.205h-2.136l-1.214-3.205l-0.732-2.402h-0.107v5.967h-2.378V339.496z"/>
<path fill="#939598" d="M25.366,339.496h2.699v8.884h-2.699V339.496z"/>
<path fill="#939598" d="M29.543,339.496h2.698v6.818h3.65v2.065h-6.348V339.496z"/>
<path fill="#939598" d="M36.779,339.496h2.701v6.818h3.648v2.065h-6.349V339.496z"/>
<path fill="#939598" d="M44.016,339.496h2.702v8.884h-2.702V339.496z"/>
<path fill="#939598" d="M52.396,348.498c-1.505,0-2.64-0.383-3.41-1.152c-0.767-0.767-1.152-1.897-1.152-3.396
	c0-1.512,0.385-2.65,1.152-3.42c0.77-0.768,1.905-1.15,3.41-1.15c1.496,0,2.631,0.385,3.402,1.155
	c0.772,0.774,1.158,1.913,1.158,3.416c0,1.499-0.386,2.63-1.158,3.396C55.026,348.114,53.892,348.498,52.396,348.498z
	 M52.396,346.362c0.36,0,0.656-0.033,0.887-0.102c0.232-0.068,0.415-0.189,0.551-0.366c0.136-0.177,0.229-0.421,0.282-0.732
	c0.054-0.313,0.079-0.716,0.079-1.213c0-0.478-0.03-0.878-0.09-1.193c-0.061-0.318-0.157-0.567-0.293-0.75
	c-0.138-0.184-0.32-0.313-0.554-0.385c-0.231-0.071-0.52-0.107-0.862-0.107c-0.345,0-0.633,0.036-0.865,0.107
	c-0.231,0.072-0.416,0.201-0.553,0.385c-0.136,0.183-0.234,0.431-0.293,0.744c-0.061,0.312-0.09,0.711-0.09,1.199
	c0,0.489,0.027,0.889,0.085,1.201c0.056,0.313,0.151,0.557,0.288,0.739c0.136,0.179,0.318,0.304,0.553,0.372
	C51.751,346.329,52.043,346.362,52.396,346.362z"/>
<path fill="#939598" d="M58.06,339.496h2.124l3.229,3.914l0.72,0.996h0.122v-4.909h2.352v8.884h-2.125l-3.109-3.793l-0.84-1.129
	h-0.121v4.922H58.06V339.496z"/>
<line fill="none" stroke="#939598" stroke-width="1.3482" stroke-miterlimit="10" x1="11.187" y1="313.246" x2="68.327" y2="313.246"/>
<line fill="none" stroke="#939598" stroke-width="1.3482" stroke-miterlimit="10" x1="11.187" y1="351.053" x2="68.327" y2="351.053"/>
<line fill="none" stroke="#939598" stroke-width="1.3482" stroke-miterlimit="10" x1="11.187" y1="364.19" x2="68.327" y2="364.19"/>
<path fill="#939598" d="M130.109,329.56c0.055,0.024,0.112,0.043,0.169,0.068l8.712-21.891c-0.044-0.021-0.087-0.036-0.133-0.054
	c-43.452-17.381-64.588-66.699-47.205-110.151c1.03-2.576,2.175-5.07,3.423-7.487L74.153,179.21
	c-1.596,3.088-3.06,6.278-4.378,9.571C47.561,244.317,74.57,307.344,130.109,329.56z"/>
<path fill="#4B2E83" d="M201.804,150.324c43.453,17.383,64.587,66.7,47.206,110.152c-17.364,43.411-66.597,64.545-110.02,47.261
	l-8.712,21.891c55.495,22.087,118.417-4.921,140.609-60.4c22.215-55.536-4.798-118.565-60.333-140.779
	c-52.243-20.9-111.112,1.77-136.401,50.761l20.922,10.834C114.866,151.71,160.926,133.973,201.804,150.324z"/>
<polygon fill="#4B2E83" points="95.097,189.971 79.885,193.674 74.173,179.097 "/>
<polygon fill="#939598" points="138.929,307.698 144.253,322.476 130.265,329.629 "/>
<rect x="112.036" y="5.563" fill="#4B2E83" width="117.497" height="6.362"/>
<rect x="112.036" y="40.706" fill="#4B2E83" width="117.497" height="6.362"/>
<path fill="#B7A57A" d="M74.24,31.979c-0.333,0-0.689-0.011-1.067-0.032c-0.378-0.019-0.766-0.053-1.167-0.099
	c-0.399-0.046-0.794-0.096-1.19-0.152c-0.393-0.057-0.766-0.125-1.119-0.207v-2.755c0.839,0.184,1.603,0.325,2.287,0.42
	c0.684,0.097,1.322,0.146,1.914,0.146c0.623,0,1.061-0.056,1.314-0.167c0.255-0.114,0.381-0.301,0.381-0.567
	c0-0.295-0.143-0.512-0.426-0.649c-0.286-0.138-0.737-0.247-1.347-0.329c-0.655-0.093-1.233-0.226-1.736-0.406
	c-0.5-0.177-0.924-0.419-1.268-0.719c-0.343-0.3-0.598-0.668-0.769-1.102c-0.172-0.433-0.258-0.95-0.258-1.553
	c0-1.102,0.434-1.959,1.301-2.57c0.866-0.611,2.075-0.919,3.63-0.919c0.271,0,0.539,0.009,0.802,0.025
	c0.266,0.014,0.551,0.039,0.856,0.075c0.306,0.036,0.638,0.083,0.997,0.138c0.358,0.055,0.763,0.129,1.22,0.222v2.723
	c-0.269-0.081-0.554-0.153-0.854-0.214c-0.3-0.062-0.605-0.115-0.911-0.16c-0.306-0.047-0.606-0.082-0.901-0.109
	c-0.295-0.024-0.569-0.037-0.816-0.037c-1.11,0-1.666,0.25-1.666,0.749c0,0.326,0.156,0.577,0.466,0.749
	c0.312,0.175,0.808,0.318,1.494,0.429c0.654,0.114,1.218,0.259,1.696,0.436c0.476,0.18,0.875,0.401,1.189,0.666
	c0.318,0.266,0.554,0.584,0.709,0.956c0.155,0.374,0.233,0.809,0.233,1.309C79.234,30.745,77.569,31.979,74.24,31.979z"/>
<path fill="#B7A57A" d="M85.971,31.947c-1.951,0-3.424-0.488-4.419-1.469c-0.996-0.978-1.495-2.421-1.495-4.328
	c0-1.928,0.499-3.382,1.495-4.361c0.995-0.98,2.468-1.471,4.419-1.471c1.939,0,3.41,0.493,4.41,1.479
	c1.001,0.984,1.502,2.435,1.502,4.353c0,1.907-0.501,3.35-1.502,4.328C89.38,31.458,87.91,31.947,85.971,31.947z M85.971,29.225
	c0.465,0,0.851-0.044,1.151-0.131c0.301-0.087,0.538-0.242,0.717-0.466c0.174-0.223,0.297-0.535,0.365-0.934
	c0.066-0.396,0.1-0.911,0.1-1.544c0-0.613-0.04-1.119-0.117-1.524c-0.079-0.401-0.203-0.722-0.382-0.956
	c-0.174-0.234-0.414-0.396-0.715-0.488c-0.301-0.093-0.674-0.138-1.119-0.138c-0.447,0-0.819,0.044-1.12,0.138
	c-0.301,0.092-0.54,0.254-0.716,0.488c-0.176,0.234-0.302,0.552-0.381,0.949c-0.077,0.399-0.117,0.91-0.117,1.531
	c0,0.622,0.037,1.131,0.109,1.53c0.072,0.397,0.196,0.712,0.374,0.94c0.174,0.23,0.412,0.387,0.715,0.474
	C85.135,29.18,85.514,29.225,85.971,29.225z"/>
<path fill="#B7A57A" d="M98.977,32.009c-2.076,0-3.615-0.476-4.62-1.43c-1.006-0.955-1.51-2.432-1.51-4.429
	c0-2.01,0.486-3.495,1.456-4.454c0.969-0.958,2.434-1.438,4.395-1.438c0.364,0,0.759,0.018,1.19,0.053
	c0.43,0.037,0.955,0.095,1.58,0.178v2.708c-0.343-0.032-0.631-0.057-0.864-0.076c-0.233-0.022-0.436-0.037-0.605-0.047
	c-0.173-0.01-0.324-0.018-0.453-0.023c-0.128-0.005-0.261-0.007-0.397-0.007c-0.56,0-1.013,0.037-1.361,0.113
	c-0.347,0.077-0.618,0.228-0.816,0.452c-0.195,0.224-0.332,0.542-0.403,0.949c-0.074,0.408-0.111,0.938-0.111,1.592
	c0,0.643,0.037,1.161,0.111,1.559c0.071,0.399,0.208,0.708,0.403,0.927c0.198,0.219,0.47,0.369,0.816,0.451
	c0.348,0.082,0.791,0.123,1.332,0.123c0.175,0,0.373-0.005,0.591-0.015c0.218-0.011,0.436-0.026,0.653-0.046
	c0.216-0.019,0.421-0.042,0.614-0.062c0.192-0.02,0.355-0.044,0.49-0.077v2.725c-0.385,0.081-0.789,0.147-1.215,0.199
	S99.4,32.009,98.977,32.009z"/>
<path fill="#B7A57A" d="M102.912,20.473h3.5v4.313h1.293l2.239-4.313h3.874l-2.877,4.926l-0.902,0.412v0.138l0.933,0.429
	l3.128,5.416h-3.875l-2.316-4.376h-1.496v4.376h-3.5V20.473z"/>
<path fill="#B7A57A" d="M114.859,20.473h9.025v2.63h-5.523v1.715h4.933v2.632h-4.933v1.698h5.679v2.646h-9.18V20.473z"/>
<path fill="#B7A57A" d="M128.768,28.275l-4.417-7.802h3.811l1.758,3.472l0.499,1.254h0.154l0.483-1.254l1.773-3.472h3.78
	l-4.34,7.696v3.625h-3.501V28.275z"/>
<path fill="#B7A57A" d="M137.388,20.473h9.023v2.63h-5.522v1.715h4.931v2.632h-4.931v1.698h5.678v2.646h-9.178V20.473z"/>
<path fill="#B7A57A" d="M151.14,20.55c1.348-0.155,2.62-0.232,3.812-0.232c1.129,0,2.098,0.081,2.901,0.239
	c0.803,0.158,1.465,0.407,1.984,0.749c0.519,0.344,0.899,0.779,1.143,1.309c0.244,0.53,0.365,1.168,0.365,1.913
	c0,2.825-2.094,4.239-6.285,4.239h-0.419v3.028h-3.501V20.55z M155.636,26.119c0.417,0,0.764-0.027,1.042-0.076
	c0.28-0.052,0.5-0.138,0.66-0.262c0.164-0.122,0.276-0.285,0.343-0.489c0.069-0.203,0.104-0.459,0.104-0.765
	s-0.03-0.559-0.087-0.756c-0.055-0.2-0.162-0.357-0.312-0.476c-0.15-0.117-0.357-0.201-0.621-0.251
	c-0.265-0.051-0.605-0.076-1.019-0.076c-0.168,0-0.361,0.004-0.584,0.015s-0.398,0.024-0.521,0.045v3.016
	c0.155,0.021,0.315,0.036,0.481,0.052C155.288,26.111,155.46,26.119,155.636,26.119z"/>
<path fill="#B7A57A" d="M167.989,31.947c-1.951,0-3.423-0.488-4.417-1.469c-0.998-0.978-1.495-2.421-1.495-4.328
	c0-1.928,0.498-3.382,1.495-4.361c0.994-0.98,2.466-1.471,4.417-1.471c1.939,0,3.409,0.493,4.411,1.479
	c1.001,0.984,1.502,2.435,1.502,4.353c0,1.907-0.501,3.35-1.502,4.328C171.397,31.458,169.928,31.947,167.989,31.947z
	 M167.989,29.225c0.467,0,0.85-0.044,1.152-0.131c0.3-0.087,0.539-0.242,0.714-0.466c0.177-0.223,0.297-0.535,0.366-0.934
	c0.067-0.396,0.102-0.911,0.102-1.544c0-0.613-0.04-1.119-0.117-1.524c-0.078-0.401-0.206-0.722-0.381-0.956
	c-0.176-0.234-0.416-0.396-0.717-0.488c-0.301-0.093-0.673-0.138-1.12-0.138c-0.445,0-0.819,0.044-1.119,0.138
	c-0.303,0.092-0.541,0.254-0.716,0.488c-0.178,0.234-0.303,0.552-0.381,0.949c-0.078,0.399-0.116,0.91-0.116,1.531
	c0,0.622,0.035,1.131,0.108,1.53c0.071,0.397,0.196,0.712,0.374,0.94c0.175,0.23,0.414,0.387,0.714,0.474
	C167.152,29.18,167.533,29.225,167.989,29.225z"/>
<path fill="#B7A57A" d="M175.332,20.55c1.349-0.155,2.619-0.232,3.812-0.232c1.132,0,2.099,0.081,2.902,0.239
	c0.805,0.158,1.465,0.407,1.984,0.749c0.518,0.344,0.897,0.779,1.141,1.309c0.245,0.53,0.366,1.168,0.366,1.913
	c0,2.825-2.093,4.239-6.284,4.239h-0.421v3.028h-3.5V20.55z M179.83,26.119c0.413,0,0.761-0.027,1.041-0.076
	c0.281-0.052,0.5-0.138,0.662-0.262c0.16-0.122,0.274-0.285,0.341-0.489c0.067-0.203,0.102-0.459,0.102-0.765
	s-0.03-0.559-0.085-0.756c-0.057-0.2-0.163-0.357-0.312-0.476c-0.15-0.117-0.356-0.201-0.621-0.251
	c-0.266-0.051-0.604-0.076-1.02-0.076c-0.166,0-0.36,0.004-0.584,0.015c-0.223,0.01-0.396,0.024-0.521,0.045v3.016
	c0.156,0.021,0.316,0.036,0.483,0.052C179.482,26.111,179.651,26.119,179.83,26.119z"/>
<path fill="#B7A57A" d="M192.228,31.947c-1.059,0-1.945-0.101-2.662-0.306c-0.713-0.204-1.289-0.507-1.725-0.909
	c-0.436-0.404-0.746-0.909-0.935-1.517c-0.186-0.605-0.28-1.318-0.28-2.133v-6.641h3.501v6.747c0,0.643,0.163,1.14,0.49,1.493
	c0.325,0.35,0.864,0.527,1.61,0.527c0.756,0,1.296-0.177,1.619-0.527c0.32-0.353,0.48-0.851,0.48-1.493v-6.747h3.501v6.641
	c0,0.815-0.093,1.528-0.28,2.133c-0.185,0.608-0.497,1.115-0.932,1.524c-0.435,0.407-1.011,0.709-1.729,0.909
	C194.172,31.848,193.284,31.947,192.228,31.947z"/>
<path fill="#B7A57A" d="M199.617,20.473h3.5v8.69h4.731v2.631h-8.23V20.473z"/>
<path fill="#B7A57A" d="M207.972,31.627l3.546-11.154h5.195l3.549,11.154v0.167h-3.378l-0.7-2.308h-4.154l-0.684,2.308h-3.375
	V31.627z M215.423,26.868l-0.481-1.682l-0.684-2.373h-0.281l-0.701,2.401l-0.466,1.653H215.423z"/>
<path fill="#B7A57A" d="M222.535,23.12h-3.128v-2.647h9.754v2.647h-3.127v8.673h-3.499V23.12z"/>
<path fill="#B7A57A" d="M230.42,20.473h3.501v11.321h-3.501V20.473z"/>
<path fill="#B7A57A" d="M241.281,31.947c-1.951,0-3.424-0.488-4.419-1.469c-0.995-0.978-1.494-2.421-1.494-4.328
	c0-1.928,0.499-3.382,1.494-4.361c0.996-0.98,2.468-1.471,4.419-1.471c1.938,0,3.408,0.493,4.41,1.479
	c0.999,0.984,1.5,2.435,1.5,4.353c0,1.907-0.501,3.35-1.5,4.328C244.688,31.458,243.219,31.947,241.281,31.947z M241.281,29.225
	c0.466,0,0.849-0.044,1.15-0.131c0.301-0.087,0.54-0.242,0.716-0.466c0.175-0.223,0.298-0.535,0.365-0.934
	c0.067-0.396,0.101-0.911,0.101-1.544c0-0.613-0.039-1.119-0.116-1.524c-0.078-0.401-0.205-0.722-0.381-0.956
	c-0.178-0.234-0.416-0.396-0.716-0.488c-0.301-0.093-0.674-0.138-1.119-0.138c-0.448,0-0.821,0.044-1.122,0.138
	c-0.302,0.092-0.539,0.254-0.716,0.488c-0.176,0.234-0.302,0.552-0.38,0.949c-0.078,0.399-0.115,0.91-0.115,1.531
	c0,0.622,0.034,1.131,0.107,1.53c0.072,0.397,0.198,0.712,0.374,0.94c0.177,0.23,0.415,0.387,0.716,0.474
	C240.443,29.18,240.823,29.225,241.281,29.225z"/>
<path fill="#B7A57A" d="M248.623,20.473h2.753l4.187,4.988l0.932,1.269h0.155v-6.256h3.05v11.321h-2.755l-4.029-4.835l-1.087-1.438
	h-0.158v6.272h-3.048V20.473z"/>
<rect x="60.431" y="11.7" fill="none" stroke="#4B2E83" stroke-width="1.3482" stroke-miterlimit="10" width="213.999" height="28.932"/>
</svg>
